<?xml version="1.0" encoding="UTF-8"?>
<svg version="1.1" xmlns="http://www.w3.org/2000/svg" width="443" height="579">
<path d="M0 0 C0.66 0 1.32 0 2 0 C2 0.99 2 1.98 2 3 C2.66 3 3.32 3 4 3 C10.33011749 14.14428451 14.32942884 22.86990755 14 36 C13.05078125 38.6875 13.05078125 38.6875 12 41 C11.6186926 43.32597511 11.27539746 45.65912158 11 48 C10.34 48 9.68 48 9 48 C9 48.66 9 49.32 9 50 C8.34 50 7.68 50 7 50 C6.731875 50.639375 6.46375 51.27875 6.1875 51.9375 C5 54 5 54 2 55 C2 55.66 2 56.32 2 57 C-2.27813651 55.5739545 -3.52095288 53.32096008 -5.765625 49.50390625 C-8.52432978 41.67302592 -8.69914149 29.96143387 -6 22 C-5.34 21.67 -4.68 21.34 -4 21 C-3.68758545 18.28553021 -3.48663408 15.66090639 -3.375 12.9375 C-3.33632812 12.17888672 -3.29765625 11.42027344 -3.2578125 10.63867188 C-3.16326438 8.75952805 -3.08053244 6.87979664 -3 5 C-2.01 5 -1.02 5 0 5 C0 3.35 0 1.7 0 0 Z " fill="#B28603" transform="translate(214,94)"/>
<path d="M0 0 C0.66 1.32 1.32 2.64 2 4 C2.66 2.68 3.32 1.36 4 0 C4.66 0 5.32 0 6 0 C6.223293 2.06093408 6.42802887 4.1238839 6.625 6.1875 C6.74101562 7.33605469 6.85703125 8.48460938 6.9765625 9.66796875 C7.00062418 13.08873741 6.40763977 14.93631344 5 18 C4.6186926 20.32597511 4.27539746 22.65912158 4 25 C3.34 25 2.68 25 2 25 C2 25.66 2 26.32 2 27 C1.01 27.33 0.02 27.66 -1 28 C-1.66 27.34 -2.32 26.68 -3 26 C-3.99 26.33 -4.98 26.66 -6 27 C-7 24 -7 24 -7 21 C-7.020625 19.865625 -7.04125 18.73125 -7.0625 17.5625 C-7.01319896 14.75234086 -6.84485958 12.64018619 -6 10 C-5.01 10 -4.02 10 -3 10 C-3.99 9.34 -4.98 8.68 -6 8 C-5 6 -5 6 -3 3 C-2.34 3 -1.68 3 -1 3 C-0.67 2.01 -0.34 1.02 0 0 Z " fill="#A98005" transform="translate(221,117)"/>
<path d="M0 0 C2.475 0.495 2.475 0.495 5 1 C5 1.66 5 2.32 5 3 C5.66 3 6.32 3 7 3 C6.67 4.98 6.34 6.96 6 9 C4.68 9 3.36 9 2 9 C1.67 7.68 1.34 6.36 1 5 C0.67 5 0.34 5 0 5 C0 3.35 0 1.7 0 0 Z " fill="#A27D0F" transform="translate(221,123)"/>
<path d="M0 0 C0.66 0 1.32 0 2 0 C1.67 0.99 1.34 1.98 1 3 C0.67 2.01 0.34 1.02 0 0 Z " fill="#EFECE4" transform="translate(252,445)"/>
<path d="M0 0 C3 1 3 1 3 1 Z " fill="#FFFFFF" transform="translate(293,241)"/>
<path d="" fill="#FFFFFF" transform="translate(0,0)"/>
</svg>
