<?xml version="1.0" encoding="UTF-8"?>
<svg version="1.1" xmlns="http://www.w3.org/2000/svg" width="443" height="579">
<path d="M0 0 C0.33 0 0.66 0 1 0 C1.25 7.625 1.25 7.625 -1 11 C-1.66 11 -2.32 11 -3 11 C-3 11.66 -3 12.32 -3 13 C-3.66 13 -4.32 13 -5 13 C-5 13.99 -5 14.98 -5 16 C-5.66 16 -6.32 16 -7 16 C-7 18.97 -7 21.94 -7 25 C-7.66 25 -8.32 25 -9 25 C-9 27.97 -9 30.94 -9 34 C-9.66 34 -10.32 34 -11 34 C-11 35.65 -11 37.3 -11 39 C-11.66 39 -12.32 39 -13 39 C-13 40.32 -13 41.64 -13 43 C-13.66 43 -14.32 43 -15 43 C-15 44.32 -15 45.64 -15 47 C-16.98 47.495 -16.98 47.495 -19 48 C-19 48.99 -19 49.98 -19 51 C-19.66 51 -20.32 51 -21 51 C-21 52.98 -21 54.96 -21 57 C-22.98 57.495 -22.98 57.495 -25 58 C-25 58.66 -25 59.32 -25 60 C-25.66 60 -26.32 60 -27 60 C-27 60.66 -27 61.32 -27 62 C-27.66 62 -28.32 62 -29 62 C-29.33 62.99 -29.66 63.98 -30 65 C-31.33333333 65.33333333 -32.66666667 65.66666667 -34 66 C-34.33 66.99 -34.66 67.98 -35 69 C-37.75 70.5625 -37.75 70.5625 -41 72 C-41.7425 72.350625 -42.485 72.70125 -43.25 73.0625 C-49.96836452 75.35285154 -56.01851381 76.51771439 -63 75 C-63.97503662 63.64262899 -61.80549002 56.79417936 -54.55078125 48.046875 C-49.51625073 42.4178334 -44.31816665 36.83017609 -38.5 32 C-36.30056221 30.15684263 -34.40673089 28.36332095 -32.4375 26.25 C-29.69985478 23.72294288 -27.52119709 23.07166868 -24 22 C-22.99866221 21.00133958 -21.99873177 20.00126662 -21 19 C-19.2675 18.2265625 -19.2675 18.2265625 -17.5 17.4375 C-10.98711381 14.31422 -3.77793084 8.79256845 -0.6796875 2.18359375 C-0.45539063 1.46300781 -0.23109375 0.74242187 0 0 Z " fill="#917013" transform="translate(139,457)"/>
<path d="M0 0 C1.32 0 2.64 0 4 0 C4 0.66 4 1.32 4 2 C4.66 2 5.32 2 6 2 C6 2.66 6 3.32 6 4 C7.32 4.33 8.64 4.66 10 5 C10 5.99 10 6.98 10 8 C11.32 8.33 12.64 8.66 14 9 C14 9.66 14 10.32 14 11 C14.86625 11.226875 15.7325 11.45375 16.625 11.6875 C20.66573255 13.25889599 22.87197109 15.02092484 26 18 C26 18.66 26 19.32 26 20 C26.66 20 27.32 20 28 20 C28 20.99 28 21.98 28 23 C28.66 23 29.32 23 30 23 C30 24.32 30 25.64 30 27 C30.66 27 31.32 27 32 27 C32 27.66 32 28.32 32 29 C32.66 29 33.32 29 34 29 C35.25664978 31.90600261 36 33.79604584 36 37 C36.66 37 37.32 37 38 37 C38 38.65 38 40.3 38 42 C38.66 42 39.32 42 40 42 C41.72293135 46.46334184 42.22240791 50.10201231 42.125 54.875 C42.10695313 56.02742188 42.08890625 57.17984375 42.0703125 58.3671875 C42.04710937 59.23601562 42.02390625 60.10484375 42 61 C41.34 61 40.68 61 40 61 C40 61.66 40 62.32 40 63 C35.29772419 65.35113791 28.4566112 63.4315885 23.625 62 C20.37261235 59.52199036 19.02616483 56.99550809 17.22265625 53.37109375 C16.09364729 51.18160991 14.82690875 49.35566358 13.375 47.375 C10.22111994 42.48549412 9.54974238 36.92496018 8.578125 31.29296875 C8.08507289 28.00952038 8.08507289 28.00952038 7 25 C6.80424296 21.25451521 6.6823988 17.51071704 6.57421875 13.76171875 C5.92719274 9.52303816 4.67136945 7.31289907 2 4 C1.34 3.67 0.68 3.34 0 3 C0 2.01 0 1.02 0 0 Z " fill="#4E351E" transform="translate(313,452)"/>
<path d="M0 0 C0.99 0 1.98 0 3 0 C3 0.99 3 1.98 3 3 C3.66 3 4.32 3 5 3 C7 6 7 6 7 9 C7.66 9 8.32 9 9 9 C11 12 11 12 11 16 C11.66 16 12.32 16 13 16 C13 16.66 13 17.32 13 18 C13.66 18 14.32 18 15 18 C18.04905128 22.81946816 19.42259486 26.22594865 20 32 C20.495 32.495 20.495 32.495 21 33 C21.07325168 35.86267567 21.09238205 38.700719 21.0625 41.5625 C21.05798828 42.36880859 21.05347656 43.17511719 21.04882812 44.00585938 C21.03700518 46.00393756 21.01906914 48.00197783 21 50 C20.34 50 19.68 50 19 50 C19 53.3 19 56.6 19 60 C18.34 60 17.68 60 17 60 C17 60.99 17 61.98 17 63 C16.34 63 15.68 63 15 63 C15 63.99 15 64.98 15 66 C13.02 66.495 13.02 66.495 11 67 C11 67.66 11 68.32 11 69 C9.02 69.495 9.02 69.495 7 70 C7 70.99 7 71.98 7 73 C4 73 4 73 2.46484375 71.6640625 C-3.75214722 63.36414105 -4.81167095 51.94381353 -3.59765625 41.80859375 C-2.5806221 35.32749374 -2.5806221 35.32749374 -2 32.125 C-1.835 31.19945313 -1.67 30.27390625 -1.5 29.3203125 C-1 27 -1 27 0 25 C0.28703556 23.40968244 0.53211951 21.81165921 0.75390625 20.2109375 C0.95209961 18.79941406 0.95209961 18.79941406 1.15429688 17.359375 C1.28900391 16.37453125 1.42371094 15.3896875 1.5625 14.375 C1.70107422 13.38242188 1.83964844 12.38984375 1.98242188 11.3671875 C2.32474895 8.91187608 2.66380439 6.45615723 3 4 C2.34 4 1.68 4 1 4 C0.67 2.68 0.34 1.36 0 0 Z " fill="#BA9524" transform="translate(208,83)"/>
<path d="M0 0 C5.75 0.875 5.75 0.875 8 2 C8 2.66 8 3.32 8 4 C9.794375 4.1546875 9.794375 4.1546875 11.625 4.3125 C15.5624176 4.78891352 18.54140375 6.01130716 22 8 C22 11.63 22 15.26 22 19 C22.66 19 23.32 19 24 19 C24 23.95 24 28.9 24 34 C23.34 34 22.68 34 22 34 C22 34.66 22 35.32 22 36 C15.33251915 36.1994013 10.92765406 35.56676783 5.8125 31.0625 C3.58203125 28.91015625 3.58203125 28.91015625 2 27 C2 26.34 2 25.68 2 25 C1.38125 24.773125 0.7625 24.54625 0.125 24.3125 C-2.73664583 22.54501287 -3.13870483 21.22985688 -4 18 C-4.79370539 11.38578839 -2.43933984 6.02212023 0 0 Z " fill="#775F33" transform="translate(303,102)"/>
<path d="M0 0 C0 0.99 0 1.98 0 3 C-1.98 3.66 -3.96 4.32 -6 5 C-6 7.31 -6 9.62 -6 12 C-5.34 12 -4.68 12 -4 12 C-4 16.29 -4 20.58 -4 25 C-4.66 25 -5.32 25 -6 25 C-6 26.98 -6 28.96 -6 31 C-6.66 31 -7.32 31 -8 31 C-8 33.31 -8 35.62 -8 38 C-8.66 38 -9.32 38 -10 38 C-10 39.98 -10 41.96 -10 44 C-10.66 44 -11.32 44 -12 44 C-12 44.66 -12 45.32 -12 46 C-13.98 46.66 -15.96 47.32 -18 48 C-22.90719929 43.48021118 -25.02335953 40.23493079 -25.30078125 33.56640625 C-25.31530778 31.89849618 -25.31892017 30.23046097 -25.3125 28.5625 C-25.33666992 27.31243164 -25.33666992 27.31243164 -25.36132812 26.03710938 C-25.36539578 20.89152572 -24.78533124 17.47036232 -22 13 C-21.43410156 11.97777344 -20.86820312 10.95554687 -20.28515625 9.90234375 C-17.42630993 6.27136458 -14.51172889 4.6094366 -10.4375 2.5625 C-9.76525391 2.19962891 -9.09300781 1.83675781 -8.40039062 1.46289062 C-3.40093956 -1.13364652 -3.40093956 -1.13364652 0 0 Z " fill="#8D6D0F" transform="translate(384,318)"/>
<path d="M0 0 C0.33 0 0.66 0 1 0 C1.25 7.625 1.25 7.625 -1 11 C-1.66 11 -2.32 11 -3 11 C-3 11.66 -3 12.32 -3 13 C-3.66 13 -4.32 13 -5 13 C-5 13.99 -5 14.98 -5 16 C-5.66 16 -6.32 16 -7 16 C-7 18.97 -7 21.94 -7 25 C-7.66 25 -8.32 25 -9 25 C-9.125 18.375 -9.125 18.375 -8 15 C-9.98270912 15.95098266 -11.96108379 16.91100703 -13.9375 17.875 C-15.03964844 18.40867187 -16.14179687 18.94234375 -17.27734375 19.4921875 C-20.09404511 20.71659845 -20.09404511 20.71659845 -21 23 C-20.34 23.33 -19.68 23.66 -19 24 C-19.33 25.32 -19.66 26.64 -20 28 C-20.99 28 -21.98 28 -23 28 C-23 28.66 -23 29.32 -23 30 C-26.3 30 -29.6 30 -33 30 C-32.34 31.65 -31.68 33.3 -31 35 C-32.32 34.67 -33.64 34.34 -35 34 C-35.33 34.66 -35.66 35.32 -36 36 C-37.485 35.505 -37.485 35.505 -39 35 C-40.03091609 38.6082063 -40.05358849 41.87464172 -39.875 45.625 C-40 48 -40 48 -42 50 C-42.226875 50.721875 -42.45375 51.44375 -42.6875 52.1875 C-44.56399333 56.20855713 -47.41470948 59.3753253 -51 62 C-52.32 62 -53.64 62 -55 62 C-55.33 62.99 -55.66 63.98 -56 65 C-56.99 65.495 -56.99 65.495 -58 66 C-56.84826645 68.46800047 -55.95216435 70.04783565 -54 72 C-47.88347791 72.7112235 -43.34151231 70.40490739 -38.1875 67.3125 C-36 66 -36 66 -34 66 C-35 69 -35 69 -37.75 70.5625 C-38.8225 71.036875 -39.895 71.51125 -41 72 C-41.7425 72.350625 -42.485 72.70125 -43.25 73.0625 C-49.96836452 75.35285154 -56.01851381 76.51771439 -63 75 C-63.97503662 63.64262899 -61.80549002 56.79417936 -54.55078125 48.046875 C-49.51625073 42.4178334 -44.31816665 36.83017609 -38.5 32 C-36.30056221 30.15684263 -34.40673089 28.36332095 -32.4375 26.25 C-29.69985478 23.72294288 -27.52119709 23.07166868 -24 22 C-22.99866221 21.00133958 -21.99873177 20.00126662 -21 19 C-19.2675 18.2265625 -19.2675 18.2265625 -17.5 17.4375 C-10.98711381 14.31422 -3.77793084 8.79256845 -0.6796875 2.18359375 C-0.45539063 1.46300781 -0.23109375 0.74242187 0 0 Z " fill="#A8810A" transform="translate(139,457)"/>
<path d="M0 0 C0.33 0.66 0.66 1.32 1 2 C2.85205414 2.5676272 2.85205414 2.5676272 5 3 C6.42366111 3.50139889 7.84062729 4.02224046 9.25 4.5625 C9.95640625 4.83191406 10.6628125 5.10132813 11.390625 5.37890625 C11.92171875 5.58386719 12.4528125 5.78882813 13 6 C13 6.66 13 7.32 13 8 C13.763125 8.268125 14.52625 8.53625 15.3125 8.8125 C17.88988618 9.95134505 19.26954864 10.81416671 21 13 C21 13.66 21 14.32 21 15 C21.66 15 22.32 15 23 15 C23 16.32 23 17.64 23 19 C23.66 19 24.32 19 25 19 C27.14336161 22.4766338 27.21277626 25.21229195 27.125 29.25 C27.10695312 30.32765625 27.08890625 31.4053125 27.0703125 32.515625 C27.04710937 33.33546875 27.02390625 34.1553125 27 35 C20.38624232 35.55114647 15.48088108 34.90498293 10 31 C4.79545387 26.46855914 1.56415033 20.69708045 0 14 C-0.30255731 9.31036175 -0.2433388 4.69103122 0 0 Z " fill="#A79767" transform="translate(206,311)"/>
<path d="M0 0 C0.34886026 5.32011893 0.34886026 5.32011893 0 8 C-1.875 10 -1.875 10 -4 11 C-4.66 11 -5.32 11 -6 11 C-6 11.66 -6 12.32 -6 13 C-9.08809695 14.76462683 -10.23312136 15 -14 15 C-14 15.66 -14 16.32 -14 17 C-21.46887895 19.12905975 -28.15596715 18.57079975 -35 15 C-34.51020408 8.51020408 -34.51020408 8.51020408 -32.0625 6.0625 C-30 5 -30 5 -28 5 C-27.67 4.01 -27.34 3.02 -27 2 C-18.83292864 -3.0245974 -8.79554397 -3.80347847 0 0 Z " fill="#947621" transform="translate(97,215)"/>
<path d="M0 0 C4.46031573 -0.44603157 6.52615127 -0.2983492 10.375 2.125 C13.32479731 5.35573039 13.73800362 6.72072585 14 11 C14.185625 12.11375 14.37125 13.2275 14.5625 14.375 C14.706875 15.24125 14.85125 16.1075 15 17 C15.99 17 16.98 17 18 17 C20.23186987 21.33245329 20.11328599 24.28994391 19 29 C17.4375 31.4375 17.4375 31.4375 16 33 C10.54520815 32.43179252 6.08940744 31.05362055 1 29 C1 28.34 1 27.68 1 27 C0.34 27 -0.32 27 -1 27 C-1.33 24.69 -1.66 22.38 -2 20 C-0.02 20.99 -0.02 20.99 2 22 C2 21.34 2 20.68 2 20 C2.99 20 3.98 20 5 20 C5 19.01 5 18.02 5 17 C4.34 17 3.68 17 3 17 C3.20496094 16.28199219 3.40992188 15.56398438 3.62109375 14.82421875 C4.07158363 11.46644364 3.43853997 9.87499972 2.0625 6.8125 C0 2.14915254 0 2.14915254 0 0 Z " fill="#685027" transform="translate(334,482)"/>
<path d="M0 0 C0.99 0.33 1.98 0.66 3 1 C3 1.99 3 2.98 3 4 C4.32 4.33 5.64 4.66 7 5 C7 5.66 7 6.32 7 7 C8.32 7.33 9.64 7.66 11 8 C11 8.66 11 9.32 11 10 C12.32 10.33 13.64 10.66 15 11 C15 11.99 15 12.98 15 14 C15.66 14 16.32 14 17 14 C17 14.99 17 15.98 17 17 C17.66 17 18.32 17 19 17 C19 22.94 19 28.88 19 35 C14 36 14 36 10.9375 34.0625 C3.36699211 27.05637445 1.38835628 15.76188006 0 6 C-0.125 2.3125 -0.125 2.3125 0 0 Z " fill="#80673C" transform="translate(58,331)"/>
<path d="M0 0 C0.33 0 0.66 0 1 0 C1.25 7.625 1.25 7.625 -1 11 C-1.66 11 -2.32 11 -3 11 C-3 11.66 -3 12.32 -3 13 C-3.66 13 -4.32 13 -5 13 C-5 13.99 -5 14.98 -5 16 C-5.66 16 -6.32 16 -7 16 C-7 18.97 -7 21.94 -7 25 C-7.66 25 -8.32 25 -9 25 C-9.125 18.375 -9.125 18.375 -8 15 C-9.98270912 15.95098266 -11.96108379 16.91100703 -13.9375 17.875 C-15.03964844 18.40867187 -16.14179687 18.94234375 -17.27734375 19.4921875 C-20.09404511 20.71659845 -20.09404511 20.71659845 -21 23 C-20.34 23.33 -19.68 23.66 -19 24 C-19.33 25.32 -19.66 26.64 -20 28 C-20.99 28 -21.98 28 -23 28 C-23 28.66 -23 29.32 -23 30 C-26.3 30 -29.6 30 -33 30 C-32.34 31.65 -31.68 33.3 -31 35 C-32.32 34.67 -33.64 34.34 -35 34 C-35.33 34.66 -35.66 35.32 -36 36 C-37.11375 36.1546875 -37.11375 36.1546875 -38.25 36.3125 C-41.98603875 37.24650969 -43.36031446 39.22036059 -46 42 C-47.28970703 43.31097656 -47.28970703 43.31097656 -48.60546875 44.6484375 C-49.45753906 45.54820312 -50.30960938 46.44796875 -51.1875 47.375 C-52.04730469 48.26960938 -52.90710938 49.16421875 -53.79296875 50.0859375 C-56.36163648 53.47748816 -57.08787686 55.89289804 -58 60 C-57.34 60.33 -56.68 60.66 -56 61 C-58.97 61.495 -58.97 61.495 -62 62 C-59.54101369 55.56880503 -56.86160641 50.49803846 -52.125 45.4375 C-51.28195313 44.52871094 -50.43890625 43.61992187 -49.5703125 42.68359375 C-46.0081956 38.96448385 -42.4652746 35.29192608 -38.5 32 C-36.30056221 30.15684263 -34.40673089 28.36332095 -32.4375 26.25 C-29.69985478 23.72294288 -27.52119709 23.07166868 -24 22 C-22.99866221 21.00133958 -21.99873177 20.00126662 -21 19 C-19.2675 18.2265625 -19.2675 18.2265625 -17.5 17.4375 C-10.98711381 14.31422 -3.77793084 8.79256845 -0.6796875 2.18359375 C-0.45539063 1.46300781 -0.23109375 0.74242187 0 0 Z " fill="#9B7C22" transform="translate(139,457)"/>
<path d="M0 0 C0.66 1.32 1.32 2.64 2 4 C2.66 2.68 3.32 1.36 4 0 C4.66 0 5.32 0 6 0 C6.92350727 2.77052181 7.16329585 4.56688758 7.1875 7.4375 C7.20167969 8.19933594 7.21585938 8.96117188 7.23046875 9.74609375 C6.97165412 12.27721306 6.34445194 13.8498138 5 16 C2.875 17.25 2.875 17.25 1 18 C0.84850702 21.62885324 0.84850702 21.62885324 2 25 C1.34 25 0.68 25 0 25 C0 26.98 0 28.96 0 31 C-1.32 31.33 -2.64 31.66 -4 32 C-4.50615298 30.73160474 -5.00469099 29.46016898 -5.5 28.1875 C-5.7784375 27.47980469 -6.056875 26.77210938 -6.34375 26.04296875 C-7 24 -7 24 -7 21 C-7.020625 19.865625 -7.04125 18.73125 -7.0625 17.5625 C-7.01319896 14.75234086 -6.84485958 12.64018619 -6 10 C-5.01 10 -4.02 10 -3 10 C-3.99 9.34 -4.98 8.68 -6 8 C-5 6 -5 6 -3 3 C-2.34 3 -1.68 3 -1 3 C-0.67 2.01 -0.34 1.02 0 0 Z " fill="#A88007" transform="translate(221,117)"/>
<path d="M0 0 C0.33 0.66 0.66 1.32 1 2 C2.85205414 2.5676272 2.85205414 2.5676272 5 3 C6.42366111 3.50139889 7.84062729 4.02224046 9.25 4.5625 C9.95640625 4.83191406 10.6628125 5.10132813 11.390625 5.37890625 C11.92171875 5.58386719 12.4528125 5.78882813 13 6 C13 6.66 13 7.32 13 8 C13.763125 8.2475 14.52625 8.495 15.3125 8.75 C18.2364045 10.10995558 19.30004356 11.31585826 21 14 C20.01 14 19.02 14 18 14 C17.34 14.66 16.68 15.32 16 16 C15.01 16 14.02 16 13 16 C12.67 15.01 12.34 14.02 12 13 C11.34 12.67 10.68 12.34 10 12 C10.515625 12.721875 11.03125 13.44375 11.5625 14.1875 C13.21442982 17.4195366 13.06351675 18.61608307 12 22 C10.125 22.625 10.125 22.625 8 23 C7.34 22.34 6.68 21.68 6 21 C5.67 22.32 5.34 23.64 5 25 C4.35165346 23.730447 3.70642185 22.45930294 3.0625 21.1875 C2.70285156 20.47980469 2.34320313 19.77210938 1.97265625 19.04296875 C-0.03988877 14.81581596 -0.10508538 11.4543066 -0.0625 6.8125 C-0.05347656 5.54019531 -0.04445312 4.26789063 -0.03515625 2.95703125 C-0.02355469 1.98121094 -0.01195312 1.00539063 0 0 Z " fill="#C2B489" transform="translate(206,311)"/>
<path d="M0 0 C1.23556641 0.01740234 1.23556641 0.01740234 2.49609375 0.03515625 C3.32238281 0.04417969 4.14867188 0.05320312 5 0.0625 C5.63808594 0.07410156 6.27617188 0.08570313 6.93359375 0.09765625 C7.26359375 1.08765625 7.59359375 2.07765625 7.93359375 3.09765625 C4.96359375 2.60265625 4.96359375 2.60265625 1.93359375 2.09765625 C1.93359375 4.07765625 1.93359375 6.05765625 1.93359375 8.09765625 C0.94359375 8.09765625 -0.04640625 8.09765625 -1.06640625 8.09765625 C-1.06640625 10.40765625 -1.06640625 12.71765625 -1.06640625 15.09765625 C-2.24203125 15.19046875 -2.24203125 15.19046875 -3.44140625 15.28515625 C-4.30765625 15.55328125 -5.17390625 15.82140625 -6.06640625 16.09765625 C-7.22162127 18.56896543 -7.22162127 18.56896543 -8.06640625 21.09765625 C-9.05640625 21.42765625 -10.04640625 21.75765625 -11.06640625 22.09765625 C-11.39640625 23.08765625 -11.72640625 24.07765625 -12.06640625 25.09765625 C-15.42236453 24.49837799 -17.44441851 23.25143189 -20.06640625 21.09765625 C-19.50103631 17.81851057 -18.69610505 16.16384817 -16.06640625 14.09765625 C-15.30328125 13.82953125 -14.54015625 13.56140625 -13.75390625 13.28515625 C-9.10632649 11.2315745 -5.89458347 7.87232173 -3.75390625 3.28515625 C-3.52703125 2.56328125 -3.30015625 1.84140625 -3.06640625 1.09765625 C-2.06640625 0.09765625 -2.06640625 0.09765625 0 0 Z " fill="#7E620C" transform="translate(100.06640625,504.90234375)"/>
<path d="M0 0 C0.66 0 1.32 0 2 0 C2.33 0.66 2.66 1.32 3 2 C5.02463255 2.65213292 5.02463255 2.65213292 7 3 C6.67 4.65 6.34 6.3 6 8 C5.34 8 4.68 8 4 8 C4 10.31 4 12.62 4 15 C5.32 15.66 6.64 16.32 8 17 C7.67 18.65 7.34 20.3 7 22 C7.66 22.33 8.32 22.66 9 23 C6.21192326 23.77446576 4.56670499 24.21049043 1.8125 23.1875 C0 22 0 22 -2 20 C-1.625 16.875 -1.625 16.875 -1 14 C-1.33 14.66 -1.66 15.32 -2 16 C-3.98 16 -5.96 16 -8 16 C-8.05399736 14.54207116 -8.09279177 13.08357288 -8.125 11.625 C-8.15980469 10.40683594 -8.15980469 10.40683594 -8.1953125 9.1640625 C-8 7 -8 7 -6 5 C-5.34 5.66 -4.68 6.32 -4 7 C-1.34807995 3.73837042 -1.34807995 3.73837042 0 0 Z " fill="#71592D" transform="translate(309,109)"/>
<path d="M0 0 C-0.33 0.99 -0.66 1.98 -1 3 C-1.66 2.34 -2.32 1.68 -3 1 C-5.41482413 0.49940084 -5.41482413 0.49940084 -8 1 C-10.18777466 2.9375006 -10.18777466 2.9375006 -12 5 C-12.66 5 -13.32 5 -14 5 C-14 4.34 -14 3.68 -14 3 C-14.86625 3.556875 -14.86625 3.556875 -15.75 4.125 C-18 5 -18 5 -20.25 4.125 C-20.8275 3.75375 -21.405 3.3825 -22 3 C-22.33 3.66 -22.66 4.32 -23 5 C-23.66 4.67 -24.32 4.34 -25 4 C-25.20625 4.78375 -25.4125 5.5675 -25.625 6.375 C-27 9 -27 9 -30.125 10.3125 C-31.07375 10.539375 -32.0225 10.76625 -33 11 C-33 11.66 -33 12.32 -33 13 C-27.93710706 15.91464708 -22.47250762 15.80814723 -16.8515625 14.5 C-11.80523976 12.74475731 -7.41530792 9.96638204 -3 7 C-2.01 6.34 -1.02 5.68 0 5 C-0.1875 6.875 -0.1875 6.875 -1 9 C-3.5625 10.25 -3.5625 10.25 -6 11 C-6 11.66 -6 12.32 -6 13 C-9.08809695 14.76462683 -10.23312136 15 -14 15 C-14 15.66 -14 16.32 -14 17 C-21.46887895 19.12905975 -28.15596715 18.57079975 -35 15 C-34.51020408 8.51020408 -34.51020408 8.51020408 -32.0625 6.0625 C-30 5 -30 5 -28 5 C-27.67 4.01 -27.34 3.02 -27 2 C-18.83292864 -3.0245974 -8.79554397 -3.80347847 0 0 Z " fill="#C3B17A" transform="translate(97,215)"/>
<path d="M0 0 C3 2 3 2 4 5 C3.34 5 2.68 5 2 5 C2 5.99 2 6.98 2 8 C3.32 8.33 4.64 8.66 6 9 C6.33 10.98 6.66 12.96 7 15 C8.98 15.66 10.96 16.32 13 17 C12.5020163 20.73487777 12.12508244 22.81237635 10 26 C3.69072165 24.94845361 3.69072165 24.94845361 1 23 C-1.08649821 18.14630203 -1.27698899 13.86373138 -1.1875 8.6875 C-1.18685547 7.95982422 -1.18621094 7.23214844 -1.18554688 6.48242188 C-1.14074248 1.14074248 -1.14074248 1.14074248 0 0 Z " fill="#543C24" transform="translate(361,337)"/>
<path d="M0 0 C4.75 1.875 4.75 1.875 7 3 C6.67 3.66 6.34 4.32 6 5 C5.34 5 4.68 5 4 5 C4.34933594 5.53109375 4.69867188 6.0621875 5.05859375 6.609375 C5.51363281 7.31578125 5.96867187 8.0221875 6.4375 8.75 C6.88996094 9.44609375 7.34242188 10.1421875 7.80859375 10.859375 C10.36785254 15.4576498 10.33259116 19.84483705 10 25 C9.01 25.66 8.02 26.32 7 27 C6.67 27.66 6.34 28.32 6 29 C6.99 28.67 7.98 28.34 9 28 C9.93065133 30.60582371 10.14917407 31.64198224 9.0625 34.25 C8.711875 34.8275 8.36125 35.405 8 36 C7.01 35.67 6.02 35.34 5 35 C4.10463629 32.48371924 3.44750763 30.15621097 2.875 27.5625 C2.61734863 26.44113647 2.61734863 26.44113647 2.35449219 25.29711914 C0.56490788 16.92864066 0.19959355 8.53262406 0 0 Z " fill="#967D3C" transform="translate(320,458)"/>
<path d="M0 0 C1.32 0 2.64 0 4 0 C4 0.66 4 1.32 4 2 C4.66 2 5.32 2 6 2 C6 2.66 6 3.32 6 4 C7.32 4.33 8.64 4.66 10 5 C9.67 5.66 9.34 6.32 9 7 C8.34 6.67 7.68 6.34 7 6 C7.33 6.99 7.66 7.98 8 9 C8.13033132 11.20694371 8.2297127 13.41576188 8.3125 15.625 C8.74603014 24.35318955 10.78312474 32.57587403 13 41 C15.97 41 18.94 41 22 41 C22 41.99 22 42.98 22 44 C22.66 44 23.32 44 24 44 C24 44.99 24 45.98 24 47 C24.66 47 25.32 47 26 47 C26 47.99 26 48.98 26 50 C25.01 50 24.02 50 23 50 C23 50.66 23 51.32 23 52 C21.515 51.505 21.515 51.505 20 51 C20 51.66 20 52.32 20 53 C19.67 53.99 19.34 54.98 19 56 C18.22857328 54.77120566 17.45789096 53.54194398 16.6875 52.3125 C16.25824219 51.62800781 15.82898438 50.94351563 15.38671875 50.23828125 C14.92910156 49.49964844 14.47148437 48.76101563 14 48 C13.48308594 47.24332031 12.96617187 46.48664063 12.43359375 45.70703125 C10.66558835 42.36853604 10.00788447 39.05723693 9.375 35.375 C8.43597419 30.12910399 8.43597419 30.12910399 7 25 C6.80424296 21.25451521 6.6823988 17.51071704 6.57421875 13.76171875 C5.92719274 9.52303816 4.67136945 7.31289907 2 4 C1.34 3.67 0.68 3.34 0 3 C0 2.01 0 1.02 0 0 Z " fill="#988253" transform="translate(313,452)"/>
<path d="M0 0 C0.99 0.33 1.98 0.66 3 1 C3 1.99 3 2.98 3 4 C3.66 4 4.32 4 5 4 C5.103125 4.639375 5.20625 5.27875 5.3125 5.9375 C5.539375 6.618125 5.76625 7.29875 6 8 C6.99 8.33 7.98 8.66 9 9 C9.12375 10.134375 9.2475 11.26875 9.375 12.4375 C9.58125 13.613125 9.7875 14.78875 10 16 C10.66 16.33 11.32 16.66 12 17 C11.690625 17.5775 11.38125 18.155 11.0625 18.75 C9.70871159 21.61684604 8.88863508 23.8121075 9.1875 27 C10.28420485 29.69958118 11.76389156 31.15849893 14 33 C14.99 33 15.98 33 17 33 C17.66 32.34 18.32 31.68 19 31 C19 32.32 19 33.64 19 35 C16.875 35.8125 16.875 35.8125 14 36 C7.02775762 31.58898952 4.13605284 24.78133536 2 17 C0.77565026 11.32888003 -0.31511536 5.82963413 0 0 Z " fill="#8B7545" transform="translate(58,331)"/>
<path d="M0 0 C4.46031573 -0.44603157 6.52615127 -0.2983492 10.375 2.125 C13.25775961 5.28230814 14 6.7647217 14 11 C13.01 12.485 13.01 12.485 12 14 C11.01 14 10.02 14 9 14 C9.33 15.65 9.66 17.3 10 19 C9.34 19 8.68 19 8 19 C7.67 19.66 7.34 20.32 7 21 C6.87625 20.195625 6.7525 19.39125 6.625 18.5625 C6.41875 17.716875 6.2125 16.87125 6 16 C5.34 15.67 4.68 15.34 4 15 C3.64731066 13.3373217 3.31966139 11.66934283 3 10 C2.2527492 7.9028768 1.44719176 5.83675259 0.62109375 3.76953125 C0 2 0 2 0 0 Z " fill="#4A321D" transform="translate(334,482)"/>
<path d="M0 0 C1.41805831 0.28482368 2.83440379 0.57818144 4.25 0.875 C5.03890625 1.03742188 5.8278125 1.19984375 6.640625 1.3671875 C9 2 9 2 13 4 C13 7.63 13 11.26 13 15 C13.66 15 14.32 15 15 15 C15 19.95 15 24.9 15 30 C14.34 30 13.68 30 13 30 C13 30.66 13 31.32 13 32 C11.20741442 31.91306859 9.41584856 31.80489496 7.625 31.6875 C6.62726563 31.62949219 5.62953125 31.57148438 4.6015625 31.51171875 C3.74304688 31.34285156 2.88453125 31.17398438 2 31 C1.34 30.01 0.68 29.02 0 28 C5.94 28.99 5.94 28.99 12 30 C11.67 28.02 11.34 26.04 11 24 C10.34 23.67 9.68 23.34 9 23 C9.77904328 10.33029613 9.77904328 10.33029613 12 5 C11.484375 5.226875 10.96875 5.45375 10.4375 5.6875 C6.69148416 6.16775844 4.27208382 4.72864806 1 3 C0.67 2.01 0.34 1.02 0 0 Z " fill="#A99A7A" transform="translate(312,106)"/>
<path d="M0 0 C1.875 0.25 1.875 0.25 4 1 C5.1328125 3.046875 5.1328125 3.046875 6 5 C1.13286827 9.97668131 -3.04908398 12.25480013 -10 13 C-14.08378077 13 -17.12315913 12.19287411 -21 11 C-18.15810833 8.15810833 -14.80047297 7.81121013 -11 6.9375 C-5.86871467 5.85424163 -5.86871467 5.85424163 -1 4 C-0.34786708 1.97536745 -0.34786708 1.97536745 0 0 Z " fill="#876A1D" transform="translate(91,215)"/>
<path d="M0 0 C3.5742977 0.32493615 5.55712453 0.63870686 8.375 2.9375 C10 5 10 5 10 7 C9.01 7.66 8.02 8.32 7 9 C6.06996586 10.01124839 5.17360042 11.05444273 4.3125 12.125 C3.1678125 13.548125 3.1678125 13.548125 2 15 C1.01 14.67 0.02 14.34 -1 14 C-1.33 15.98 -1.66 17.96 -2 20 C-4 18 -4 18 -4.375 15.0625 C-4.26223687 9.74008029 -1.97197722 4.86831875 0 0 Z " fill="#856F46" transform="translate(303,102)"/>
<path d="M0 0 C0.33 0.66 0.66 1.32 1 2 C1.66 2 2.32 2 3 2 C4.25664978 4.90600261 5 6.79604584 5 10 C5.66 10 6.32 10 7 10 C7 11.65 7 13.3 7 15 C7.66 15 8.32 15 9 15 C10.72293135 19.46334184 11.22240791 23.10201231 11.125 27.875 C11.10695313 29.02742188 11.08890625 30.17984375 11.0703125 31.3671875 C11.04710937 32.23601562 11.02390625 33.10484375 11 34 C10.34 34 9.68 34 9 34 C9 34.66 9 35.32 9 36 C5.0870844 37.9564578 0.20123457 36.67456442 -4 36 C-7.625 34.625 -7.625 34.625 -10 33 C-10.33 32.01 -10.66 31.02 -11 30 C-10.34 30 -9.68 30 -9 30 C-9 30.66 -9 31.32 -9 32 C-7.27507022 32.53469802 -5.544802 33.05219175 -3.8125 33.5625 C-2.84957031 33.85253906 -1.88664062 34.14257812 -0.89453125 34.44140625 C2.15969143 35.03081764 4.04913212 34.929939 7 34 C9.18348023 31.08869303 9.2601369 28.55520426 9 25 C8.70250054 23.32656552 8.37872934 21.65694085 8 20 C7.01 20 6.02 20 5 20 C3.91841059 16.97154967 3.01899873 14.11636724 2.5 10.9375 C2.00772236 8.04536884 1.09688601 5.70565216 0 3 C0 2.01 0 1.02 0 0 Z " fill="#97845C" transform="translate(344,479)"/>
<path d="M0 0 C2.91227269 3.28804981 4.49701212 5.59885603 5 10 C5.99 10 6.98 10 8 10 C8 10.99 8 11.98 8 13 C8.66 13 9.32 13 10 13 C10.33 14.98 10.66 16.96 11 19 C-1.60680642 18.06978904 -1.60680642 18.06978904 -6.3125 14 C-8 12 -8 12 -8 10 C-8.99 9.67 -9.98 9.34 -11 9 C-11 8.34 -11 7.68 -11 7 C-8.525 7.495 -8.525 7.495 -6 8 C-5.67 7.01 -5.34 6.02 -5 5 C-4 8 -4 8 -4.625 10 C-5.23888942 12.0454767 -5.23888942 12.0454767 -3.9375 13.75 C-1.24828988 15.48497427 0.86895563 15.20873629 4 15 C3.67 14.21625 3.34 13.4325 3 12.625 C2 10 2 10 2 8 C1.34 7.67 0.68 7.34 0 7 C0 4.69 0 2.38 0 0 Z " fill="#7D6437" transform="translate(313,117)"/>
<path d="M0 0 C0.33 0.66 0.66 1.32 1 2 C2.98 2 4.96 2 7 2 C6.34 3.32 5.68 4.64 5 6 C7.18542362 8.68975214 8.33011428 9.89579555 11.8125 10.4375 C16.70110751 9.76651466 20.60912057 7.83452766 24.8125 5.3125 C27 4 27 4 29 4 C28 7 28 7 25.25 8.5625 C23.64125 9.2740625 23.64125 9.2740625 22 10 C21.2575 10.350625 20.515 10.70125 19.75 11.0625 C13.03163548 13.35285154 6.98148619 14.51771439 0 13 C0 8.71 0 4.42 0 0 Z " fill="#A18021" transform="translate(76,519)"/>
<path d="M0 0 C0.18175781 0.84884766 0.18175781 0.84884766 0.3671875 1.71484375 C0.53476562 2.44832031 0.70234375 3.18179687 0.875 3.9375 C1.03742188 4.66839844 1.19984375 5.39929688 1.3671875 6.15234375 C1.82961523 8.20700294 1.82961523 8.20700294 4 9 C4.72640955 11.31543043 5.38431458 13.65269935 6 16 C6.65572791 18.00361307 7.31875294 20.00491933 8 22 C6.68 22.33 5.36 22.66 4 23 C4 22.01 4 21.02 4 20 C1.69 20 -0.62 20 -3 20 C-2.814375 19.38125 -2.62875 18.7625 -2.4375 18.125 C-1.76313824 15.95839822 -1.76313824 15.95839822 -3 14 C-3.66 14 -4.32 14 -5 14 C-5.33 12.68 -5.66 11.36 -6 10 C-4.35 10 -2.7 10 -1 10 C-1 7.36 -1 4.72 -1 2 C-1.99 1.67 -2.98 1.34 -4 1 C-2 0 -2 0 0 0 Z " fill="#846927" transform="translate(331,473)"/>
<path d="M0 0 C2.31 0.33 4.62 0.66 7 1 C9.09230769 5.43076923 9.09230769 5.43076923 8.625 8.3125 C8.41875 8.869375 8.2125 9.42625 8 10 C7.34 9.67 6.68 9.34 6 9 C5.67 10.65 5.34 12.3 5 14 C3.3125 14.75 3.3125 14.75 1 15 C-1.625 13.0625 -1.625 13.0625 -4 11 C-4.66 11 -5.32 11 -6 11 C-6 10.34 -6 9.68 -6 9 C-4.35 8.67 -2.7 8.34 -1 8 C-1 7.01 -1 6.02 -1 5 C-0.68911632 3.32900023 -0.35919668 1.66128463 0 0 Z " fill="#654D24" transform="translate(345,498)"/>
<path d="M0 0 C1.23556641 0.01740234 1.23556641 0.01740234 2.49609375 0.03515625 C3.32238281 0.04417969 4.14867188 0.05320312 5 0.0625 C5.63808594 0.07410156 6.27617188 0.08570313 6.93359375 0.09765625 C7.26359375 1.08765625 7.59359375 2.07765625 7.93359375 3.09765625 C4.96359375 2.60265625 4.96359375 2.60265625 1.93359375 2.09765625 C1.93359375 4.07765625 1.93359375 6.05765625 1.93359375 8.09765625 C0.94359375 8.09765625 -0.04640625 8.09765625 -1.06640625 8.09765625 C-1.06640625 10.40765625 -1.06640625 12.71765625 -1.06640625 15.09765625 C-1.85015625 15.07703125 -2.63390625 15.05640625 -3.44140625 15.03515625 C-6.04755586 14.91081562 -6.04755586 14.91081562 -8.06640625 16.09765625 C-8.81640625 14.47265625 -8.81640625 14.47265625 -9.06640625 12.09765625 C-7.80420532 10.05202026 -6.46352899 8.05362809 -5.06640625 6.09765625 C-4.36818008 4.44396268 -3.6914202 2.78038611 -3.06640625 1.09765625 C-2.06640625 0.09765625 -2.06640625 0.09765625 0 0 Z " fill="#7C600C" transform="translate(100.06640625,504.90234375)"/>
<path d="M0 0 C0.33 0 0.66 0 1 0 C1.25 7.625 1.25 7.625 -1 11 C-1.66 11 -2.32 11 -3 11 C-3 11.66 -3 12.32 -3 13 C-3.66 13 -4.32 13 -5 13 C-5 13.99 -5 14.98 -5 16 C-5.66 16 -6.32 16 -7 16 C-7 18.97 -7 21.94 -7 25 C-7.66 25 -8.32 25 -9 25 C-9.125 18.375 -9.125 18.375 -8 15 C-9.94113934 15.92994117 -11.8777951 16.8692453 -13.8125 17.8125 C-14.89144531 18.33457031 -15.97039062 18.85664063 -17.08203125 19.39453125 C-19.56579702 20.76110117 -21.1799378 21.87340101 -23 24 C-23.66 23.67 -24.32 23.34 -25 23 C-22.63319129 20.23872317 -20.78623255 18.90249204 -17.4375 17.375 C-10.93458652 14.30111811 -3.7624222 8.75948641 -0.6796875 2.18359375 C-0.45539063 1.46300781 -0.23109375 0.74242187 0 0 Z " fill="#E2DCD3" transform="translate(139,457)"/>
<path d="M0 0 C0.66 0 1.32 0 2 0 C2 0.66 2 1.32 2 2 C3.32 2.33 4.64 2.66 6 3 C6 3.66 6 4.32 6 5 C7.32 5.33 8.64 5.66 10 6 C10 6.99 10 7.98 10 9 C10.66 9 11.32 9 12 9 C12 9.99 12 10.98 12 12 C12.66 12 13.32 12 14 12 C14 13.65 14 15.3 14 17 C12.68 16.67 11.36 16.34 10 16 C9.67 17.32 9.34 18.64 9 20 C6.28781219 14.8221869 4.31412391 9.69453692 3 4 C2.01 4 1.02 4 0 4 C-0.33 3.01 -0.66 2.02 -1 1 C-0.67 0.67 -0.34 0.34 0 0 Z " fill="#96815D" transform="translate(63,336)"/>
<path d="M0 0 C3 2 3 2 4 5 C3.34 5 2.68 5 2 5 C2 5.99 2 6.98 2 8 C3.32 8.33 4.64 8.66 6 9 C7.125 13.75 7.125 13.75 6 16 C6.66 16.66 7.32 17.32 8 18 C6.35 18.66 4.7 19.32 3 20 C-1.46223951 13.86442068 -1.71974571 8.48063575 -1 1 C-0.67 0.67 -0.34 0.34 0 0 Z " fill="#795F0E" transform="translate(361,337)"/>
<path d="M0 0 C0.66 0 1.32 0 2 0 C2.33 0.66 2.66 1.32 3 2 C5.02463255 2.65213292 5.02463255 2.65213292 7 3 C6.67 4.65 6.34 6.3 6 8 C5.01 7.67 4.02 7.34 3 7 C2.67 6.01 2.34 5.02 2 4 C0.58026597 6.65017018 -0.35828704 9.06645502 -1 12 C-1.33333333 13.33333333 -1.66666667 14.66666667 -2 16 C-3.98 16 -5.96 16 -8 16 C-8.05399736 14.54207116 -8.09279177 13.08357288 -8.125 11.625 C-8.15980469 10.40683594 -8.15980469 10.40683594 -8.1953125 9.1640625 C-8 7 -8 7 -6 5 C-5.34 5.66 -4.68 6.32 -4 7 C-1.34807995 3.73837042 -1.34807995 3.73837042 0 0 Z " fill="#664E2A" transform="translate(309,109)"/>
<path d="M0 0 C0.66 0.33 1.32 0.66 2 1 C1.175 1.78375 0.35 2.5675 -0.5 3.375 C-3.22988506 5.63721264 -3.22988506 5.63721264 -3 8 C2.06289294 10.91464708 7.52749238 10.80814723 13.1484375 9.5 C18.19476024 7.74475731 22.58469208 4.96638204 27 2 C27.99 1.34 28.98 0.68 30 0 C29.8125 1.875 29.8125 1.875 29 4 C26.4375 5.25 26.4375 5.25 24 6 C24 6.66 24 7.32 24 8 C20.91190305 9.76462683 19.76687864 10 16 10 C16 10.66 16 11.32 16 12 C8.53112105 14.12905975 1.84403285 13.57079975 -5 10 C-4.50769231 3.47692308 -4.50769231 3.47692308 -1.9375 1.0625 C-0.9784375 0.5365625 -0.9784375 0.5365625 0 0 Z " fill="#EBE8DE" transform="translate(67,220)"/>
<path d="M0 0 C2.31 0 4.62 0 7 0 C7.29296875 6.0546875 7.29296875 6.0546875 7 8 C6.01 8.66 5.02 9.32 4 10 C3.67 10.66 3.34 11.32 3 12 C3.99 11.67 4.98 11.34 6 11 C6.93065133 13.60582371 7.14917407 14.64198224 6.0625 17.25 C5.711875 17.8275 5.36125 18.405 5 19 C4.01 18.67 3.02 18.34 2 18 C0.1378492 13.2699378 -0.25833731 8.03757758 0 3 C0.99 3 1.98 3 3 3 C2.01 2.01 1.02 1.02 0 0 Z " fill="#927420" transform="translate(323,475)"/>
<path d="M0 0 C0.99 0 1.98 0 3 0 C3 4.29 3 8.58 3 13 C2.34 13 1.68 13 1 13 C1 14.65 1 16.3 1 18 C-1 17 -1 17 -2 15 C-2.66 14.67 -3.32 14.34 -4 14 C-3.67 10.7 -3.34 7.4 -3 4 C-2.01 3.67 -1.02 3.34 0 3 C0 2.01 0 1.02 0 0 Z " fill="#95730E" transform="translate(127,478)"/>
<path d="M0 0 C1.11375 0.4640625 1.11375 0.4640625 2.25 0.9375 C4.50692176 1.8094925 6.6450153 2.47667007 9 3 C9.33 2.34 9.66 1.68 10 1 C12.4375 1.75 12.4375 1.75 15 3 C15.8125 5.125 15.8125 5.125 16 7 C15.34 7 14.68 7 14 7 C14 7.66 14 8.32 14 9 C17.465 8.505 17.465 8.505 21 8 C21 8.66 21 9.32 21 10 C14.32762586 10.55603118 9.61948072 9.72940707 4 6 C1.5 3.875 1.5 3.875 0 2 C0 1.34 0 0.68 0 0 Z " fill="#B8AC87" transform="translate(212,336)"/>
<path d="M0 0 C0.99 0.33 1.98 0.66 3 1 C3 1.99 3 2.98 3 4 C3.66 4.33 4.32 4.66 5 5 C4.01 5 3.02 5 2 5 C4.62692872 20.71203805 4.62692872 20.71203805 14 33 C14.99 33 15.98 33 17 33 C17.66 32.34 18.32 31.68 19 31 C19 32.32 19 33.64 19 35 C16.875 35.8125 16.875 35.8125 14 36 C7.02775762 31.58898952 4.13605284 24.78133536 2 17 C0.77565026 11.32888003 -0.31511536 5.82963413 0 0 Z " fill="#E5E1D7" transform="translate(58,331)"/>
<path d="M0 0 C0.66 1.32 1.32 2.64 2 4 C1.34 4 0.68 4 0 4 C0.33 5.65 0.66 7.3 1 9 C0.360625 9.12375 -0.27875 9.2475 -0.9375 9.375 C-1.618125 9.58125 -2.29875 9.7875 -3 10 C-3.33 10.66 -3.66 11.32 -4 12 C-7.26954202 11.43628586 -8.82575883 10.50037734 -11 8 C-8.94766315 5.7522025 -7.99332739 4.9977758 -5 4 C-5.33 3.01 -5.66 2.02 -6 1 C-4.02 0.67 -2.04 0.34 0 0 Z " fill="#8A6B14" transform="translate(112,486)"/>
<path d="M0 0 C1.32 0 2.64 0 4 0 C4 0.66 4 1.32 4 2 C4.66 2 5.32 2 6 2 C6 2.66 6 3.32 6 4 C7.32 4.33 8.64 4.66 10 5 C9.67 5.66 9.34 6.32 9 7 C8.34 6.67 7.68 6.34 7 6 C7.33 6.99 7.66 7.98 8 9 C8.13033132 11.20694371 8.2297127 13.41576188 8.3125 15.625 C8.6435895 22.46751637 9.94215759 28.84402196 11.71606445 35.45166016 C13.09644464 40.71066607 13.09644464 40.71066607 12 44 C9.99277993 41.99277993 10.01543187 38.37056779 9.5 35.625 C8.48947044 30.25470977 8.48947044 30.25470977 7 25 C6.80424296 21.25451521 6.6823988 17.51071704 6.57421875 13.76171875 C5.92719274 9.52303816 4.67136945 7.31289907 2 4 C1.34 3.67 0.68 3.34 0 3 C0 2.01 0 1.02 0 0 Z " fill="#E7E3D6" transform="translate(313,452)"/>
<path d="M0 0 C5.19525146 1.3606611 8.17555757 3.35767388 12 7 C12 7.66 12 8.32 12 9 C12.66 9 13.32 9 14 9 C14 9.99 14 10.98 14 12 C14.66 12 15.32 12 16 12 C15.67 13.32 15.34 14.64 15 16 C12 12.25 12 12.25 12 10 C11.443125 10.2475 10.88625 10.495 10.3125 10.75 C8 11 8 11 5.25 9.25 C4.5075 8.5075 3.765 7.765 3 7 C3 6.01 3 5.02 3 4 C2.01 3.67 1.02 3.34 0 3 C0 2.01 0 1.02 0 0 Z " fill="#987F3F" transform="translate(327,463)"/>
<path d="M0 0 C0 3 0 3 -0.984375 5.19140625 C-2.28735437 8.79464536 -2.29210093 12.15894158 -2.25 15.9375 C-2.25773437 16.62779297 -2.26546875 17.31808594 -2.2734375 18.02929688 C-2.2569521 22.37732217 -1.87552194 26.05432649 0 30 C1.89471006 31.33852137 1.89471006 31.33852137 4.125 31.875 C5.21167969 32.21144531 5.21167969 32.21144531 6.3203125 32.5546875 C6.87460937 32.70164062 7.42890625 32.84859375 8 33 C8.66 31.35 9.32 29.7 10 28 C10.33 29.32 10.66 30.64 11 32 C10.34 32 9.68 32 9 32 C9 32.66 9 33.32 9 34 C7.02 34.66 5.04 35.32 3 36 C-1.90719929 31.48021118 -4.02335953 28.23493079 -4.30078125 21.56640625 C-4.31530778 19.89849618 -4.31892017 18.23046097 -4.3125 16.5625 C-4.32861328 15.72912109 -4.34472656 14.89574219 -4.36132812 14.03710938 C-4.36536882 8.92563206 -3.78608826 5.45068783 -1 1 C-0.67 0.67 -0.34 0.34 0 0 Z " fill="#DAD4CC" transform="translate(363,330)"/>
<path d="M0 0 C0.33 0.99 0.66 1.98 1 3 C0.67 3.61875 0.34 4.2375 0 4.875 C-1.2911399 7.61867229 -0.79461686 9.13937931 0 12 C-1.32 11.67 -2.64 11.34 -4 11 C-4 10.34 -4 9.68 -4 9 C-4.66 9 -5.32 9 -6 9 C-6.061875 9.763125 -6.12375 10.52625 -6.1875 11.3125 C-7 14 -7 14 -9.5625 15.8125 C-10.366875 16.204375 -11.17125 16.59625 -12 17 C-12.66 16.34 -13.32 15.68 -14 15 C-9.78731588 10.20193049 -5.58516999 5.44622545 -1 1 C-0.67 0.67 -0.34 0.34 0 0 Z " fill="#A58521" transform="translate(99,492)"/>
<path d="M0 0 C0 0.99 0 1.98 0 3 C-1.36917664 4.20997006 -2.74425118 5.4181133 -4.19921875 6.5234375 C-6.63854583 8.52357988 -8.79299223 10.74687565 -11 13 C-11.85980469 13.87398438 -12.71960938 14.74796875 -13.60546875 15.6484375 C-14.45753906 16.54820312 -15.30960938 17.44796875 -16.1875 18.375 C-17.04730469 19.26960938 -17.90710938 20.16421875 -18.79296875 21.0859375 C-21.36163648 24.47748816 -22.08787686 26.89289804 -23 31 C-22.34 31.33 -21.68 31.66 -21 32 C-23.97 32.495 -23.97 32.495 -27 33 C-24.54101369 26.56880503 -21.86160641 21.49803846 -17.125 16.4375 C-16.28195313 15.52871094 -15.43890625 14.61992187 -14.5703125 13.68359375 C-10.90560794 9.85737485 -7.24035298 6.10461134 -3.1875 2.6875 C-2.58292969 2.17574219 -1.97835937 1.66398437 -1.35546875 1.13671875 C-0.68451172 0.57404297 -0.68451172 0.57404297 0 0 Z " fill="#EFEADA" transform="translate(104,486)"/>
<path d="M0 0 C1.98 0.66 3.96 1.32 6 2 C6.33 1.34 6.66 0.68 7 0 C8.8125 0.1875 8.8125 0.1875 11 1 C12.75 3.5625 12.75 3.5625 14 6 C9.95467703 7.59931373 7.1656247 8.57618232 3 7 C0.55352838 4.46916729 0 3.5747073 0 0 Z " fill="#AA9A63" transform="translate(211,331)"/>
<path d="M0 0 C4.84455959 1.49740933 4.84455959 1.49740933 7 3 C7.9375 6.6875 7.9375 6.6875 8 10 C7.01 10 6.02 10 5 10 C5 10.66 5 11.32 5 12 C3.68 12 2.36 12 1 12 C-0.26237731 9.47524538 -0.09856404 7.68799534 -0.0625 4.875 C-0.05347656 3.96492188 -0.04445312 3.05484375 -0.03515625 2.1171875 C-0.02355469 1.41851562 -0.01195312 0.71984375 0 0 Z " fill="#AF9D61" transform="translate(207,314)"/>
<path d="M0 0 C0.78375 0.33 1.5675 0.66 2.375 1 C4.84332497 2.11866511 4.84332497 2.11866511 7 2 C7.33 1.34 7.66 0.68 8 0 C9.32 1.32 10.64 2.64 12 4 C11.34 4.66 10.68 5.32 10 6 C10.66 6.66 11.32 7.32 12 8 C9.1875 9.125 9.1875 9.125 6 10 C2.79782751 7.86521834 1.72714741 6.37204971 0 3 C0 2.01 0 1.02 0 0 Z " fill="#9B8746" transform="translate(216,323)"/>
<path d="M0 0 C0.33 0 0.66 0 1 0 C1 2.64 1 5.28 1 8 C-0.32 7.34 -1.64 6.68 -3 6 C-2 4 -1 2 0 0 Z M-5 7 C-3.68 7.33 -2.36 7.66 -1 8 C-1 10.31 -1 12.62 -1 15 C-1.99 15.33 -2.98 15.66 -4 16 C-4 16.66 -4 17.32 -4 18 C-4.99 18 -5.98 18 -7 18 C-6.34 14.37 -5.68 10.74 -5 7 Z " fill="#5B4221" transform="translate(378,334)"/>
<path d="M0 0 C3.465 1.485 3.465 1.485 7 3 C3.1811165 6.35598853 -0.24609694 8.3273304 -5 10 C-5.99 9.67 -6.98 9.34 -8 9 C-2.71428571 2.57142857 -2.71428571 2.57142857 0 0 Z " fill="#907115" transform="translate(96,520)"/>
<path d="M0 0 C0.99 0 1.98 0 3 0 C3 0.99 3 1.98 3 3 C5.4390706 5.20142332 5.4390706 5.20142332 8 7 C6.25 8.5625 6.25 8.5625 4 10 C1.75 9.6875 1.75 9.6875 0 9 C0.33 9.99 0.66 10.98 1 12 C0.34 12 -0.32 12 -1 12 C-2.1875 9.9375 -2.1875 9.9375 -3 7 C-2.27873258 4.45187276 -1.21291073 2.37917104 0 0 Z " fill="#9C7A14" transform="translate(100,492)"/>
<path d="M0 0 C0.66 0.33 1.32 0.66 2 1 C2 5.29 2 9.58 2 14 C1.34 14 0.68 14 0 14 C0 14.66 0 15.32 0 16 C-3.9129156 17.9564578 -8.79876543 16.67456442 -13 16 C-16.625 14.625 -16.625 14.625 -19 13 C-19.33 12.01 -19.66 11.02 -20 10 C-19.34 10 -18.68 10 -18 10 C-18 10.66 -18 11.32 -18 12 C-16.27507022 12.53469802 -14.544802 13.05219175 -12.8125 13.5625 C-11.84957031 13.85253906 -10.88664062 14.14257812 -9.89453125 14.44140625 C-6.79041668 15.0404459 -4.96207679 15.09990762 -2 14 C0.22365859 11.04399876 0.22004703 8.36178707 0.125 4.75 C0.09792969 3.41195313 0.09792969 3.41195313 0.0703125 2.046875 C0.04710937 1.37140625 0.02390625 0.6959375 0 0 Z " fill="#EEEBE4" transform="translate(353,499)"/>
<path d="M0 0 C3.3125 -0.25 3.3125 -0.25 7 0 C8.9375 1.875 8.9375 1.875 10 4 C10 4.66 10 5.32 10 6 C10.66 6 11.32 6 12 6 C12.33 7.98 12.66 9.96 13 12 C10.36 11.01 7.72 10.02 5 9 C5.66 8.67 6.32 8.34 7 8 C4.20579508 4.08396696 4.20579508 4.08396696 0 2 C0 1.34 0 0.68 0 0 Z " fill="#775E26" transform="translate(332,473)"/>
<path d="M0 0 C0 0.99 0 1.98 0 3 C-0.969375 3.28875 -1.93875 3.5775 -2.9375 3.875 C-6.10664203 4.64214682 -6.10664203 4.64214682 -7 7 C-7.99 6.67 -8.98 6.34 -10 6 C-12.03464284 6.7143005 -12.03464284 6.7143005 -14.0625 7.875 C-14.75472656 8.24367188 -15.44695312 8.61234375 -16.16015625 8.9921875 C-16.76730469 9.32476562 -17.37445313 9.65734375 -18 10 C-18.99 10.495 -18.99 10.495 -20 11 C-18.74377016 6.93788452 -16.18065228 5.65719724 -12.63867188 3.75585938 C-11.95353516 3.40330078 -11.26839844 3.05074219 -10.5625 2.6875 C-9.5405957 2.1296582 -9.5405957 2.1296582 -8.49804688 1.56054688 C-3.38540974 -1.12846991 -3.38540974 -1.12846991 0 0 Z " fill="#F2EFE7" transform="translate(384,318)"/>
<path d="M0 0 C0.99 0 1.98 0 3 0 C3 0.99 3 1.98 3 3 C3.66 3 4.32 3 5 3 C5.99 4.485 5.99 4.485 7 6 C6.67 6.99 6.34 7.98 6 9 C5.67 8.34 5.34 7.68 5 7 C4.92483154 7.59014893 4.84966309 8.18029785 4.7722168 8.78833008 C4.42377896 11.46495426 4.05587825 14.13855041 3.6875 16.8125 C3.56955078 17.74126953 3.45160156 18.67003906 3.33007812 19.62695312 C3.20439453 20.51962891 3.07871094 21.41230469 2.94921875 22.33203125 C2.83924561 23.15421143 2.72927246 23.9763916 2.6159668 24.82348633 C1.90918709 27.32088668 0.96526236 28.35179065 -1 30 C0.20833922 21.31024133 1.51143689 12.64633468 3 4 C2.34 4 1.68 4 1 4 C0.67 2.68 0.34 1.36 0 0 Z " fill="#F0EAD5" transform="translate(208,83)"/>
<path d="M0 0 C-1 3 -1 3 -3.75 4.5625 C-5.35875 5.2740625 -5.35875 5.2740625 -7 6 C-7.7425 6.350625 -8.485 6.70125 -9.25 7.0625 C-15.96836452 9.35285154 -22.01851381 10.51771439 -29 9 C-28.67 8.34 -28.34 7.68 -28 7 C-26.9275 7.061875 -25.855 7.12375 -24.75 7.1875 C-15.80425742 7.17158231 -7.40101652 0 0 0 Z " fill="#F5F5F2" transform="translate(105,523)"/>
<path d="M0 0 C0.33 0 0.66 0 1 0 C1.25 7.625 1.25 7.625 -1 11 C-0.01 11 0.98 11 2 11 C2 10.34 2 9.68 2 9 C2.66 9 3.32 9 4 9 C4 10.98 4 12.96 4 15 C3.34 15 2.68 15 2 15 C1.67 14.34 1.34 13.68 1 13 C-0.88764903 12.31527335 -0.88764903 12.31527335 -3.0625 11.875 C-4.16271484 11.62363281 -4.16271484 11.62363281 -5.28515625 11.3671875 C-5.85105469 11.24601562 -6.41695313 11.12484375 -7 11 C-6.01 10.67 -5.02 10.34 -4 10 C-4 8.68 -4 7.36 -4 6 C-3.67 5.34 -3.34 4.68 -3 4 C-2.34 4 -1.68 4 -1 4 C-0.67 2.68 -0.34 1.36 0 0 Z " fill="#826B2A" transform="translate(372,341)"/>
<path d="M0 0 C0.33 0.66 0.66 1.32 1 2 C1.66 2.33 2.32 2.66 3 3 C3.72640955 5.31543043 4.38431458 7.65269935 5 10 C5.65572791 12.00361307 6.31875294 14.00491933 7 16 C5.68 16.33 4.36 16.66 3 17 C3 14.69 3 12.38 3 10 C2.0409375 9.8453125 2.0409375 9.8453125 1.0625 9.6875 C0.381875 9.460625 -0.29875 9.23375 -1 9 C-2.25541557 5.23375329 -1.37061958 3.62811066 0 0 Z " fill="#745B2E" transform="translate(332,479)"/>
<path d="M0 0 C-0.33 1.98 -0.66 3.96 -1 6 C-1.99 6 -2.98 6 -4 6 C-4 6.99 -4 7.98 -4 9 C-6.5 10.6875 -6.5 10.6875 -9 12 C-9.33 10.35 -9.66 8.7 -10 7 C-9.01 6.67 -8.02 6.34 -7 6 C-7 5.01 -7 4.02 -7 3 C-4.46815512 0.64276511 -3.52809907 0 0 0 Z " fill="#836611" transform="translate(131,472)"/>
<path d="M0 0 C0.99 0.33 1.98 0.66 3 1 C4.23076923 6.41538462 4.23076923 6.41538462 3.0625 9.375 C2.711875 9.91125 2.36125 10.4475 2 11 C0.02 9.68 -1.96 8.36 -4 7 C-3.43628586 3.73045798 -2.50037734 2.17424117 0 0 Z " fill="#8D6C0F" transform="translate(84,519)"/>
<path d="M0 0 C0.66 0 1.32 0 2 0 C2 0.99 2 1.98 2 3 C2.66 3 3.32 3 4 3 C4 7.29 4 11.58 4 16 C3.34 16 2.68 16 2 16 C2 17.98 2 19.96 2 22 C1.67 22 1.34 22 1 22 C0.67 19.36 0.34 16.72 0 14 C0.66 14 1.32 14 2 14 C2.33 11.36 2.66 8.72 3 6 C2.01 6.66 1.02 7.32 0 8 C-0.99 8 -1.98 8 -3 8 C-2.67 6.68 -2.34 5.36 -2 4 C-1.34 4 -0.68 4 0 4 C0 2.68 0 1.36 0 0 Z " fill="#A18E54" transform="translate(376,327)"/>
<path d="M0 0 C-0.33 1.65 -0.66 3.3 -1 5 C-6.5415502 6.96263236 -10.20858017 7.01603857 -16 6 C-16 5.01 -16 4.02 -16 3 C-15.01 2.67 -14.02 2.34 -13 2 C-12.34 2.66 -11.68 3.32 -11 4 C-10.01 3.67 -9.02 3.34 -8 3 C-8 3.66 -8 4.32 -8 5 C-6.576875 3.7625 -6.576875 3.7625 -5.125 2.5 C-2.25 0 -2.25 0 0 0 Z " fill="#AA8C2D" transform="translate(91,215)"/>
<path d="M0 0 C1.65 0 3.3 0 5 0 C5 4.29 5 8.58 5 13 C4.67 12.34 4.34 11.68 4 11 C3.01 10.67 2.02 10.34 1 10 C1.33 8.35 1.66 6.7 2 5 C1.34 5 0.68 5 0 5 C-0.5625 3.0625 -0.5625 3.0625 -1 1 C-0.67 0.67 -0.34 0.34 0 0 Z " fill="#6E562D" transform="translate(317,116)"/>
<path d="M0 0 C0.99 0.495 0.99 0.495 2 1 C2 1.99 2 2.98 2 4 C4.0745356 5.2236068 4.0745356 5.2236068 7 5 C7.66 5 8.32 5 9 5 C9 5.66 9 6.32 9 7 C8.34 7 7.68 7 7 7 C7 7.66 7 8.32 7 9 C7.66 9 8.32 9 9 9 C8.34 10.32 7.68 11.64 7 13 C3.63044676 11.40389584 2.23452505 10.5248894 0.6875 7.0625 C0 4 0 4 0 0 Z " fill="#563F28" transform="translate(360,350)"/>
<path d="M0 0 C0 2.31 0 4.62 0 7 C-1.32 7 -2.64 7 -4 7 C-4.33 7.66 -4.66 8.32 -5 9 C-6.66666667 9 -8.33333333 9 -10 9 C-4.6 0 -4.6 0 0 0 Z " fill="#A38017" transform="translate(372,324)"/>
<path d="M0 0 C0.66 0.33 1.32 0.66 2 1 C0.9296491 2.17858863 -0.15683965 3.3425361 -1.25 4.5 C-2.15492187 5.47453125 -2.15492187 5.47453125 -3.078125 6.46875 C-5 8 -5 8 -9 8 C-9 8.66 -9 9.32 -9 10 C-11.31 10 -13.62 10 -16 10 C-16 9.34 -16 8.68 -16 8 C-12.7 7.34 -9.4 6.68 -6 6 C-5.67 5.01 -5.34 4.02 -5 3 C-4.01 3 -3.02 3 -2 3 C-2 2.34 -2 1.68 -2 1 C-1.34 0.67 -0.68 0.34 0 0 Z " fill="#A27E10" transform="translate(93,511)"/>
<path d="M0 0 C0.625 1.8125 0.625 1.8125 1 4 C0.01 5.485 0.01 5.485 -1 7 C-1.99 7 -2.98 7 -4 7 C-3.67 8.65 -3.34 10.3 -3 12 C-3.66 12 -4.32 12 -5 12 C-5.33 12.66 -5.66 13.32 -6 14 C-6.12375 13.195625 -6.2475 12.39125 -6.375 11.5625 C-6.684375 10.2940625 -6.684375 10.2940625 -7 9 C-7.66 8.67 -8.32 8.34 -9 8 C-9.33 7.34 -9.66 6.68 -10 6 C-5.545 5.505 -5.545 5.505 -1 5 C-0.67 3.35 -0.34 1.7 0 0 Z " fill="#604724" transform="translate(347,489)"/>
<path d="M0 0 C2.125 0.375 2.125 0.375 4 1 C3.525625 1.7425 3.05125 2.485 2.5625 3.25 C1.22130673 5.61050015 0.487688 7.36648477 0 10 C-0.99 9.67 -1.98 9.34 -3 9 C-2.25 2.25 -2.25 2.25 0 0 Z M-3 10 C-1 11 -1 11 -1 11 Z " fill="#B0880E" transform="translate(84,508)"/>
<path d="M0 0 C2.64 0 5.28 0 8 0 C8.33 0.99 8.66 1.98 9 3 C6.03 2.505 6.03 2.505 3 2 C3 3.98 3 5.96 3 8 C1.35 7.67 -0.3 7.34 -2 7 C-1.34 4.69 -0.68 2.38 0 0 Z " fill="#6A5011" transform="translate(99,505)"/>
<path d="M0 0 C0 2 0 2 -1.5 3.625 C-1.995 4.07875 -2.49 4.5325 -3 5 C-2.34 5.33 -1.68 5.66 -1 6 C-3.31 8.64 -5.62 11.28 -8 14 C-8.33 13.01 -8.66 12.02 -9 11 C-7.6875 8.8125 -7.6875 8.8125 -6 7 C-5.34 7 -4.68 7 -4 7 C-4 6.34 -4 5.68 -4 5 C-4.99 4.67 -5.98 4.34 -7 4 C-4.83989616 0.75984424 -3.8842653 0 0 0 Z " fill="#9B7913" transform="translate(124,476)"/>
<path d="M0 0 C0.66 0 1.32 0 2 0 C2 0.66 2 1.32 2 2 C5.465 1.505 5.465 1.505 9 1 C8.67 2.65 8.34 4.3 8 6 C6.68 6.33 5.36 6.66 4 7 C2.35 5.02 0.7 3.04 -1 1 C-0.67 0.67 -0.34 0.34 0 0 Z " fill="#846C41" transform="translate(68,358)"/>
<path d="M0 0 C2.31 0 4.62 0 7 0 C7 1.98 7 3.96 7 6 C4.69 6.33 2.38 6.66 0 7 C0.33 6.01 0.66 5.02 1 4 C0.61067144 1.85744207 0.61067144 1.85744207 0 0 Z " fill="#927E53" transform="translate(226,338)"/>
<path d="M0 0 C3 1 3 1 3 1 Z M-2 1 C-0.02 1.99 -0.02 1.99 2 3 C1.67 3.66 1.34 4.32 1 5 C1.99 4.67 2.98 4.34 4 4 C4.93065133 6.60582371 5.14917407 7.64198224 4.0625 10.25 C3.711875 10.8275 3.36125 11.405 3 12 C2.01 11.67 1.02 11.34 0 11 C-0.66 7.7 -1.32 4.4 -2 1 Z " fill="#977A26" transform="translate(325,482)"/>
<path d="M0 0 C0.66 0.33 1.32 0.66 2 1 C1.175 1.78375 0.35 2.5675 -0.5 3.375 C-3.22988506 5.63721264 -3.22988506 5.63721264 -3 8 C1.39251833 10.02055843 5.15340923 11.40895235 10 12 C10 12.33 10 12.66 10 13 C4.01006953 13.3152595 0.36439644 12.68219822 -5 10 C-4.50769231 3.47692308 -4.50769231 3.47692308 -1.9375 1.0625 C-0.9784375 0.5365625 -0.9784375 0.5365625 0 0 Z " fill="#F5F3EC" transform="translate(67,220)"/>
<path d="M0 0 C1.9375 0.8125 1.9375 0.8125 4 2 C4.33 2.99 4.66 3.98 5 5 C6.423125 4.938125 6.423125 4.938125 7.875 4.875 C11 5 11 5 13 7 C2.44191344 7.55353075 2.44191344 7.55353075 -2 4 C-1.34 2.68 -0.68 1.36 0 0 Z " fill="#9F863A" transform="translate(65,224)"/>
<path d="M0 0 C0.99 0.495 0.99 0.495 2 1 C2 3.64 2 6.28 2 9 C3.32 9.66 4.64 10.32 6 11 C5.67 11.33 5.34 11.66 5 12 C5 12.66 5 13.32 5 14 C3.68 14.33 2.36 14.66 1 15 C-0.09506492 11.71480525 -0.09960608 9.26336585 -0.0625 5.8125 C-0.05347656 4.72582031 -0.04445313 3.63914062 -0.03515625 2.51953125 C-0.02355469 1.68808594 -0.01195312 0.85664063 0 0 Z " fill="#9F822B" transform="translate(321,464)"/>
<path d="M0 0 C0.721875 0.309375 1.44375 0.61875 2.1875 0.9375 C4.80307309 1.92560539 7.25118982 2.5287754 10 3 C10.33 4.65 10.66 6.3 11 8 C6.97454466 7.71915428 5.25517374 7.21634296 2.125 4.5625 C0 2 0 2 0 0 Z " fill="#CAC1A5" transform="translate(212,336)"/>
<path d="M0 0 C1.875 0.25 1.875 0.25 4 1 C5.25 3.0625 5.25 3.0625 6 5 C3.03 7.475 3.03 7.475 0 10 C0 9.01 0 8.02 0 7 C0.66 7 1.32 7 2 7 C2 6.34 2 5.68 2 5 C1.01 4.67 0.02 4.34 -1 4 C-0.67 2.68 -0.34 1.36 0 0 Z " fill="#8C743D" transform="translate(91,215)"/>
<path d="M0 0 C0.99 0.33 1.98 0.66 3 1 C0.70028818 6.68876081 0.70028818 6.68876081 -2.25 8 C-5.76449875 8 -8.68080815 7.10639728 -12 6 C-11.67 5.34 -11.34 4.68 -11 4 C-8.03 4.33 -5.06 4.66 -2 5 C-1.34 3.35 -0.68 1.7 0 0 Z " fill="#806939" transform="translate(351,507)"/>
<path d="M0 0 C1.98 0.99 1.98 0.99 4 2 C4 1.34 4 0.68 4 0 C4.99 0 5.98 0 7 0 C7 0.99 7 1.98 7 3 C6.34 3.66 5.68 4.32 5 5 C5 6.32 5 7.64 5 9 C4.34 9 3.68 9 3 9 C3 8.34 3 7.68 3 7 C2.34 7 1.68 7 1 7 C0.67 4.69 0.34 2.38 0 0 Z " fill="#8D6F21" transform="translate(332,502)"/>
<path d="M0 0 C-2.33214148 1.20628008 -4.49642139 2.1654738 -7 3 C-7 3.763125 -7 4.52625 -7 5.3125 C-7 7.20833333 -7 9.10416667 -7 11 C-7.99 10.67 -8.98 10.34 -10 10 C-10.33 10.66 -10.66 11.32 -11 12 C-11.99 11.34 -12.98 10.68 -14 10 C-13.38125 9.608125 -12.7625 9.21625 -12.125 8.8125 C-9.65343507 6.7044005 -9.14828074 4.98552992 -8 2 C-4.77208445 -0.1519437 -3.71599191 -0.20086443 0 0 Z " fill="#B7A575" transform="translate(114,481)"/>
<path d="M0 0 C1.2065625 0.0309375 1.2065625 0.0309375 2.4375 0.0625 C2.4375 0.7225 2.4375 1.3825 2.4375 2.0625 C1.4475 2.0625 0.4575 2.0625 -0.5625 2.0625 C0.7575 2.3925 2.0775 2.7225 3.4375 3.0625 C3.7675 4.3825 4.0975 5.7025 4.4375 7.0625 C2.1275 7.0625 -0.1825 7.0625 -2.5625 7.0625 C-2.94383299 5.0710944 -3.27575582 3.06970923 -3.5625 1.0625 C-2.5625 0.0625 -2.5625 0.0625 0 0 Z " fill="#795F23" transform="translate(339.5625,504.9375)"/>
<path d="M0 0 C0.99 0.33 1.98 0.66 3 1 C3 4.3 3 7.6 3 11 C2.34 11 1.68 11 1 11 C1 11.99 1 12.98 1 14 C0.34 13.67 -0.32 13.34 -1 13 C-0.814375 12.13375 -0.62875 11.2675 -0.4375 10.375 C0.00668551 6.94842608 -0.37324114 4.36882887 -1 1 C-0.67 0.67 -0.34 0.34 0 0 Z " fill="#C8B068" transform="translate(224,132)"/>
<path d="M0 0 C1.41805831 0.28482368 2.83440379 0.57818144 4.25 0.875 C5.03890625 1.03742188 5.8278125 1.19984375 6.640625 1.3671875 C8.96831144 1.99150075 10.89031952 2.84838542 13 4 C12.67 4.66 12.34 5.32 12 6 C8.07765636 5.45269624 4.54220546 4.82170566 1 3 C0.67 2.01 0.34 1.02 0 0 Z " fill="#BFB393" transform="translate(312,106)"/>
<path d="M0 0 C2.31 0.33 4.62 0.66 7 1 C7 1.66 7 2.32 7 3 C6.01 3 5.02 3 4 3 C4 3.66 4 4.32 4 5 C4.66 5 5.32 5 6 5 C6 5.99 6 6.98 6 8 C5.34 8 4.68 8 4 8 C4 7.34 4 6.68 4 6 C2.35 5.67 0.7 5.34 -1 5 C-0.67 3.35 -0.34 1.7 0 0 Z " fill="#5C4421" transform="translate(345,498)"/>
<path d="M0 0 C1.65 0 3.3 0 5 0 C5 0.66 5 1.32 5 2 C4.34 2 3.68 2 3 2 C2.67 3.32 2.34 4.64 2 6 C0.35 6 -1.3 6 -3 6 C-3 5.01 -3 4.02 -3 3 C-2.34 3 -1.68 3 -1 3 C-0.67 2.01 -0.34 1.02 0 0 Z " fill="#7E6320" transform="translate(88,220)"/>
<path d="M0 0 C1 3 1 3 0.3125 4.875 C-0.28775076 7.26205953 -0.28775076 7.26205953 1.9375 9.75 C2.618125 10.4925 3.29875 11.235 4 12 C1.13302508 10.71480435 -0.97607712 9.42870746 -3 7 C-3 6.34 -3 5.68 -3 5 C-3.99 4.67 -4.98 4.34 -6 4 C-6 3.34 -6 2.68 -6 2 C-3.525 2.495 -3.525 2.495 -1 3 C-0.67 2.01 -0.34 1.02 0 0 Z " fill="#BFB49B" transform="translate(308,122)"/>
<path d="M0 0 C0.33 0 0.66 0 1 0 C1.25 7.625 1.25 7.625 -1 11 C-2.65 10.67 -4.3 10.34 -6 10 C-5.38125 9.278125 -4.7625 8.55625 -4.125 7.8125 C-2.16333647 5.21618062 -1.04684 3.05328334 0 0 Z " fill="#F8F7F5" transform="translate(139,457)"/>
<path d="M0 0 C0.66 0.33 1.32 0.66 2 1 C1.8125 3.3125 1.8125 3.3125 1 6 C-1.5625 7.8125 -1.5625 7.8125 -4 9 C-4.66 8.34 -5.32 7.68 -6 7 C-4.02 4.69 -2.04 2.38 0 0 Z " fill="#AF8C21" transform="translate(91,500)"/>
<path d="M0 0 C0.33 1.32 0.66 2.64 1 4 C0.34 4 -0.32 4 -1 4 C-1 5.32 -1 6.64 -1 8 C-1.639375 8.103125 -2.27875 8.20625 -2.9375 8.3125 C-3.9584375 8.6528125 -3.9584375 8.6528125 -5 9 C-5.33 9.99 -5.66 10.98 -6 12 C-7.125 8.25 -7.125 8.25 -6 6 C-4.68 6 -3.36 6 -2 6 C-2.33 5.01 -2.66 4.02 -3 3 C-2.01 2.01 -1.02 1.02 0 0 Z " fill="#C3B178" transform="translate(125,496)"/>
<path d="M0 0 C0 1.65 0 3.3 0 5 C-0.66 5 -1.32 5 -2 5 C-2 7.97 -2 10.94 -2 14 C-2.66 14 -3.32 14 -4 14 C-4.125 7.375 -4.125 7.375 -3 4 C-3.66 3.67 -4.32 3.34 -5 3 C-1.125 0 -1.125 0 0 0 Z " fill="#C7BFAE" transform="translate(134,468)"/>
<path d="M0 0 C0.66 0.33 1.32 0.66 2 1 C1.2575 1.8971875 1.2575 1.8971875 0.5 2.8125 C-1.28276418 4.97029994 -1.28276418 4.97029994 -1 8 C-2.65 8.33 -4.3 8.66 -6 9 C-5.125 4.25 -5.125 4.25 -4 2 C-2.0625 0.8125 -2.0625 0.8125 0 0 Z " fill="#7A600A" transform="translate(377,333)"/>
<path d="M0 0 C2 2 2 2 2.125 5.125 C2.08375 6.07375 2.0425 7.0225 2 8 C1.01 8.33 0.02 8.66 -1 9 C-2 8 -2 8 -2.0625 4.4375 C-2.041875 3.303125 -2.02125 2.16875 -2 1 C-1.34 0.67 -0.68 0.34 0 0 Z " fill="#70572E" transform="translate(75,351)"/>
<path d="M0 0 C0.70125 0.144375 1.4025 0.28875 2.125 0.4375 C5.07556141 1.01478375 8.03270151 1.51695141 11 2 C10.67 3.32 10.34 4.64 10 6 C7.83125748 5.49396008 6.00032373 5.00016187 4 4 C4 3.34 4 2.68 4 2 C2.68 2 1.36 2 0 2 C0 1.34 0 0.68 0 0 Z " fill="#856D41" transform="translate(313,109)"/>
<path d="M0 0 C2.97 0.495 2.97 0.495 6 1 C6 2.32 6 3.64 6 5 C3.69 5 1.38 5 -1 5 C-0.67 3.35 -0.34 1.7 0 0 Z " fill="#8D6E21" transform="translate(329,488)"/>
<path d="M0 0 C1.32 0 2.64 0 4 0 C4 0.66 4 1.32 4 2 C4.66 2 5.32 2 6 2 C6 2.66 6 3.32 6 4 C6.66 4.33 7.32 4.66 8 5 C7.34 5 6.68 5 6 5 C5.67 5.99 5.34 6.98 5 8 C2.5 5.6875 2.5 5.6875 0 3 C0 2.01 0 1.02 0 0 Z " fill="#FBFBFA" transform="translate(313,452)"/>
<path d="M0 0 C0.33 0 0.66 0 1 0 C1 2.64 1 5.28 1 8 C-0.32 7.34 -1.64 6.68 -3 6 C-2 4 -1 2 0 0 Z M-5 7 C-4.01 7 -3.02 7 -2 7 C-2.33 7.99 -2.66 8.98 -3 10 C-3.66 10 -4.32 10 -5 10 C-5 9.01 -5 8.02 -5 7 Z " fill="#6C541C" transform="translate(378,334)"/>
<path d="M0 0 C2.02045442 0.60183749 4.02111039 1.27306096 6 2 C6.33 2.66 6.66 3.32 7 4 C6.34 4 5.68 4 5 4 C5.33 5.32 5.66 6.64 6 8 C2.83884224 6.63016497 2.0072908 6.0109362 0 3 C0 2.01 0 1.02 0 0 Z " fill="#9A8854" transform="translate(211,331)"/>
<path d="M0 0 C1.9375 0.8125 1.9375 0.8125 4 2 C4.33 2.99 4.66 3.98 5 5 C5.66 5.33 6.32 5.66 7 6 C7.625 8.0625 7.625 8.0625 8 10 C6.25 9.9375 6.25 9.9375 4 9 C1.99159505 6.29950956 0 3.44873267 0 0 Z " fill="#614928" transform="translate(323,461)"/>
<path d="M0 0 C4.29 0.66 8.58 1.32 13 2 C13 2.66 13 3.32 13 4 C11.20741442 3.91306859 9.41584856 3.80489496 7.625 3.6875 C6.62726563 3.62949219 5.62953125 3.57148438 4.6015625 3.51171875 C3.74304688 3.34285156 2.88453125 3.17398438 2 3 C1.34 2.01 0.68 1.02 0 0 Z " fill="#ECE9E2" transform="translate(312,134)"/>
<path d="M0 0 C5.75 0.875 5.75 0.875 8 2 C7.67 2.99 7.34 3.98 7 5 C6.34 5 5.68 5 5 5 C5 4.01 5 3.02 5 2 C3.04105639 2.11306697 3.04105639 2.11306697 1 3 C-0.29660434 5.49034386 -0.29660434 5.49034386 -1 8 C-2.2077558 4.37673261 -1.54311128 3.35853631 0 0 Z " fill="#D5CEBE" transform="translate(303,102)"/>
<path d="M0 0 C5.19822672 1.36144033 8.09543873 3.46730171 12 7 C11.67 7.66 11.34 8.32 11 9 C8.5625 8.25 8.5625 8.25 6 7 C5.66666667 5.66666667 5.33333333 4.33333333 5 3 C2.50965614 1.70339566 2.50965614 1.70339566 0 1 C0 0.67 0 0.34 0 0 Z " fill="#D5CCB3" transform="translate(327,463)"/>
<path d="M0 0 C2.125 0.9375 2.125 0.9375 4 2 C4 2.66 4 3.32 4 4 C2.02 4.66 0.04 5.32 -2 6 C-2 4.35 -2 2.7 -2 1 C-1.34 0.67 -0.68 0.34 0 0 Z " fill="#947415" transform="translate(374,323)"/>
<path d="M0 0 C0.66 0 1.32 0 2 0 C1.67 1.65 1.34 3.3 1 5 C-1.31 5.33 -3.62 5.66 -6 6 C-4 4 -2 2 0 0 Z " fill="#9F8638" transform="translate(89,215)"/>
<path d="M0 0 C0.66 0.33 1.32 0.66 2 1 C1.67 1.66 1.34 2.32 1 3 C1.66 3.33 2.32 3.66 3 4 C3 4.99 3 5.98 3 7 C2.01 7.33 1.02 7.66 0 8 C-0.66 7.34 -1.32 6.68 -2 6 C-1.64644564 3.73725212 -1.02455574 2.04911148 0 0 Z " fill="#896C1E" transform="translate(330,494)"/>
<path d="M0 0 C2.97 0.99 5.94 1.98 9 3 C9 3.33 9 3.66 9 4 C2.25 5.125 2.25 5.125 0 4 C0 2.68 0 1.36 0 0 Z " fill="#9A7E27" transform="translate(72,219)"/>
<path d="M0 0 C1.32 0 2.64 0 4 0 C4.33 1.98 4.66 3.96 5 6 C4.01 6 3.02 6 2 6 C1.34 5.34 0.68 4.68 0 4 C0 2.68 0 1.36 0 0 Z " fill="#6D542B" transform="translate(319,130)"/>
<path d="M0 0 C4.42857143 5.14285714 4.42857143 5.14285714 5 9 C2.525 8.01 2.525 8.01 0 7 C0 4.69 0 2.38 0 0 Z " fill="#8B7543" transform="translate(313,117)"/>
<path d="M0 0 C0 0.66 0 1.32 0 2 C-0.66 2 -1.32 2 -2 2 C-2 2.66 -2 3.32 -2 4 C-1.34 4 -0.68 4 0 4 C-0.66 5.32 -1.32 6.64 -2 8 C-3.50559539 6.03617993 -4.89131683 4.21736634 -6 2 C-2.25 0 -2.25 0 0 0 Z " fill="#644C25" transform="translate(369,355)"/>
<path d="M0 0 C0.33 0.66 0.66 1.32 1 2 C3.01669827 3.13350534 3.01669827 3.13350534 5 4 C4.01 4.99 3.02 5.98 2 7 C1.01 6.67 0.02 6.34 -1 6 C-1.6875 3.9375 -1.6875 3.9375 -2 2 C-1.34 2 -0.68 2 0 2 C0 1.34 0 0.68 0 0 Z " fill="#6E5414" transform="translate(364,350)"/>
<path d="M0 0 C1.32 0.66 2.64 1.32 4 2 C4 3.98 4 5.96 4 8 C3.67 7.01 3.34 6.02 3 5 C2.01 5 1.02 5 0 5 C-0.5625 3.0625 -0.5625 3.0625 -1 1 C-0.67 0.67 -0.34 0.34 0 0 Z " fill="#684F29" transform="translate(317,116)"/>
<path d="M0 0 C0.99 0.495 0.99 0.495 2 1 C2 1.66 2 2.32 2 3 C2.99 3 3.98 3 5 3 C5.99 4.485 5.99 4.485 7 6 C6.67 6.99 6.34 7.98 6 9 C5.566875 8.525625 5.13375 8.05125 4.6875 7.5625 C2.97690387 5.76313043 2.97690387 5.76313043 0 5 C0 3.35 0 1.7 0 0 Z " fill="#C7B57F" transform="translate(212,89)"/>
<path d="M0 0 C0.66 0.33 1.32 0.66 2 1 C-0.31 3.31 -2.62 5.62 -5 8 C-5.33 6.68 -5.66 5.36 -6 4 C-4.68 3.67 -3.36 3.34 -2 3 C-2 2.34 -2 1.68 -2 1 C-1.34 0.67 -0.68 0.34 0 0 Z " fill="#9A770D" transform="translate(93,511)"/>
<path d="M0 0 C0.33 0 0.66 0 1 0 C1.17835515 4.54805635 0.99785435 7.8794254 -1 12 C-1.33 12 -1.66 12 -2 12 C-2.17835515 7.45194365 -1.99785435 4.1205746 0 0 Z " fill="#907B4B" transform="translate(324,112)"/>
<path d="M0 0 C0.33 0.99 0.66 1.98 1 3 C-0.32 3.33 -1.64 3.66 -3 4 C-3 4.66 -3 5.32 -3 6 C-3.66 6 -4.32 6 -5 6 C-5 6.66 -5 7.32 -5 8 C-5.66 7.67 -6.32 7.34 -7 7 C-6.8125 5.125 -6.8125 5.125 -6 3 C-3.5 1.8125 -3.5 1.8125 -1 1 C-0.67 0.67 -0.34 0.34 0 0 Z " fill="#D8CFB2" transform="translate(117,511)"/>
<path d="M0 0 C0.99 0 1.98 0 3 0 C3.33 1.65 3.66 3.3 4 5 C3.34 5 2.68 5 2 5 C1.67 6.32 1.34 7.64 1 9 C0.67 6.03 0.34 3.06 0 0 Z " fill="#94814C" transform="translate(61,341)"/>
<path d="M0 0 C2.31 0 4.62 0 7 0 C7 0.99 7 1.98 7 3 C5.02 3.33 3.04 3.66 1 4 C0.67 2.68 0.34 1.36 0 0 Z " fill="#8D7846" transform="translate(226,338)"/>
<path d="M0 0 C1.32 0.66 2.64 1.32 4 2 C3.34 2.66 2.68 3.32 2 4 C1.30251417 5.31747324 0.63040043 6.64914193 0 8 C0 7.01 0 6.02 0 5 C-0.99 4.67 -1.98 4.34 -3 4 C-2.34 4 -1.68 4 -1 4 C-0.67 2.68 -0.34 1.36 0 0 Z " fill="#9F7B0F" transform="translate(95,503)"/>
<path d="M0 0 C1.98 0.495 1.98 0.495 4 1 C3.67 2.32 3.34 3.64 3 5 C1.68 5 0.36 5 -1 5 C-0.67 3.35 -0.34 1.7 0 0 Z " fill="#917217" transform="translate(116,480)"/>
<path d="M0 0 C-0.33 1.32 -0.66 2.64 -1 4 C-1.61875 4.144375 -2.2375 4.28875 -2.875 4.4375 C-5.03258322 4.93152225 -5.03258322 4.93152225 -7 6 C-7 5.01 -7 4.02 -7 3 C-4.46815512 0.64276511 -3.52809907 0 0 0 Z " fill="#5A4228" transform="translate(131,472)"/>
<path d="M0 0 C2.62187494 1.04874998 3.79371361 1.64931313 5.25 4.125 C5.4975 4.74375 5.745 5.3625 6 6 C5.01 6.495 5.01 6.495 4 7 C4 6.34 4 5.68 4 5 C3.01 5 2.02 5 1 5 C0.67 3.35 0.34 1.7 0 0 Z " fill="#AF9B56" transform="translate(219,331)"/>
<path d="M0 0 C0.66 0 1.32 0 2 0 C2 0.99 2 1.98 2 3 C2.66 3.33 3.32 3.66 4 4 C2.02 4.33 0.04 4.66 -2 5 C-1.34 3.35 -0.68 1.7 0 0 Z " fill="#CDB878" transform="translate(79,514)"/>
<path d="M0 0 C0.33 0 0.66 0 1 0 C1 1.65 1 3.3 1 5 C0.34 5 -0.32 5 -1 5 C-1 6.65 -1 8.3 -1 10 C-1.66 9.67 -2.32 9.34 -3 9 C-2.67 6.69 -2.34 4.38 -2 2 C-1.34 2 -0.68 2 0 2 C0 1.34 0 0.68 0 0 Z " fill="#C8BA8C" transform="translate(129,486)"/>
<path d="M0 0 C0.33 0.66 0.66 1.32 1 2 C1.66 2 2.32 2 3 2 C3.66 4.31 4.32 6.62 5 9 C3.0625 8.4375 3.0625 8.4375 1 7 C0.25 3.375 0.25 3.375 0 0 Z " fill="#C1B69B" transform="translate(344,479)"/>
<path d="M0 0 C-0.33 1.32 -0.66 2.64 -1 4 C-2.65 4 -4.3 4 -6 4 C-5.67 3.01 -5.34 2.02 -5 1 C-3 0 -3 0 0 0 Z " fill="#836510" transform="translate(84,222)"/>
<path d="M0 0 C0.33 0.99 0.66 1.98 1 3 C-2.75 6 -2.75 6 -5 6 C-5 6.66 -5 7.32 -5 8 C-5.66 7.67 -6.32 7.34 -7 7 C-4.66666667 4.66666667 -2.33333333 2.33333333 0 0 Z " fill="#F7F6F3" transform="translate(96,220)"/>
<path d="M0 0 C1.485 0.99 1.485 0.99 3 2 C3.99 2 4.98 2 6 2 C5.01 3.485 5.01 3.485 4 5 C1.375 5.1875 1.375 5.1875 -1 5 C-0.67 3.35 -0.34 1.7 0 0 Z " fill="#6E551F" transform="translate(302,114)"/>
<path d="M0 0 C0 0.33 0 0.66 0 1 C-2.97 1.66 -5.94 2.32 -9 3 C-8.67 2.01 -8.34 1.02 -8 0 C-4.71023192 -1.09658936 -3.28696233 -0.79953138 0 0 Z " fill="#927728" transform="translate(97,527)"/>
<path d="M0 0 C0.33 1.32 0.66 2.64 1 4 C-0.98 4 -2.96 4 -5 4 C-5 3.01 -5 2.02 -5 1 C-2 0 -2 0 0 0 Z " fill="#72591F" transform="translate(348,495)"/>
<path d="M0 0 C0 0.66 0 1.32 0 2 C-1.8125 3.6875 -1.8125 3.6875 -4 5 C-4.99 4.67 -5.98 4.34 -7 4 C-4.83989616 0.75984424 -3.8842653 0 0 0 Z " fill="#A28738" transform="translate(124,476)"/>
<path d="M0 0 C2.34058637 2.12780579 3.70700306 4.11562221 5 7 C3.68 7 2.36 7 1 7 C0.67 4.69 0.34 2.38 0 0 Z " fill="#876A25" transform="translate(324,465)"/>
<path d="M0 0 C2.475 0.495 2.475 0.495 5 1 C5.33 2.65 5.66 4.3 6 6 C3.37812506 4.95125002 2.20628639 4.35068687 0.75 1.875 C0.5025 1.25625 0.255 0.6375 0 0 Z " fill="#9D8743" transform="translate(209,316)"/>
<path d="M0 0 C2.9375 0.375 2.9375 0.375 6 1 C6.33 1.66 6.66 2.32 7 3 C4.625 3.1875 4.625 3.1875 2 3 C1.34 2.01 0.68 1.02 0 0 Z " fill="#D1CBC4" transform="translate(290,239)"/>
<path d="M0 0 C0.99 0 1.98 0 3 0 C2.67 0.99 2.34 1.98 2 3 C1.34 2.67 0.68 2.34 0 2 C0 1.34 0 0.68 0 0 Z " fill="#948249" transform="translate(251,445)"/>
<path d="M0 0 C0.66 0 1.32 0 2 0 C1.67 0.99 1.34 1.98 1 3 C0.67 2.01 0.34 1.02 0 0 Z " fill="#F9F8F6" transform="translate(288,223)"/>
<path d="" fill="#FFFFFF" transform="translate(0,0)"/>
<path d="M0 0 C2 1 2 1 2 1 Z " fill="#FEFEFE" transform="translate(384,429)"/>
<path d="" fill="#FBFBFB" transform="translate(0,0)"/>
<path d="" fill="#F2ECE7" transform="translate(0,0)"/>
</svg>
