<?xml version="1.0" standalone="no"?>
<!DOCTYPE svg PUBLIC "-//W3C//DTD SVG 20010904//EN"
 "http://www.w3.org/TR/2001/REC-SVG-20010904/DTD/svg10.dtd">
<svg version="1.0" xmlns="http://www.w3.org/2000/svg"
 width="960.000000pt" height="480.000000pt" viewBox="0 0 960.000000 480.000000"
 preserveAspectRatio="xMidYMid meet">

<g transform="translate(0.000000,480.000000) scale(0.100000,-0.100000)"
fill="#000000" stroke="none">
<path d="M9112 3682 c-9 -6 3 -21 40 -53 29 -24 87 -77 130 -117 86 -83 86
-84 94 -252 6 -113 -9 -154 -69 -185 -41 -22 -72 -73 -72 -120 0 -27 -4 -30
-54 -41 -55 -13 -75 -28 -119 -92 -29 -40 -47 -50 -114 -62 -91 -17 -330 -90
-403 -123 -63 -28 -83 -32 -201 -38 -72 -3 -136 -9 -142 -13 -6 -4 -47 0 -89
9 -54 11 -100 14 -149 10 -56 -6 -83 -3 -138 14 -46 14 -95 21 -151 21 -96 0
-115 -11 -115 -67 0 -21 -11 -55 -27 -82 -16 -28 -26 -58 -25 -77 2 -21 -3
-34 -13 -38 -9 -3 -21 -19 -27 -36 -11 -33 -43 -57 -53 -40 -3 6 3 23 15 40
l21 29 -21 41 c-21 41 -45 51 -68 28 -7 -7 -12 -19 -12 -29 0 -24 -133 -56
-207 -50 -24 2 -13 29 22 55 19 15 41 42 49 60 19 46 59 60 151 53 68 -6 76
-5 102 17 15 13 36 38 46 54 16 28 16 32 1 46 -8 9 -24 21 -35 27 -34 18 -150
22 -214 7 -50 -12 -70 -12 -120 -2 -33 7 -85 13 -116 14 -43 0 -71 7 -112 29
-35 18 -78 31 -118 35 -35 4 -109 16 -164 27 -67 14 -131 19 -197 18 l-96 -3
-59 55 c-43 39 -84 65 -152 94 -52 21 -103 46 -115 55 -37 29 -86 40 -176 40
-77 0 -96 4 -155 31 -88 41 -225 52 -299 24 l-47 -18 -37 35 c-62 60 -93 70
-242 80 -320 22 -300 22 -382 -6 -72 -25 -77 -26 -119 -10 -51 18 -310 38
-384 30 -67 -8 -142 -34 -149 -52 -3 -8 4 -33 15 -56 33 -65 9 -139 -40 -123
-21 6 -51 56 -51 84 0 31 -27 91 -46 106 -27 20 -112 18 -224 -6 -77 -16 -127
-19 -265 -18 -383 4 -412 3 -445 -18 l-31 -20 -42 43 c-37 37 -49 43 -102 49
-34 4 -75 16 -95 29 -58 37 -98 47 -254 58 -114 9 -168 9 -233 -1 -79 -11 -90
-10 -151 10 -45 15 -79 35 -106 61 -49 47 -91 70 -170 93 -72 21 -134 15 -214
-21 -124 -56 -469 -165 -615 -195 -141 -28 -257 -39 -433 -39 -114 0 -175 4
-210 15 -88 27 -164 16 -164 -24 0 -26 20 -39 70 -46 25 -4 79 -13 120 -20 89
-17 254 -32 440 -41 180 -8 372 -36 544 -78 125 -31 252 -53 411 -70 28 -4
129 -11 225 -16 96 -6 189 -15 206 -21 48 -15 68 -42 60 -82 -5 -28 -15 -39
-49 -56 -67 -34 -231 -69 -424 -92 -201 -24 -377 -23 -708 5 -152 12 -258 14
-532 8 -232 -5 -346 -11 -353 -18 -9 -9 -8 -17 2 -33 36 -58 389 -111 740
-111 117 0 405 -41 529 -75 98 -27 182 -44 304 -60 113 -14 377 -73 438 -97
21 -8 27 -17 27 -42 1 -36 50 -94 120 -141 25 -16 61 -43 80 -60 55 -48 206
-135 279 -160 36 -13 85 -31 109 -40 27 -9 49 -12 58 -7 13 7 10 13 -16 35
-17 15 -37 30 -44 34 -30 18 -34 45 -15 107 10 33 19 70 19 82 0 11 5 25 12
32 9 9 6 22 -12 57 -13 25 -27 45 -32 45 -14 0 -9 67 7 80 8 6 33 14 56 17 32
5 45 12 58 34 17 31 45 38 54 15 5 -13 -2 -42 -22 -96 -3 -8 -6 -40 -8 -70 -1
-30 -3 -62 -3 -70 -2 -21 16 -137 28 -180 21 -76 29 -87 88 -114 31 -15 76
-43 98 -64 23 -21 84 -59 137 -85 52 -25 104 -55 113 -66 19 -21 16 -48 -6
-56 -140 -48 -186 -83 -229 -172 -19 -39 -31 -49 -83 -73 -34 -15 -90 -35
-126 -44 -95 -25 -120 -36 -120 -55 0 -9 -9 -31 -20 -49 -28 -46 -26 -52 26
-52 58 0 192 44 342 114 64 30 146 60 182 66 36 7 88 22 115 33 53 21 135 81
135 98 0 6 11 27 25 47 21 30 25 49 25 105 0 81 -21 128 -75 171 -20 15 -45
41 -54 58 -17 26 -17 33 -4 71 9 23 19 98 24 167 11 154 11 154 49 213 28 45
33 48 68 45 44 -4 54 -31 23 -64 -10 -12 -29 -40 -41 -64 -20 -38 -21 -48 -11
-104 11 -67 4 -113 -25 -163 -15 -25 -16 -37 -8 -50 24 -39 41 -42 359 -79
189 -22 783 -31 943 -14 64 7 131 14 148 15 17 2 46 11 63 20 31 16 37 15 174
-20 159 -41 244 -70 270 -93 25 -22 21 -58 -9 -79 -14 -10 -43 -31 -64 -48
-21 -16 -60 -45 -85 -64 -26 -19 -64 -60 -85 -90 -20 -31 -58 -71 -84 -89 -40
-29 -44 -35 -34 -52 10 -15 10 -22 0 -32 -6 -6 -12 -21 -12 -31 0 -18 5 -19
53 -14 28 4 101 15 162 26 149 28 216 63 327 171 48 47 122 119 165 160 97 94
117 119 153 196 16 33 35 65 42 71 7 6 128 50 268 98 l255 88 780 3 c801 3
808 3 944 44 35 11 78 20 96 20 49 0 331 78 400 110 77 37 163 120 184 180 15
41 23 48 96 85 60 30 88 52 116 88 46 61 107 178 126 239 8 29 22 52 36 59 28
16 47 35 47 49 0 6 9 28 20 50 11 22 20 52 20 67 0 15 6 45 14 68 56 165 68
226 46 240 -6 3 -9 32 -9 64 1 46 -4 65 -25 99 -14 23 -26 46 -26 51 0 5 -15
21 -32 36 -18 14 -48 39 -67 55 -74 65 -194 100 -239 72z m-7311 -428 c79 -26
97 -43 83 -78 -12 -32 -32 -32 -298 -7 -122 12 -147 28 -103 67 21 18 41 24
75 25 26 1 58 5 72 9 46 15 92 10 171 -16z m499 -78 c47 -1 75 -7 101 -22 33
-20 36 -25 35 -67 -1 -31 5 -51 18 -66 11 -12 17 -23 14 -26 -8 -8 -238 53
-272 73 -17 10 -40 34 -51 54 -17 31 -17 38 -5 53 11 14 22 16 55 9 22 -4 69
-8 105 -8z m2098 -52 c16 -11 22 -25 22 -53 0 -43 -19 -66 -49 -56 -28 8 -38
24 -46 72 -5 35 -4 42 12 46 32 8 38 7 61 -9z m268 -39 c27 -41 -4 -89 -39
-62 -15 12 -21 33 -18 70 2 26 38 21 57 -8z m-1639 -68 c10 -7 7 -16 -12 -39
-18 -22 -25 -41 -25 -74 0 -39 3 -46 28 -56 15 -7 62 -11 106 -10 91 2 156
-12 156 -34 0 -27 -47 -35 -135 -23 -105 15 -132 7 -152 -46 -26 -72 -26 -75
-4 -96 26 -24 27 -50 4 -77 -30 -34 -59 -37 -88 -8 -31 31 -31 37 -2 73 22 26
23 33 16 106 -4 43 -13 84 -19 92 -6 8 -33 17 -58 20 -113 15 -119 49 -8 46
69 -2 70 -1 67 46 -1 11 3 24 8 28 6 3 11 19 11 35 0 16 7 35 15 44 13 13 19
13 47 -1 18 -9 39 -20 45 -26z m662 6 c7 -21 18 -49 24 -62 19 -38 -9 -50
-106 -44 -45 2 -88 6 -95 9 -24 7 -3 22 41 29 52 9 75 28 83 71 9 47 36 45 53
-3z m-989 -2 c0 -10 -7 -24 -15 -31 -12 -10 -16 -9 -21 4 -3 9 -4 23 0 31 8
21 36 19 36 -4z m2310 -20 c15 -28 13 -33 -12 -29 -15 2 -24 11 -26 26 -4 28
23 30 38 3z m320 -8 c0 -10 -4 -24 -9 -32 -7 -11 -10 -9 -16 8 -7 22 0 41 16
41 5 0 9 -8 9 -17z m-2660 -38 c0 -19 -24 -30 -41 -19 -9 5 -7 11 6 21 24 17
35 17 35 -2z m2567 -22 c2 -6 -5 -14 -17 -18 -23 -7 -80 12 -80 27 0 13 93 5
97 -9z m-692 -3 c3 -6 -1 -13 -9 -16 -22 -8 -68 4 -61 16 8 13 62 13 70 0z
m833 -58 c2 -7 -5 -12 -16 -12 -19 0 -32 18 -32 42 0 13 42 -14 48 -30z
m-1676 -45 l14 -54 -30 -36 c-33 -39 -65 -47 -86 -22 -10 12 -9 16 6 21 40 15
54 36 54 84 0 44 5 60 20 60 4 0 13 -24 22 -53z m1928 38 c10 -12 9 -16 -5
-21 -21 -9 -67 6 -73 24 -6 18 63 16 78 -3z m-1108 -56 c68 -10 80 -10 102 4
23 15 28 15 63 1 26 -11 53 -14 89 -10 61 7 97 -10 70 -33 -12 -10 -33 -12
-77 -7 -86 8 -94 1 -109 -93 -11 -68 -18 -84 -50 -118 l-36 -40 -100 -6 c-54
-3 -133 -11 -174 -17 -141 -21 -255 -40 -276 -46 -12 -3 -29 2 -44 14 -21 17
-22 22 -11 35 30 37 98 47 306 46 239 -1 256 3 267 56 5 21 12 43 17 49 9 12
22 122 15 129 -3 3 -33 -1 -67 -8 -34 -7 -87 -17 -117 -23 -30 -6 -64 -13 -75
-17 -16 -6 -15 -3 6 16 15 13 36 38 48 56 18 26 27 31 49 28 15 -2 62 -9 104
-16z m478 -28 c14 -28 12 -67 -6 -102 -8 -16 -12 -39 -9 -50 4 -11 -2 -30 -14
-48 -12 -16 -21 -34 -21 -40 0 -6 -12 -13 -27 -17 -16 -3 -42 -10 -60 -14 -47
-12 -48 0 0 24 30 15 43 28 45 46 2 14 10 40 18 58 9 19 15 54 13 80 -1 26 1
55 5 65 11 23 43 22 56 -2z m618 -30 c15 -10 34 -21 42 -25 8 -3 -10 -4 -40 0
-58 6 -77 15 -66 33 10 16 35 13 64 -8z m-1793 -1 c16 -7 13 -9 -17 -9 -21 -1
-38 4 -38 9 0 12 27 12 55 0z m-320 -20 c-3 -5 -30 -10 -58 -10 -37 0 -48 3
-37 10 20 13 103 13 95 0z m408 3 c-7 -2 -21 -2 -30 0 -10 3 -4 5 12 5 17 0
24 -2 18 -5z m337 -3 c12 -8 9 -10 -12 -10 -15 0 -30 5 -33 10 -8 13 25 13 45
0z m1787 -6 c4 -11 -3 -23 -20 -36 -30 -22 -35 -59 -16 -102 10 -20 9 -34 -5
-69 -9 -23 -16 -50 -16 -59 0 -9 -15 -32 -33 -53 -24 -27 -39 -36 -57 -33 -30
4 -29 19 1 119 11 37 21 79 22 95 l2 29 -65 0 c-52 0 -72 5 -98 23 -45 33 -42
52 11 54 73 3 99 0 137 -17 43 -19 80 -8 80 23 0 37 45 57 57 26z m3048 -53
c-3 -12 -18 -23 -33 -27 -15 -3 -62 -18 -104 -34 -43 -16 -100 -32 -127 -36
-28 -4 -56 -13 -62 -20 -8 -10 -26 -148 -29 -221 0 -24 -52 -74 -74 -71 -20 3
-21 8 -18 91 l2 87 -44 0 c-26 0 -48 6 -56 15 -11 13 -6 17 26 30 74 29 183
88 188 101 10 27 89 66 162 80 41 7 91 22 112 33 31 16 39 17 51 6 8 -8 10
-21 6 -34z m-5701 -42 c35 -30 46 -33 203 -55 39 -6 54 -29 42 -63 -9 -23 -12
-23 -89 -19 -52 3 -86 10 -97 20 -34 30 -65 32 -83 8 -23 -30 -40 -22 -70 34
l-24 45 29 31 c16 16 34 30 42 30 7 0 28 -14 47 -31z m3576 0 c10 -17 7 -27
-13 -57 -13 -21 -28 -48 -32 -62 -15 -51 -88 -107 -116 -89 -8 5 -36 9 -64 9
-56 0 -98 17 -103 41 -5 24 33 29 90 12 80 -23 117 -4 86 46 -15 25 -4 51 22
51 12 0 36 16 54 35 38 40 60 44 76 14z m-3745 -34 c0 -12 -40 -19 -61 -11 -9
3 -12 11 -9 16 8 14 70 9 70 -5z m740 -55 c0 -13 -16 -14 -95 -12 -100 4 -114
7 -104 23 3 6 48 8 102 7 78 -2 97 -6 97 -18z m4235 -33 c0 -44 -47 -86 -65
-58 -3 5 2 26 12 45 19 42 53 50 53 13z m-290 -112 c38 -19 37 -33 -1 -90 -58
-86 -99 -86 -99 -1 0 100 30 127 100 91z m-3932 -12 c-3 -14 -19 -20 -80 -27
-85 -9 -119 -3 -99 17 6 7 44 15 84 18 40 3 78 6 85 7 8 1 12 -5 10 -15z
m2856 -31 c-1 -17 -9 -45 -18 -63 -9 -18 -16 -45 -16 -60 0 -15 -5 -31 -11
-35 -22 -13 15 -24 83 -24 51 0 95 9 176 35 88 29 131 37 237 44 72 4 133 6
138 4 4 -2 7 -17 7 -33 0 -45 32 -61 105 -55 72 7 102 -6 70 -31 -16 -13 -41
-15 -135 -12 -63 3 -169 2 -235 -2 -106 -6 -288 8 -314 25 -4 2 -58 -5 -120
-15 -80 -14 -119 -16 -132 -9 -26 14 -24 26 9 43 40 21 76 71 97 136 24 73 34
92 48 87 7 -2 11 -18 11 -35z m1300 -15 c0 -9 -1 -33 -2 -53 -1 -24 -11 -45
-31 -65 l-29 -28 33 -7 c18 -3 60 1 95 10 34 9 77 16 95 16 27 0 39 8 65 41
40 49 73 51 78 4 3 -36 -47 -114 -76 -116 -9 -1 -33 -3 -52 -5 -42 -4 -187
-11 -401 -19 -99 -4 -159 -3 -163 3 -3 5 2 20 12 32 16 20 28 23 113 25 52 1
115 5 140 9 l47 8 -5 37 c-4 32 0 43 26 73 17 20 31 41 31 48 0 6 6 10 13 8 6
-3 12 -12 11 -21z m-2030 -92 c94 -14 126 -26 126 -46 0 -20 -50 -26 -144 -18
-54 5 -107 14 -117 20 -26 13 -24 38 4 49 29 12 18 12 131 -5z m421 -78 c33
-25 8 -40 -56 -35 -64 5 -95 22 -69 38 22 14 104 12 125 -3z m-705 -114 c0
-15 9 -36 20 -48 12 -12 23 -39 27 -59 5 -34 4 -36 -20 -36 -14 0 -33 7 -41
16 -18 17 -22 89 -6 99 8 5 7 11 0 20 -7 8 -9 19 -5 25 12 19 25 10 25 -17z
m-756 -66 c18 -13 37 -103 20 -95 -5 2 -33 15 -61 27 -29 13 -53 26 -53 30 1
14 17 31 40 40 33 13 33 13 54 -2z"/>
<path d="M2887 1833 c-26 -7 -10 -23 24 -23 20 0 29 4 27 13 -5 13 -24 17 -51
10z"/>
<path d="M2764 1761 c-16 -15 -49 -54 -74 -86 -25 -31 -78 -87 -119 -124 -143
-127 -216 -199 -209 -206 10 -10 268 -27 297 -20 14 4 57 39 95 79 39 40 100
92 136 116 71 48 96 71 122 111 22 35 33 95 19 104 -20 12 -185 55 -212 55
-15 0 -38 -12 -55 -29z"/>
<path d="M4790 1723 c-36 -4 -80 -41 -80 -67 0 -8 -4 -18 -10 -21 -5 -3 -10
-16 -10 -28 0 -13 -14 -38 -31 -57 -87 -97 -136 -143 -178 -167 -79 -44 -121
-73 -121 -82 0 -15 297 -1 424 20 123 20 190 46 210 84 6 11 13 22 16 25 10
10 41 65 47 83 3 9 9 17 14 17 5 0 9 6 9 14 0 8 11 34 25 57 14 24 25 56 25
70 0 47 -21 54 -169 55 -75 1 -152 0 -171 -3z"/>
</g>
</svg>
