<?xml version="1.0" standalone="no"?>
<!DOCTYPE svg PUBLIC "-//W3C//DTD SVG 20010904//EN"
 "http://www.w3.org/TR/2001/REC-SVG-20010904/DTD/svg10.dtd">
<svg version="1.0" xmlns="http://www.w3.org/2000/svg"
 width="356.000000pt" height="205.000000pt" viewBox="0 0 356.000000 205.000000"
 preserveAspectRatio="xMidYMid meet">

<g transform="translate(0.000000,205.000000) scale(0.100000,-0.100000)"
fill="#000000" stroke="none">
<path d="M1256 1532 c-99 -25 -99 -25 -76 -44 26 -21 14 -24 -14 -3 -11 8 -27
15 -35 15 -21 0 -174 -72 -183 -86 -4 -7 -19 -15 -33 -18 -16 -4 -22 -11 -19
-21 4 -9 -1 -13 -14 -12 -12 0 -20 5 -19 9 1 5 -24 25 -56 45 -54 34 -63 37
-150 39 -77 1 -96 -1 -119 -17 -28 -21 -55 -31 -126 -49 -24 -6 -40 -15 -36
-21 3 -6 -2 -19 -12 -30 -17 -18 -16 -19 23 -19 55 0 153 -21 153 -32 0 -6 -8
-7 -17 -3 -10 3 -53 11 -95 18 l-78 11 -31 -29 c-31 -31 -59 -84 -59 -115 0
-16 11 -17 118 -13 118 4 222 -3 222 -15 0 -4 -78 -6 -172 -5 -164 2 -187 -2
-188 -27 0 -3 21 -5 47 -4 31 1 36 0 13 -3 -55 -6 -69 -14 -40 -23 l25 -8 -25
-1 c-32 -1 -52 -40 -40 -80 4 -15 6 -43 4 -61 -2 -18 1 -39 6 -45 6 -7 10 -17
9 -21 -5 -29 3 -53 20 -59 14 -4 18 -15 18 -44 0 -59 5 -62 81 -40 37 10 96
26 132 35 38 10 92 35 130 59 36 23 85 49 110 58 25 9 63 23 85 31 47 18 75
20 75 6 0 -5 -4 -10 -10 -10 -10 0 -52 -18 -212 -92 -47 -21 -115 -46 -150
-54 -90 -21 -228 -65 -228 -73 1 -3 15 -15 32 -26 17 -11 36 -33 41 -50 16
-50 23 -54 65 -36 92 40 189 95 250 145 90 71 230 166 247 166 7 0 15 7 19 15
3 8 13 15 21 15 9 0 13 -5 10 -10 -4 -6 -11 -7 -17 -4 -6 4 -8 2 -5 -4 11 -17
49 -2 42 17 -5 13 -4 14 7 3 19 -19 -28 -58 -48 -41 -11 9 -14 8 -14 -1 0 -6
-6 -10 -12 -7 -7 2 -36 -17 -65 -43 -72 -66 -196 -145 -345 -220 -69 -36 -124
-68 -122 -72 3 -5 20 -8 37 -8 31 0 71 -19 92 -46 9 -10 22 -9 65 2 30 8 76
16 101 19 25 2 74 17 109 34 35 17 69 31 76 31 7 0 30 21 50 46 36 44 38 45
53 26 42 -51 245 -85 511 -86 80 -1 177 2 215 7 39 4 106 10 150 13 44 4 85
10 90 14 6 4 39 13 73 19 130 25 212 98 230 204 6 33 12 43 29 45 17 2 31 -11
63 -58 44 -65 84 -90 181 -112 37 -9 55 -7 96 6 62 21 76 36 109 117 34 84 47
97 103 104 109 13 191 30 191 38 0 4 4 5 10 2 5 -3 24 -2 42 4 48 14 238 88
246 95 3 4 -2 14 -11 23 -15 16 -18 16 -29 1 -14 -17 -78 -30 -78 -16 0 5 21
18 46 28 43 19 52 40 17 40 -13 0 -13 3 -3 15 9 11 9 15 1 15 -18 0 -66 -26
-80 -44 -8 -9 -20 -16 -28 -16 -9 0 -2 11 16 26 36 30 43 81 14 90 -10 3 -30
12 -45 20 -21 11 -27 11 -31 2 -3 -8 -6 -6 -6 5 -1 11 -9 17 -26 17 -14 0 -25
-4 -25 -10 0 -5 -5 -10 -11 -10 -6 0 -9 7 -5 15 3 8 1 15 -3 15 -5 0 -11 -6
-14 -12 -2 -8 -11 0 -20 17 -11 20 -16 24 -17 13 0 -10 -4 -18 -10 -18 -5 0
-14 8 -19 18 -10 16 -10 16 -11 0 0 -24 -12 -23 -30 2 -14 19 -14 19 -37 -2
-25 -23 -29 -18 -12 13 10 19 9 20 -11 9 -11 -6 -18 -15 -14 -21 3 -5 0 -17
-7 -25 -10 -12 -8 -19 10 -38 15 -15 19 -26 12 -31 -6 -3 -11 -2 -11 2 0 13
-57 73 -69 73 -6 0 -11 -6 -11 -13 0 -20 -27 -53 -37 -44 -4 5 1 15 11 23 11
7 16 17 13 21 -4 4 -15 -1 -25 -10 -22 -22 -9 -45 42 -71 42 -22 45 -33 14
-39 -13 -3 -7 -4 12 -4 30 2 35 5 33 25 -2 13 1 21 7 17 6 -3 10 -12 10 -20 0
-18 51 -30 61 -13 8 12 13 4 10 -16 -1 -5 5 -4 13 4 14 11 16 9 16 -9 0 -12
-4 -20 -9 -17 -4 3 -16 -1 -27 -8 -10 -8 -24 -12 -31 -9 -7 3 -13 1 -13 -5 0
-6 -9 -8 -19 -5 -16 4 -17 8 -8 18 7 7 15 11 20 8 4 -2 7 1 7 6 0 13 -6 14
-46 2 -18 -5 -37 -5 -46 0 -13 7 -15 5 -11 -12 5 -17 2 -20 -13 -17 -15 2 -20
15 -25 56 -8 59 -26 89 -43 72 -8 -8 -6 -15 8 -25 24 -18 35 -91 12 -82 -9 4
-19 -8 -31 -39 -9 -25 -20 -43 -23 -40 -3 3 -1 16 5 29 6 12 16 41 24 65 12
41 11 43 -16 72 -27 28 -28 30 -7 30 26 0 75 44 77 70 2 23 -25 34 -56 25 -15
-5 -19 -4 -14 5 6 9 3 9 -13 1 -16 -9 -24 -7 -38 7 -17 16 -18 16 -11 0 4 -12
1 -18 -8 -19 -15 -1 -28 -4 -42 -9 -5 -1 -14 -3 -22 -4 -8 0 -16 -7 -19 -14
-3 -9 4 -11 25 -7 27 5 27 5 -4 -7 -41 -17 -48 -25 -36 -40 5 -7 8 -19 7 -25
-1 -7 -2 -25 -3 -39 0 -14 -5 -23 -10 -20 -13 8 -42 -4 -35 -15 3 -5 -1 -6 -9
-3 -9 3 -16 -3 -20 -15 -6 -25 14 -28 33 -6 7 8 17 15 23 15 21 0 -26 -39 -51
-42 -18 -2 -31 -13 -40 -30 -7 -16 -19 -28 -27 -28 -8 0 -17 -4 -20 -10 -3 -6
1 -7 9 -4 11 4 16 0 16 -13 0 -13 -14 -27 -37 -39 -50 -25 -49 -24 -36 -32 8
-5 9 -13 3 -22 -8 -13 -10 -12 -10 2 0 11 -5 15 -15 12 -8 -4 -12 -11 -8 -18
3 -6 2 -7 -3 -3 -5 5 -9 14 -9 20 0 7 -11 14 -24 15 -20 3 -23 0 -18 -17 3
-12 1 -21 -4 -21 -5 0 -9 5 -9 10 0 14 -27 12 -33 -2 -3 -8 -6 -6 -6 5 -1 24
-21 21 -21 -4 0 -11 -5 -17 -10 -14 -6 4 -8 11 -5 16 4 5 -3 9 -13 9 -11 0
-22 7 -26 15 -6 17 9 21 19 5 10 -16 21 -11 22 10 1 16 -4 20 -28 20 -19 0
-29 -5 -29 -15 0 -8 -9 -15 -20 -15 -11 0 -20 -4 -20 -10 0 -5 12 -10 26 -10
23 0 25 -2 13 -16 -8 -10 -15 -12 -17 -5 -2 6 -12 11 -22 11 -22 0 -35 17 -18
22 6 2 8 10 4 17 -6 9 -12 8 -27 -5 -16 -14 -23 -15 -49 -4 -21 9 -27 15 -19
21 9 5 8 11 -4 23 -21 22 -30 20 -24 -4 3 -13 0 -20 -10 -20 -8 0 -13 -6 -11
-12 3 -7 13 -13 23 -13 11 0 19 -9 22 -25 3 -21 2 -22 -9 -9 -7 8 -25 20 -40
26 -23 10 -27 9 -31 -9 -5 -16 -2 -19 16 -14 12 3 28 1 36 -3 8 -5 -11 -9 -46
-9 -46 -1 -53 1 -34 9 15 6 21 14 17 24 -3 9 1 18 9 21 19 8 19 24 0 24 -8 0
-15 -4 -15 -10 0 -5 -9 -10 -20 -10 -22 0 -27 -16 -7 -23 8 -3 4 -11 -12 -26
-27 -24 -30 -24 -50 -12 -11 7 -9 10 9 16 14 4 19 10 13 16 -6 6 -20 5 -36 -2
-30 -14 -32 -20 -15 -37 23 -23 1 -12 -26 13 -15 14 -36 25 -46 25 -25 0 -36
18 -16 26 9 3 13 10 10 16 -3 5 2 16 12 23 12 9 14 14 6 15 -23 0 -51 -20 -47
-33 3 -6 -4 -23 -15 -37 -17 -22 -22 -23 -40 -12 -15 9 -26 10 -41 1 -15 -8
-19 -8 -15 0 4 6 2 11 -4 11 -6 0 -8 5 -5 10 4 6 15 8 25 5 10 -3 21 -1 25 5
3 6 -3 10 -15 10 -12 0 -30 5 -42 11 -18 9 -19 8 -13 -10 4 -12 2 -21 -4 -21
-6 0 -11 -4 -11 -10 0 -5 7 -10 16 -10 8 0 12 -4 9 -10 -3 -5 -1 -10 6 -10 7
0 9 -3 6 -6 -4 -4 -13 -1 -22 6 -8 7 -30 10 -49 8 -21 -2 -34 0 -33 7 1 5 -13
11 -30 13 -19 2 -33 -1 -33 -7 0 -6 8 -11 18 -12 10 0 12 -3 5 -6 -7 -2 -23 3
-35 11 -12 9 -16 16 -9 16 8 0 11 6 7 15 -3 8 0 14 6 12 6 -1 12 3 15 9 5 16
-44 15 -57 -1 -8 -9 -8 -15 0 -20 6 -3 8 -10 5 -15 -3 -5 -1 -11 5 -15 5 -3
10 -10 10 -16 0 -15 -22 -10 -35 8 -11 14 -16 15 -28 5 -9 -8 -18 -9 -21 -3
-4 5 -2 12 4 16 13 8 7 45 -9 55 -9 5 -10 10 -2 14 6 4 11 2 11 -4 0 -6 5 -8
10 -5 18 11 10 25 -14 25 -20 0 -25 -6 -28 -35 -2 -19 0 -36 5 -38 4 -1 5 -10
1 -20 -9 -25 -49 -18 -50 8 -1 11 -3 25 -4 30 -1 6 -2 13 -1 17 0 4 -6 5 -15
1 -9 -3 -14 -1 -12 7 2 6 -6 15 -17 20 -17 6 -20 3 -22 -21 -2 -31 13 -40 20
-11 2 9 4 -11 3 -44 -1 -43 -4 -60 -13 -57 -6 3 -9 12 -6 20 4 9 -1 19 -10 25
-10 5 -17 18 -17 28 0 10 -5 22 -12 26 -7 4 -8 3 -4 -4 4 -7 1 -12 -8 -12 -9
0 -16 9 -16 20 0 11 -5 20 -11 20 -6 0 -9 -6 -6 -14 5 -12 2 -12 -20 -1 -15 8
-30 12 -35 9 -12 -8 -29 6 -22 18 4 6 10 5 15 -3 7 -11 9 -9 9 5 0 20 0 20 15
0 14 -18 14 -18 15 10 l0 28 18 -21 c9 -12 25 -23 35 -25 10 -1 23 -9 28 -17
5 -9 9 -10 9 -2 0 6 -5 15 -11 18 -6 4 -8 13 -5 21 4 9 -2 14 -17 14 -22 0
-23 2 -16 58 5 44 3 61 -9 75 -10 11 -11 17 -4 17 7 0 12 -5 12 -11 0 -8 5 -7
16 2 9 7 23 14 32 15 20 3 45 -28 30 -37 -16 -10 -1 -27 32 -34 34 -7 33 -6
21 -38 -8 -20 -6 -27 5 -31 24 -9 27 -7 15 8 -9 10 -8 15 4 20 15 5 19 -6 16
-44 0 -11 1 -11 5 -2 5 10 9 10 20 1 22 -18 16 1 -11 37 -14 18 -28 47 -31 64
-4 16 -11 30 -16 30 -5 0 -3 6 3 13 17 18 79 19 72 1 -3 -8 -9 -14 -14 -14 -5
0 -9 -4 -9 -10 0 -22 21 -8 33 22 9 21 16 28 21 20 4 -7 2 -12 -4 -12 -6 0 -8
-5 -5 -10 4 -6 2 -17 -5 -25 -9 -11 -7 -12 9 -8 15 4 21 1 21 -11 0 -19 11
-21 27 -5 12 12 33 4 33 -12 0 -5 -7 -9 -15 -9 -13 0 -13 -3 -3 -20 18 -29 47
-26 44 4 -3 31 -34 78 -46 71 -6 -4 -10 5 -10 19 0 16 6 26 14 26 8 0 22 3 32
7 11 4 15 2 11 -4 -8 -12 14 -63 27 -63 4 0 5 7 2 15 -8 20 -14 42 -9 33 7
-13 33 -9 33 5 0 6 9 -1 19 -16 22 -33 19 -32 49 -25 21 6 22 9 10 27 -20 33
4 49 31 20 11 -13 21 -29 21 -36 0 -15 16 -17 25 -3 9 14 42 12 48 -2 4 -10 7
-10 17 -1 10 9 10 15 1 26 -9 12 -6 18 13 31 24 15 26 15 46 -6 12 -14 24 -19
28 -13 9 13 52 15 52 3 0 -5 10 -6 23 -2 12 3 18 3 14 -2 -4 -4 -27 -8 -50 -9
-30 -1 -42 -5 -42 -15 0 -10 10 -15 30 -14 51 3 109 11 126 18 21 9 47 -20 31
-36 -8 -8 -15 -8 -26 1 -14 12 -61 6 -82 -11 -13 -10 -15 -78 -2 -78 8 0 12
22 10 53 -1 9 2 17 7 17 10 0 23 -31 20 -46 -1 -5 -1 -13 0 -18 1 -12 41 39
41 53 0 16 18 13 27 -4 7 -11 18 -14 41 -9 30 6 46 24 21 24 -5 0 -7 5 -4 11
4 6 -3 13 -15 16 -13 3 -19 11 -16 20 4 8 -3 17 -17 22 -22 9 -22 9 5 19 14 6
29 16 33 21 3 6 11 11 16 11 6 0 8 -4 5 -9 -4 -5 -3 -17 0 -26 5 -12 14 -15
34 -12 15 3 31 2 36 -3 6 -6 22 -6 41 -1 35 10 44 6 36 -15 -5 -13 15 -20 41
-15 5 1 3 -6 -5 -15 -13 -16 -11 -17 19 -11 19 4 32 2 32 -4 0 -6 5 -7 10 -4
17 10 11 25 -9 25 -14 0 -18 5 -14 20 3 11 0 20 -6 20 -6 0 -11 5 -11 10 0 6
9 10 20 10 11 0 20 7 20 15 0 8 -5 15 -11 15 -7 0 -9 9 -6 21 5 19 4 20 -12 5
-19 -17 -36 -22 -27 -8 3 5 -8 8 -24 7 -17 -1 -30 2 -30 7 0 4 5 8 11 8 5 0 8
4 5 8 -3 5 18 5 46 2 36 -5 51 -3 55 6 3 8 16 11 39 7 20 -3 34 -1 34 4 0 6
21 11 48 11 48 1 132 22 132 32 0 4 -7 15 -15 26 -17 22 -19 34 -5 34 5 0 17
-16 25 -36 13 -31 18 -35 37 -29 21 6 78 18 156 32 33 5 46 22 15 19 -10 0
-19 7 -21 18 -4 20 -16 37 -44 63 -9 9 -15 20 -12 24 5 9 -35 23 -43 15 -4 -3
0 -6 8 -7 16 0 66 -59 51 -59 -6 0 -26 16 -46 36 -20 20 -36 31 -36 25 0 -6 9
-15 20 -21 11 -6 20 -16 20 -22 0 -9 -3 -9 -12 0 -7 7 -21 12 -33 11 -19 0
-19 -1 4 -17 13 -9 33 -16 45 -17 12 0 22 -8 24 -17 2 -11 -3 -18 -12 -18 -9
0 -16 5 -16 11 0 9 -4 9 -14 0 -10 -9 -22 1 -55 44 -22 31 -41 60 -41 65 0 6
-17 9 -37 9 -28 -2 -31 -3 -12 -6 15 -2 39 -17 55 -34 31 -32 20 -38 -28 -13
-24 13 -28 18 -17 26 10 7 8 8 -8 3 -12 -3 -24 -1 -28 5 -3 5 -11 10 -16 10
-6 0 -7 -4 -4 -10 10 -15 -11 -12 -24 4 -10 12 -7 15 16 19 20 3 16 4 -15 6
l-43 1 32 -31 c17 -17 28 -33 24 -37 -4 -4 -22 10 -41 31 -19 20 -37 37 -41
37 -3 0 2 -9 12 -19 16 -19 16 -20 -3 -18 -11 0 -20 4 -20 7 2 18 -4 23 -12
10 -7 -12 -12 -11 -32 5 l-23 20 18 -21 c31 -37 18 -49 -16 -16 l-34 33 -139
-2 -138 -1 33 -27 c20 -16 30 -31 24 -34 -6 -4 -18 4 -27 18 -9 14 -21 25 -27
25 -8 0 -8 -4 0 -14 7 -8 8 -17 3 -20 -5 -3 -19 8 -31 25 -22 30 -22 30 -2 19
17 -9 21 -8 21 5 0 12 -12 15 -57 15 l-58 -1 35 -28 c19 -16 31 -33 27 -37 -4
-4 -20 5 -36 20 -18 17 -30 23 -33 16 -2 -8 -9 -6 -18 6 -14 16 -13 17 3 11 9
-3 17 -2 17 3 0 6 -21 10 -47 11 -107 1 -319 10 -328 12 -5 2 -55 -8 -109 -21z
m139 -42 c14 -22 -13 -8 -41 22 l-29 31 32 -22 c18 -12 35 -26 38 -31z m20 12
c-3 -3 -16 5 -28 17 l-22 23 28 -17 c15 -10 25 -20 22 -23z m41 7 c4 -8 1 -8
-14 0 -12 6 -24 16 -28 22 -4 8 -1 8 14 0 12 -6 24 -16 28 -22z m50 -18 c22
-31 12 -25 -27 16 -22 24 -26 31 -11 20 13 -8 30 -25 38 -36z m53 -5 c28 -30
51 -58 51 -62 0 -4 -18 14 -41 40 -22 25 -50 53 -62 61 -12 8 -17 15 -11 15 6
0 34 -24 63 -54z m27 23 c4 -8 1 -8 -14 0 -12 6 -24 16 -28 22 -4 8 -1 8 14 0
12 -6 24 -16 28 -22z m48 -8 c31 -34 3 -24 -30 10 -21 23 -23 29 -9 21 11 -5
29 -20 39 -31z m-313 12 c13 -15 12 -15 -11 -3 -34 17 -36 20 -18 20 9 0 22
-7 29 -17z m375 5 c5 -8 1 -9 -11 -4 -10 4 -21 2 -25 -4 -5 -7 -10 -6 -18 3
-10 11 -6 14 18 15 16 0 33 -4 36 -10z m126 -15 c15 -15 28 -30 28 -35 0 -17
-16 -7 -43 27 -33 41 -25 46 15 8z m-531 -4 c16 -11 29 -25 29 -32 0 -6 -6 -3
-12 6 -7 9 -26 23 -43 32 -16 8 -24 15 -17 15 8 0 27 -9 43 -21z m634 10 c11
-17 -1 -21 -15 -4 -8 9 -8 15 -2 15 6 0 14 -5 17 -11z m83 -9 c12 -8 22 -21
22 -29 0 -10 -11 -5 -31 15 -29 27 -31 27 -18 4 8 -13 24 -33 37 -43 12 -10
22 -24 21 -30 0 -8 -2 -8 -6 1 -2 6 -10 12 -16 12 -7 1 -26 20 -43 43 -30 40
-30 43 -10 42 11 0 31 -7 44 -15z m150 8 c6 -6 12 -15 12 -21 0 -7 -4 -7 -12
1 -15 15 -31 16 -22 0 4 -7 3 -8 -5 -4 -6 4 -9 10 -7 14 2 4 -16 7 -40 8 -38
1 -41 -1 -26 -12 15 -12 15 -13 1 -14 -9 0 -24 9 -33 19 -17 18 -15 19 51 19
37 0 74 -5 81 -10z m-911 -19 c19 -12 32 -23 30 -26 -5 -4 -77 36 -77 43 0 8
14 3 47 -17z m443 -10 c0 -6 -4 -7 -10 -4 -5 3 -10 11 -10 16 0 6 5 7 10 4 6
-3 10 -11 10 -16z m-240 -10 c0 -5 -4 -9 -10 -9 -5 0 -10 7 -10 16 0 8 5 12
10 9 6 -3 10 -10 10 -16z m285 11 c3 -5 1 -10 -4 -10 -6 0 -11 5 -11 10 0 6 2
10 4 10 3 0 8 -4 11 -10z m225 0 c0 -5 -4 -10 -10 -10 -5 0 -10 5 -10 10 0 6
5 10 10 10 6 0 10 -4 10 -10z m147 4 c-3 -3 -12 -4 -19 -1 -8 3 -5 6 6 6 11 1
17 -2 13 -5z m-941 -35 c4 -8 1 -8 -14 0 -12 6 -24 16 -28 22 -4 8 -1 8 14 0
12 -6 24 -16 28 -22z m614 21 c0 -5 -2 -10 -4 -10 -3 0 -8 5 -11 10 -3 6 -1
10 4 10 6 0 11 -4 11 -10z m488 -2 c9 -9 12 -9 12 0 0 7 5 12 10 12 6 0 10 -8
10 -19 0 -10 9 -21 20 -24 14 -4 18 -10 14 -22 -6 -15 -10 -14 -28 8 -12 14
-30 27 -40 29 -11 2 -21 9 -24 16 -5 15 10 16 26 0z m-882 -25 c-7 -7 -26 7
-26 19 0 6 6 6 15 -2 9 -7 13 -15 11 -17z m520 0 c-7 -7 -26 7 -26 19 0 6 6 6
15 -2 9 -7 13 -15 11 -17z m243 16 c47 14 51 14 51 0 0 -6 -7 -9 -15 -5 -8 3
-15 1 -15 -5 0 -6 -7 -9 -15 -5 -8 3 -15 2 -15 -2 0 -5 -16 -6 -35 -4 -34 4
-42 11 -28 25 3 4 12 2 20 -5 10 -8 23 -8 52 1z m81 1 c0 -5 -4 -10 -10 -10
-5 0 -10 5 -10 10 0 6 5 10 10 10 6 0 10 -4 10 -10z m155 0 c3 -5 -1 -10 -9
-10 -9 0 -16 5 -16 10 0 6 4 10 9 10 6 0 13 -4 16 -10z m-960 -10 c3 -5 1 -10
-4 -10 -6 0 -11 5 -11 10 0 6 2 10 4 10 3 0 8 -4 11 -10z m236 -42 c6 -12 6
-18 -1 -18 -5 0 -10 6 -10 14 0 7 -7 19 -15 26 -8 7 -15 18 -15 24 1 11 24
-15 41 -46z m394 34 c0 -6 9 -18 20 -26 15 -11 17 -18 9 -26 -8 -8 -17 -2 -33
25 -24 42 -26 48 -8 43 6 -3 12 -10 12 -16z m-584 -10 c-7 -2 -18 1 -23 6 -8
8 -4 9 13 5 13 -4 18 -8 10 -11z m49 -2 c6 -11 8 -20 6 -20 -3 0 -10 9 -16 20
-6 11 -8 20 -6 20 3 0 10 -9 16 -20z m276 -7 c-10 -10 -19 5 -10 18 6 11 8 11
12 0 2 -7 1 -15 -2 -18z m44 12 c7 -8 8 -15 2 -15 -5 0 -15 7 -22 15 -7 8 -8
15 -2 15 5 0 15 -7 22 -15z m114 -1 c10 -25 1 -27 -19 -4 -15 17 -16 20 -3 20
9 0 19 -7 22 -16z m496 -6 c20 -22 27 -48 12 -48 -8 0 -52 54 -52 65 0 12 21
3 40 -17z m-1085 -15 l18 -28 -21 19 c-12 11 -22 23 -22 28 0 14 7 9 25 -19z
m525 6 c7 -11 9 -24 5 -27 -7 -7 -35 25 -35 40 0 16 19 8 30 -13z m335 3 c0
-18 -20 -15 -23 4 -3 10 1 15 10 12 7 -3 13 -10 13 -16z m35 4 c0 -7 7 -19 15
-26 17 -14 20 -40 5 -40 -10 0 -40 52 -40 70 0 5 5 10 10 10 6 0 10 -6 10 -14z
m125 -13 c14 -20 15 -30 7 -44 -7 -10 -9 -25 -6 -34 8 -19 -3 -19 -22 -1 -18
19 -18 26 1 26 19 0 19 9 0 34 -17 22 -20 46 -6 46 5 0 17 -12 26 -27z m-975
-3 c8 -15 8 -20 -3 -20 -7 0 -13 9 -13 20 0 11 1 20 3 20 1 0 7 -9 13 -20z
m780 10 c0 -5 -4 -10 -10 -10 -5 0 -10 5 -10 10 0 6 5 10 10 10 6 0 10 -4 10
-10z m-485 -20 c13 -15 15 -24 8 -31 -8 -8 -16 -3 -27 20 -19 35 -8 41 19 11z
m238 -12 c11 -20 14 -35 8 -41 -6 -6 -15 2 -25 21 -29 56 -14 74 17 20z m83
-3 c3 -7 14 -11 25 -8 13 4 19 0 19 -11 0 -9 -4 -16 -10 -16 -5 0 -10 4 -10 9
0 5 -8 7 -19 4 -17 -4 -51 28 -51 50 0 12 40 -12 46 -28z m98 28 c4 -4 14 -8
23 -8 19 0 40 -31 29 -42 -4 -4 -14 1 -22 11 -10 15 -17 17 -25 9 -8 -8 -5
-14 10 -22 12 -7 21 -18 21 -26 0 -22 -18 -18 -31 6 -9 17 -13 19 -20 8 -8
-12 -11 -12 -19 1 -14 22 -12 30 5 24 18 -7 19 0 5 27 -8 14 -7 19 3 19 8 0
17 -3 21 -7z m494 -17 c3 -12 -1 -17 -10 -14 -7 3 -15 13 -16 22 -3 12 1 17
10 14 7 -3 15 -13 16 -22z m-1160 -4 c6 -18 -15 -14 -22 4 -4 10 -1 14 6 12 6
-2 14 -10 16 -16z m52 -1 c12 -23 -3 -37 -17 -18 -22 27 -24 37 -9 37 8 0 20
-9 26 -19z m998 7 c16 -16 15 -38 -2 -38 -13 0 -26 20 -26 41 0 13 14 11 28
-3z m-1888 -8 c8 -5 11 -10 5 -10 -5 0 -17 5 -25 10 -8 5 -10 10 -5 10 6 0 17
-5 25 -10z m1213 -4 c3 -8 3 -17 0 -20 -7 -7 -33 13 -33 25 0 15 27 10 33 -5z
m147 4 c0 -5 -4 -10 -10 -10 -5 0 -10 5 -10 10 0 6 5 10 10 10 6 0 10 -4 10
-10z m-680 -21 c0 -6 -4 -7 -10 -4 -5 3 -10 11 -10 16 0 6 5 7 10 4 6 -3 10
-11 10 -16z m258 9 c7 -7 12 -16 12 -20 0 -11 -23 -6 -32 7 -18 24 -1 34 20
13z m86 -10 c21 -30 7 -46 -15 -17 -10 13 -19 27 -19 32 0 15 19 6 34 -15z
m142 14 c-10 -10 -45 -12 -50 -3 -3 4 8 8 25 9 17 0 28 -2 25 -6z m88 -8 c18
-18 20 -30 6 -39 -5 -3 -16 8 -25 25 -17 32 -6 40 19 14z m346 -3 c6 -13 6
-22 1 -26 -9 -5 -31 24 -31 39 0 14 20 4 30 -13z m113 -3 c8 -30 -2 -37 -19
-14 -18 25 -18 36 0 36 7 0 16 -10 19 -22z m-1656 -14 c-7 -7 -37 7 -37 17 0
6 9 5 21 -1 11 -7 19 -14 16 -16z m668 16 c3 -5 1 -10 -4 -10 -6 0 -11 5 -11
10 0 6 2 10 4 10 3 0 8 -4 11 -10z m1215 -6 c0 -2 -7 -4 -15 -4 -8 0 -15 4
-15 10 0 5 7 7 15 4 8 -4 15 -8 15 -10z m-290 -21 c0 -20 -24 -11 -28 10 -2
12 1 15 12 11 9 -3 16 -13 16 -21z m327 21 c-3 -3 -12 -4 -19 -1 -8 3 -5 6 6
6 11 1 17 -2 13 -5z m-1333 -43 c-5 -6 -34 20 -34 30 0 5 8 1 18 -8 10 -10 17
-20 16 -22z m144 14 c-3 -3 -9 2 -12 12 -6 14 -5 15 5 6 7 -7 10 -15 7 -18z
m82 15 c0 -5 -4 -10 -10 -10 -5 0 -10 5 -10 10 0 6 5 10 10 10 6 0 10 -4 10
-10z m430 0 c0 -5 -4 -10 -10 -10 -5 0 -10 5 -10 10 0 6 5 10 10 10 6 0 10 -4
10 -10z m565 0 c3 -5 1 -10 -4 -10 -6 0 -11 5 -11 10 0 6 2 10 4 10 3 0 8 -4
11 -10z m-1847 -26 c79 -32 152 -72 152 -85 0 -13 0 -13 -120 35 -61 25 -124
47 -140 51 -46 10 -46 25 0 25 23 0 72 -12 108 -26z m1062 4 c0 -13 -23 -5
-28 10 -2 7 2 10 12 6 9 -3 16 -11 16 -16z m31 4 c-10 -3 -7 -10 10 -23 19
-15 21 -19 7 -19 -17 0 -38 28 -38 49 0 6 8 7 17 4 13 -5 14 -8 4 -11z m83 2
c9 -8 14 -20 11 -25 -10 -15 -22 -10 -28 12 -4 16 -11 19 -26 14 -12 -4 -21
-2 -21 4 0 17 47 13 64 -5z m196 6 c0 -6 6 -10 14 -8 8 2 16 -1 18 -7 2 -5
-12 -10 -29 -11 -18 0 -36 -3 -39 -7 -11 -10 -24 -8 -24 3 0 6 7 10 15 10 8 0
15 7 15 15 0 8 7 15 15 15 8 0 15 -5 15 -10z m-809 -17 c13 -16 12 -17 -3 -4
-10 7 -18 15 -18 17 0 8 8 3 21 -13z m264 -4 c11 -34 -9 -42 -22 -9 -9 24 -9
30 2 30 8 0 17 -9 20 -21z m84 -10 c25 -71 6 -76 -23 -6 -12 30 -12 37 -1 37
7 0 18 -14 24 -31z m81 -4 c0 -23 -16 -17 -28 10 -11 24 -10 25 8 15 11 -6 20
-17 20 -25z m459 4 c-8 -5 -16 -3 -21 4 -14 22 -8 28 13 16 17 -9 19 -13 8
-20z m111 15 c0 -9 -5 -14 -12 -12 -18 6 -21 28 -4 28 9 0 16 -7 16 -16z
m-875 -4 c3 -5 -1 -10 -9 -10 -9 0 -16 5 -16 10 0 6 4 10 9 10 6 0 13 -4 16
-10z m610 0 c3 -5 -1 -10 -9 -10 -9 0 -16 5 -16 10 0 6 4 10 9 10 6 0 13 -4
16 -10z m-546 -36 c6 -14 11 -27 11 -30 0 -12 -21 10 -35 36 -12 24 -13 28 -1
24 7 -3 18 -16 25 -30z m476 26 c3 -5 -1 -10 -9 -10 -9 0 -16 5 -16 10 0 6 4
10 9 10 6 0 13 -4 16 -10z m266 -3 c-1 -12 -15 -9 -19 4 -3 6 1 10 8 8 6 -3
11 -8 11 -12z m114 3 c3 -5 -1 -10 -9 -10 -9 0 -16 5 -16 10 0 6 4 10 9 10 6
0 13 -4 16 -10z m-338 -15 c8 -22 -6 -33 -17 -15 -13 20 -12 30 0 30 6 0 13
-7 17 -15z m-1534 -2 c-7 -2 -19 -2 -25 0 -7 3 -2 5 12 5 14 0 19 -2 13 -5z
m738 -10 c13 -16 12 -17 -3 -4 -10 7 -18 15 -18 17 0 8 8 3 21 -13z m569 1 c0
-9 -5 -14 -12 -12 -18 6 -21 28 -4 28 9 0 16 -7 16 -16z m120 1 c0 -2 -7 -5
-15 -9 -9 -3 -15 0 -15 9 0 9 6 12 15 9 8 -4 15 -7 15 -9z m260 5 c0 -5 -4
-10 -10 -10 -5 0 -10 5 -10 10 0 6 5 10 10 10 6 0 10 -4 10 -10z m120 6 c0
-11 -19 -15 -25 -6 -3 5 1 10 9 10 9 0 16 -2 16 -4z m-1590 -16 c13 -8 13 -10
-2 -10 -9 0 -20 5 -23 10 -8 13 5 13 25 0z m1400 0 c0 -5 -7 -10 -15 -10 -8 0
-15 5 -15 10 0 6 7 10 15 10 8 0 15 -4 15 -10z m590 -10 c0 -5 -2 -10 -4 -10
-3 0 -8 5 -11 10 -3 6 -1 10 4 10 6 0 11 -4 11 -10z m-620 -20 c0 -19 -18 -19
-23 -1 -3 14 -1 18 9 14 8 -3 14 -9 14 -13z m70 4 c0 -8 5 -12 10 -9 6 3 10 1
10 -5 0 -7 -8 -9 -20 -5 -18 6 -20 3 -15 -22 5 -24 4 -25 -4 -6 -10 23 -4 63
10 63 5 0 9 -7 9 -16z m-1383 0 c-3 -3 -12 -4 -19 -1 -8 3 -5 6 6 6 11 1 17
-2 13 -5z m514 -11 c13 -16 12 -17 -3 -4 -10 7 -18 15 -18 17 0 8 8 3 21 -13z
m486 11 c-3 -3 -12 -4 -19 -1 -8 3 -5 6 6 6 11 1 17 -2 13 -5z m113 -4 c0 -5
-4 -10 -10 -10 -5 0 -10 5 -10 10 0 6 5 10 10 10 6 0 10 -4 10 -10z m128 -29
c-7 -2 -16 -9 -20 -15 -4 -6 -8 4 -8 23 0 34 0 34 21 15 15 -13 17 -20 7 -23z
m1077 29 c4 -6 12 -7 18 -4 9 5 9 4 0 -6 -13 -14 -43 -7 -43 10 0 13 17 13 25
0z m-1443 -32 c-9 -9 -12 -7 -12 12 0 19 3 21 12 12 9 -9 9 -15 0 -24z m88 5
c0 -22 -2 -25 -10 -13 -13 20 -13 40 0 40 6 0 10 -12 10 -27z m198 9 c2 -7 -3
-12 -10 -12 -8 0 -15 7 -15 15 0 18 19 15 25 -3z m-1157 -16 c26 -8 85 -31
133 -51 64 -28 86 -42 86 -56 0 -11 -4 -19 -10 -19 -5 0 -10 6 -10 14 0 21
-32 25 -54 7 -18 -15 -18 -15 -7 7 10 19 9 22 -9 22 -11 0 -20 -7 -20 -15 0
-8 -4 -15 -10 -15 -5 0 -10 9 -10 19 0 16 -14 22 -77 35 -108 23 -170 34 -228
41 -94 12 -105 20 -40 25 93 9 205 3 256 -14z m1039 17 c0 -5 -5 -15 -10 -23
-7 -12 -9 -10 -7 8 1 19 17 33 17 15z m289 -17 c9 -10 7 -17 -6 -27 -16 -12
-17 -12 -6 2 10 12 10 18 1 27 -7 7 -9 12 -6 12 3 0 11 -6 17 -14z m118 -18
c-15 -9 -19 -4 -11 16 5 14 9 15 15 5 5 -8 3 -17 -4 -21z m459 17 c-23 -17
-36 -19 -36 -6 0 11 18 19 40 20 11 0 10 -3 -4 -14z m-1742 -10 c-4 -8 -11
-12 -16 -9 -6 4 -5 10 3 15 19 12 19 11 13 -6z m1333 9 c-3 -3 -12 -4 -19 -1
-8 3 -5 6 6 6 11 1 17 -2 13 -5z m908 -23 c-6 -5 -25 10 -25 20 0 5 6 4 14 -3
8 -7 12 -15 11 -17z m-2185 -5 c0 -10 -30 0 -34 11 -4 11 -1 11 14 3 11 -6 20
-12 20 -14z m544 -5 c-2 -3 -12 3 -22 13 -16 17 -16 18 5 5 12 -7 20 -15 17
-18z m137 -15 c-15 -18 -41 -10 -41 11 0 13 3 13 15 3 21 -17 31 -5 14 17 -12
17 -12 17 6 1 15 -14 16 -20 6 -32z m266 38 c-3 -3 -12 -4 -19 -1 -8 3 -5 6 6
6 11 1 17 -2 13 -5z m796 -1 c-15 -6 -17 -33 -3 -33 6 0 10 -9 10 -21 0 -11
-5 -17 -10 -14 -6 4 -8 10 -5 15 3 5 1 11 -5 15 -17 11 -12 45 8 44 10 0 12
-3 5 -6z m189 -24 l9 -24 -20 22 c-23 25 -27 37 -9 31 6 -2 15 -15 20 -29z
m156 6 c-3 -3 -9 2 -12 12 -6 14 -5 15 5 6 7 -7 10 -15 7 -18z m-1118 -5 c0
-5 -10 -10 -22 -10 -19 0 -20 2 -8 10 19 13 30 13 30 0z m1168 -4 c-7 -8 -15
-12 -17 -11 -5 6 10 25 20 25 5 0 4 -6 -3 -14z m-2093 -34 c-6 -7 -35 18 -35
31 0 5 9 2 20 -8 11 -10 18 -20 15 -23z m1205 23 c-7 -9 -15 -13 -17 -11 -7 7
7 26 19 26 6 0 6 -6 -2 -15z m434 -1 c5 -12 2 -15 -10 -10 -8 3 -18 6 -20 6
-3 0 -2 5 1 10 9 15 22 12 29 -6z m581 6 c3 -5 1 -10 -4 -10 -6 0 -11 5 -11
10 0 6 2 10 4 10 3 0 8 -4 11 -10z m-2035 -44 c0 -6 -7 -2 -15 8 -8 11 -15 25
-15 30 0 6 7 2 15 -8 8 -11 15 -25 15 -30z m1790 23 c0 -5 -4 -9 -10 -9 -5 0
-10 7 -10 16 0 8 5 12 10 9 6 -3 10 -10 10 -16z m50 4 c0 -10 -4 -14 -8 -8 -4
6 -11 13 -16 18 -5 4 -2 7 7 7 10 0 17 -8 17 -17z m-270 -19 c0 -16 -16 -19
-25 -4 -8 13 4 32 16 25 5 -4 9 -13 9 -21z m-90 4 c0 -5 -8 -8 -17 -8 -36 -1
-73 -49 -40 -51 6 0 -3 -5 -21 -10 -22 -7 -32 -15 -28 -24 2 -7 -2 -19 -10
-25 -8 -7 -14 -17 -14 -23 0 -5 -8 -16 -17 -23 -17 -13 -17 -15 -1 -24 10 -6
15 -17 11 -26 -4 -12 -8 -11 -20 6 -18 26 -33 17 -33 -21 0 -18 -4 -28 -10
-24 -19 11 -10 41 20 70 34 33 38 45 11 38 -17 -4 -18 -2 -8 30 6 20 15 33 19
31 5 -3 4 -14 -2 -24 -15 -28 -12 -32 11 -20 11 7 18 17 16 25 -3 7 6 18 19
26 14 7 27 23 30 35 3 12 12 25 21 28 8 3 12 10 9 14 -3 5 8 9 24 8 17 -1 30
-4 30 -8z m565 2 c3 -5 -1 -20 -9 -32 -13 -18 -16 -19 -16 -5 0 9 6 17 13 18
10 0 10 2 0 6 -15 6 -17 23 -4 23 6 0 13 -4 16 -10z m-2175 -14 c0 -3 -4 -8
-10 -11 -5 -3 -10 -1 -10 4 0 6 5 11 10 11 6 0 10 -2 10 -4z m2043 -12 c-4
-11 -8 -12 -13 -4 -4 7 -12 10 -18 6 -6 -3 -13 -2 -17 4 -4 6 6 10 24 10 24 0
29 -4 24 -16z m80 -11 c-8 -23 -33 -60 -33 -50 0 11 29 67 35 67 2 0 2 -8 -2
-17z m-2183 -2 c0 -12 -20 -25 -27 -18 -7 7 6 27 18 27 5 0 9 -4 9 -9z m1657
3 c-3 -3 -12 -4 -19 -1 -8 3 -5 6 6 6 11 1 17 -2 13 -5z m693 2 c0 -7 -61 -36
-74 -36 -15 0 45 38 62 39 6 1 12 -1 12 -3z m-2565 -16 c111 -18 136 -25 133
-35 -2 -5 -14 -9 -28 -8 -91 8 -307 -1 -438 -18 -40 -5 -90 -9 -110 -8 -57 1
-11 15 85 27 44 5 95 17 114 25 53 25 153 32 244 17z m226 -23 c-8 -8 -11 -7
-11 4 0 20 13 34 18 19 3 -7 -1 -17 -7 -23z m39 4 c0 -31 -15 -50 -22 -29 -6
18 3 58 13 58 5 0 9 -13 9 -29z m865 19 c3 -5 -1 -10 -10 -10 -9 0 -13 5 -10
10 3 6 8 10 10 10 2 0 7 -4 10 -10z m745 -57 c0 -41 -3 -54 -10 -43 -17 26
-12 100 7 100 2 0 3 -26 3 -57z m130 37 c0 -5 -5 -10 -11 -10 -5 0 -7 5 -4 10
3 6 8 10 11 10 2 0 4 -4 4 -10z m250 -14 c0 -3 -4 -8 -10 -11 -5 -3 -10 -1
-10 4 0 6 5 11 10 11 6 0 10 -2 10 -4z m-2080 -16 c0 -5 -5 -10 -11 -10 -5 0
-7 5 -4 10 3 6 8 10 11 10 2 0 4 -4 4 -10z m1647 4 c-3 -3 -12 -4 -19 -1 -8 3
-5 6 6 6 11 1 17 -2 13 -5z m190 0 c-3 -3 -12 -4 -19 -1 -8 3 -5 6 6 6 11 1
17 -2 13 -5z m189 -4 c9 0 12 -5 9 -10 -3 -6 -17 -7 -31 -4 -20 5 -23 3 -18
-10 5 -12 2 -15 -10 -10 -12 5 -13 10 -5 26 6 12 17 17 26 14 8 -3 21 -6 29
-6z m291 4 c-3 -3 -12 -4 -19 -1 -8 3 -5 6 6 6 11 1 17 -2 13 -5z m-657 -28
c0 -15 -18 -31 -26 -23 -7 7 7 37 17 37 5 0 9 -6 9 -14z m-45 -15 c-3 -6 -11
-11 -17 -11 -6 0 -6 6 2 15 14 17 26 13 15 -4z m222 13 c-3 -3 -12 -4 -19 -1
-8 3 -5 6 6 6 11 1 17 -2 13 -5z m392 -22 c-13 -2 -32 -10 -43 -18 -33 -22
-43 -16 -16 10 14 13 31 21 38 18 6 -2 12 1 12 8 0 9 4 9 17 -1 15 -13 14 -14
-8 -17z m-2558 8 c-19 -4 -59 -10 -90 -13 l-56 -5 60 13 c33 7 74 13 90 13
l30 0 -34 -8z m329 -27 c0 -19 -3 -24 -11 -16 -14 14 -102 4 -111 -12 -5 -7
-17 -11 -27 -8 -11 3 -70 -6 -133 -20 -62 -14 -153 -28 -203 -31 -49 -2 -79
-2 -65 0 70 14 197 47 229 59 20 7 65 18 101 24 36 6 88 15 115 20 93 16 105
14 105 -16z m1874 19 c2 -4 -7 -8 -22 -9 -24 -2 -24 -1 -7 7 11 5 21 9 22 9 1
1 4 -3 7 -7z m-354 -22 c0 -5 -5 -10 -11 -10 -5 0 -7 5 -4 10 3 6 8 10 11 10
2 0 4 -4 4 -10z m88 -3 c-1 -2 3 -11 11 -20 17 -21 5 -22 -15 -2 -9 8 -12 20
-9 26 4 5 9 8 12 5 2 -2 3 -6 1 -9z m-131 -51 c-3 -8 -16 -20 -29 -26 l-23
-11 23 17 c12 9 22 23 22 32 0 8 3 13 6 9 4 -3 4 -13 1 -21z m-1260 -38 c-3
-7 -5 -2 -5 12 0 14 2 19 5 13 2 -7 2 -19 0 -25z m858 12 c3 -5 1 -10 -4 -10
-6 0 -11 5 -11 10 0 6 2 10 4 10 3 0 8 -4 11 -10z m594 -25 c-29 -49 -42 -54
-16 -5 12 22 25 40 29 40 4 0 -2 -16 -13 -35z m-965 7 c3 -5 -16 -9 -42 -9
l-47 -1 40 8 c22 4 41 8 42 9 1 0 4 -3 7 -7z m86 -8 c0 -2 -7 -4 -15 -4 -8 0
-15 4 -15 10 0 5 7 7 15 4 8 -4 15 -8 15 -10z m1039 -15 c13 -11 21 -22 19
-25 -3 -3 -13 2 -21 11 -9 8 -20 15 -26 15 -6 0 -11 5 -11 10 0 15 12 12 39
-11z m-1804 -93 c-56 -66 -156 -154 -210 -185 l-40 -23 30 25 c17 15 34 26 38
27 5 0 5 5 1 12 -4 6 -3 8 2 5 5 -3 54 39 109 94 109 108 143 130 70 45z
m1802 2 c-3 -7 -5 -2 -5 12 0 14 2 19 5 13 2 -7 2 -19 0 -25z m-37 12 c0 -5
-4 -10 -10 -10 -5 0 -10 5 -10 10 0 6 5 10 10 10 6 0 10 -4 10 -10z m-267 -15
c-3 -9 -8 -14 -10 -11 -3 3 -2 9 2 15 9 16 15 13 8 -4z m-1214 2 c-2 -2 -17
-11 -32 -21 -27 -17 -28 -17 -15 4 7 11 21 20 32 20 11 0 17 -1 15 -3z m91 -7
c-8 -5 -19 -10 -25 -10 -5 0 -3 5 5 10 8 5 20 10 25 10 6 0 3 -5 -5 -10z
m-326 -12 c-20 -36 -94 -135 -113 -152 -30 -28 -26 -4 5 25 14 13 44 50 66 82
37 51 60 77 42 45z m241 -33 c-64 -58 -79 -58 -23 0 24 24 50 45 58 45 8 0 -7
-20 -35 -45z m182 39 c-3 -3 -12 -4 -19 -1 -8 3 -5 6 6 6 11 1 17 -2 13 -5z
m1256 -2 c-7 -4 -16 -19 -22 -32 -9 -22 -10 -23 -10 -4 -1 21 16 44 34 44 6 0
5 -4 -2 -8z m-1373 -32 c0 -6 -12 -15 -26 -20 -14 -6 -23 -14 -19 -20 3 -5 -9
-17 -27 -26 l-33 -16 30 33 c51 57 75 73 75 49z m50 5 c0 -6 -78 -85 -85 -85
-3 0 11 20 32 45 33 40 53 55 53 40z m140 -4 c0 -5 -9 -11 -21 -14 -16 -4 -18
-3 -8 9 13 16 29 19 29 5z m40 0 c0 -5 -7 -12 -16 -15 -14 -5 -15 -4 -4 9 14
17 20 19 20 6z m-140 -11 c0 -5 -7 -10 -15 -10 -8 0 -15 5 -15 10 0 6 7 10 15
10 8 0 15 -4 15 -10z m50 3 c0 -5 -11 -13 -24 -19 -23 -11 -24 -10 -13 7 12
19 37 26 37 12z m130 -3 c0 -5 -4 -10 -10 -10 -5 0 -10 5 -10 10 0 6 5 10 10
10 6 0 10 -4 10 -10z m40 0 c0 -5 -4 -10 -10 -10 -5 0 -10 5 -10 10 0 6 5 10
10 10 6 0 10 -4 10 -10z m-160 -27 c0 -13 -41 -75 -46 -70 -3 2 5 21 17 41 21
35 29 44 29 29z m-107 -23 c-10 -11 -22 -20 -27 -20 -5 0 -1 9 9 20 10 11 22
20 26 20 5 0 1 -9 -8 -20z m157 13 c-1 -5 -12 -21 -27 -38 -26 -30 -26 -30 11
33 8 13 16 16 16 5z m31 -16 c-10 -9 -11 -8 -5 6 3 10 9 15 12 12 3 -3 0 -11
-7 -18z m131 1 c-7 -7 -12 -8 -12 -2 0 14 12 26 19 19 2 -3 -1 -11 -7 -17z
m-262 3 c0 -5 -12 -16 -26 -26 -26 -17 -26 -10 -1 23 11 14 27 16 27 3z m166
-19 c-18 -16 -18 -16 -6 6 6 13 14 21 18 18 3 -4 -2 -14 -12 -24z m184 19 c0
-6 -4 -13 -10 -16 -5 -3 -10 1 -10 9 0 9 5 16 10 16 6 0 10 -4 10 -9z m-140
-31 c0 -5 -5 -10 -11 -10 -5 0 -7 5 -4 10 3 6 8 10 11 10 2 0 4 -4 4 -10z
m-925 -79 c-7 -12 -97 -62 -102 -57 -3 3 94 63 105 65 2 1 1 -3 -3 -8z"/>
<path d="M2468 1503 c7 -3 16 -2 19 1 4 3 -2 6 -13 5 -11 0 -14 -3 -6 -6z"/>
<path d="M2470 1486 c0 -2 7 -7 16 -10 8 -3 12 -2 9 4 -6 10 -25 14 -25 6z"/>
<path d="M2590 1476 c0 -2 7 -7 16 -10 8 -3 12 -2 9 4 -6 10 -25 14 -25 6z"/>
<path d="M2630 1467 c0 -2 15 -16 33 -33 l32 -29 -29 33 c-28 30 -36 37 -36
29z"/>
<path d="M2567 1323 c-4 -3 -7 -11 -7 -17 0 -6 5 -5 12 2 6 6 9 14 7 17 -3 3
-9 2 -12 -2z"/>
<path d="M2420 1286 c-13 -11 -20 -16 -17 -10 9 16 -65 12 -82 -4 -8 -8 -17
-10 -20 -5 -3 4 -13 9 -22 10 -11 2 -15 -6 -16 -33 -1 -27 2 -34 14 -30 8 3
22 6 31 6 21 0 48 17 41 24 -3 3 -20 2 -37 -3 -39 -12 -42 -5 -4 11 42 17 62
17 60 -1 -2 -10 3 -15 14 -13 9 1 19 -2 23 -8 4 -6 -6 -10 -24 -10 -16 0 -33
-5 -36 -11 -4 -5 -12 -8 -18 -6 -6 2 -22 -2 -35 -9 -14 -7 -31 -10 -38 -7 -9
3 -14 -2 -14 -12 0 -11 6 -15 18 -11 61 18 143 36 154 34 8 -2 13 7 13 22 0
14 7 30 15 37 13 11 13 12 1 13 -20 0 -2 17 24 22 19 4 19 4 -1 10 -15 4 -30
-2 -44 -16z"/>
<path d="M2490 1299 c0 -5 5 -7 10 -4 6 3 10 8 10 11 0 2 -4 4 -10 4 -5 0 -10
-5 -10 -11z"/>
<path d="M2780 1301 c0 -6 -9 -8 -20 -6 -11 2 -22 -1 -26 -6 -9 -15 2 -22 18
-13 7 5 21 7 31 6 9 -2 17 2 17 8 0 6 4 9 9 5 5 -3 12 -1 16 5 4 6 -5 10 -19
10 -14 0 -26 -4 -26 -9z"/>
<path d="M2183 1255 c-17 -19 -16 -25 2 -25 8 0 15 -7 15 -15 0 -9 9 -15 25
-15 25 0 33 14 15 25 -16 10 -12 25 5 19 8 -4 15 -2 15 4 0 23 -58 29 -77 7z"/>
<path d="M2175 1179 c-4 -6 -5 -13 -2 -16 7 -7 27 6 27 18 0 12 -17 12 -25 -2z"/>
<path d="M2361 1167 c-5 -5 -7 -17 -3 -26 9 -24 30 -42 36 -32 3 5 -1 12 -10
15 -13 5 -14 9 -4 21 7 8 19 15 26 15 8 0 14 4 14 10 0 12 -47 9 -59 -3z"/>
<path d="M1030 1150 c0 -5 5 -10 11 -10 5 0 7 5 4 10 -3 6 -8 10 -11 10 -2 0
-4 -4 -4 -10z"/>
<path d="M2045 1149 c-4 -6 -1 -15 6 -20 7 -4 10 -11 6 -16 -5 -4 -16 3 -26
16 -22 29 -44 24 -45 -11 -1 -15 1 -26 4 -26 25 2 30 -3 20 -22 -8 -14 -8 -20
0 -20 6 0 15 11 20 25 7 18 17 25 35 25 30 0 31 4 6 36 -13 17 -22 21 -26 13z"/>
<path d="M2294 1152 c-15 -10 -12 -52 4 -52 8 0 12 6 9 14 -3 8 1 17 9 20 9 3
12 10 9 16 -7 12 -16 12 -31 2z"/>
<path d="M1380 1135 c0 -8 5 -15 10 -15 6 0 10 7 10 15 0 8 -4 15 -10 15 -5 0
-10 -7 -10 -15z"/>
<path d="M2250 1123 c0 -13 5 -23 10 -23 13 0 13 11 0 30 -8 12 -10 11 -10 -7z"/>
<path d="M1700 1097 c0 -14 6 -27 14 -30 11 -4 14 1 13 20 -3 35 -27 43 -27
10z"/>
<path d="M1430 1100 c0 -5 -7 -7 -15 -4 -18 7 -19 -5 -2 -26 20 -25 53 -23 53
3 0 21 -12 37 -28 37 -5 0 -8 -4 -8 -10z"/>
<path d="M1530 1089 c0 -22 37 -33 104 -30 23 1 26 4 17 15 -7 8 -21 12 -31 9
-14 -4 -20 0 -20 11 0 11 -9 15 -35 14 -27 -1 -35 -6 -35 -19z"/>
<path d="M2151 1074 c0 -11 3 -14 6 -6 3 7 2 16 -1 19 -3 4 -6 -2 -5 -13z"/>
<path d="M2195 1077 c-12 -10 -14 -16 -7 -21 17 -10 15 -26 -4 -26 -11 0 -14
-6 -8 -22 9 -30 10 -31 24 -23 9 6 9 10 -1 16 -11 8 -11 11 4 20 15 8 16 14 6
25 -10 12 -8 17 7 29 10 8 14 15 8 15 -5 0 -18 -6 -29 -13z"/>
<path d="M2110 1069 c0 -5 5 -7 10 -4 6 3 10 8 10 11 0 2 -4 4 -10 4 -5 0 -10
-5 -10 -11z"/>
<path d="M1864 1049 c-3 -5 2 -9 10 -9 9 0 16 -4 16 -10 0 -5 7 -10 15 -10 23
0 18 14 -10 27 -14 6 -27 7 -31 2z"/>
<path d="M1587 1044 c-9 -9 12 -34 29 -34 8 0 14 5 14 10 0 6 -6 10 -14 10 -8
0 -16 5 -18 11 -2 5 -7 7 -11 3z"/>
<path d="M1974 1024 c10 -37 14 -40 28 -26 9 9 9 12 0 12 -7 0 -12 7 -10 16 2
10 -3 19 -11 22 -11 4 -12 -2 -7 -24z"/>
<path d="M2090 1033 c0 -13 5 -23 10 -23 13 0 13 11 0 30 -8 12 -10 11 -10 -7z"/>
<path d="M2275 1040 c-4 -6 -2 -17 5 -25 7 -9 8 -15 0 -20 -15 -9 -12 -25 4
-19 8 3 16 13 19 23 5 22 -18 57 -28 41z"/>
<path d="M1253 1033 c-16 -6 -17 -29 -1 -39 6 -4 8 -3 4 4 -3 6 1 15 10 20 18
10 7 22 -13 15z"/>
<path d="M1415 1029 c-10 -15 3 -25 16 -12 7 7 7 13 1 17 -6 3 -14 1 -17 -5z"/>
<path d="M1555 1030 c3 -5 8 -10 11 -10 2 0 4 5 4 10 0 6 -5 10 -11 10 -5 0
-7 -4 -4 -10z"/>
<path d="M1820 1024 c0 -8 5 -12 10 -9 6 3 10 10 10 16 0 5 -4 9 -10 9 -5 0
-10 -7 -10 -16z"/>
<path d="M2350 1029 c0 -5 5 -7 10 -4 6 3 10 8 10 11 0 2 -4 4 -10 4 -5 0 -10
-5 -10 -11z"/>
<path d="M1941 1008 c1 -13 -1 -30 -5 -39 -5 -12 0 -18 20 -23 15 -4 32 -2 37
3 8 8 4 11 -12 11 -18 0 -22 4 -18 20 3 11 1 23 -4 26 -5 3 -7 10 -4 15 4 5 1
9 -4 9 -6 0 -10 -10 -10 -22z"/>
<path d="M2240 1019 c0 -5 5 -7 10 -4 6 3 10 8 10 11 0 2 -4 4 -10 4 -5 0 -10
-5 -10 -11z"/>
<path d="M1286 1012 c-3 -6 3 -12 15 -15 12 -3 19 -1 16 6 -5 15 -24 20 -31 9z"/>
<path d="M1678 994 c3 -15 -1 -29 -7 -34 -8 -5 -4 -12 14 -24 20 -13 30 -15
38 -7 9 9 6 13 -11 18 -17 4 -20 9 -12 18 7 9 8 15 1 19 -6 4 -8 13 -4 21 3 9
-1 15 -10 15 -10 0 -13 -8 -9 -26z"/>
<path d="M1719 1015 c-11 -10 2 -45 17 -45 8 0 14 5 14 10 0 6 -4 10 -9 10 -5
0 -11 7 -13 16 -2 9 -6 13 -9 9z"/>
<path d="M2069 1018 c-1 -2 -3 -16 -5 -31 -2 -22 0 -27 12 -23 9 3 18 6 20 6
2 0 4 5 4 10 0 6 -7 10 -15 10 -9 0 -12 6 -9 15 5 12 -2 23 -7 13z"/>
<path d="M2135 1010 c4 -6 11 -8 16 -5 14 9 11 15 -7 15 -8 0 -12 -5 -9 -10z"/>
<path d="M1370 1000 c0 -5 -8 -10 -17 -11 -14 0 -13 -3 5 -11 12 -6 22 -15 22
-21 0 -5 7 -7 14 -4 10 4 13 1 9 -9 -3 -7 0 -14 6 -14 17 0 13 30 -4 36 -10 4
-13 13 -10 25 4 13 1 19 -9 19 -9 0 -16 -4 -16 -10z"/>
<path d="M1507 993 c6 -16 5 -16 -10 -4 -15 12 -17 11 -17 -6 0 -16 5 -19 25
-15 27 5 36 42 10 42 -10 0 -12 -6 -8 -17z"/>
<path d="M1910 990 c0 -5 5 -10 10 -10 6 0 10 5 10 10 0 6 -4 10 -10 10 -5 0
-10 -4 -10 -10z"/>
<path d="M2030 984 c0 -8 5 -12 10 -9 6 3 10 10 10 16 0 5 -4 9 -10 9 -5 0
-10 -7 -10 -16z"/>
<path d="M2220 989 c0 -5 5 -7 10 -4 6 3 10 8 10 11 0 2 -4 4 -10 4 -5 0 -10
-5 -10 -11z"/>
<path d="M1832 979 c2 -6 8 -10 13 -10 5 0 11 4 13 10 2 6 -4 11 -13 11 -9 0
-15 -5 -13 -11z"/>
<path d="M1750 965 c-10 -12 -9 -16 5 -21 11 -5 21 -1 27 9 4 9 15 14 23 11 8
-4 15 -1 15 5 0 16 -56 13 -70 -4z"/>
<path d="M2127 973 c-14 -13 -6 -20 18 -15 16 3 25 0 25 -8 0 -7 7 -10 15 -7
8 4 17 2 20 -3 8 -13 35 -13 35 0 0 6 -6 10 -14 10 -7 0 -27 7 -42 15 -32 16
-47 19 -57 8z"/>
<path d="M2310 970 c-8 -5 -11 -12 -8 -16 10 -9 38 3 38 16 0 12 -10 13 -30 0z"/>
<path d="M2015 949 c-10 -14 -1 -21 19 -13 9 3 13 10 10 15 -7 12 -21 11 -29
-2z"/>
<path d="M2257 953 c-11 -10 -8 -33 3 -33 6 0 10 6 10 14 0 8 6 17 13 19 8 4
6 6 -4 6 -9 1 -19 -2 -22 -6z"/>
<path d="M1342 939 c5 -17 48 -25 48 -10 0 6 -4 11 -9 11 -5 0 -17 3 -27 7
-12 4 -15 2 -12 -8z"/>
<path d="M2130 931 c0 -9 41 -23 48 -16 2 2 1 8 -3 14 -8 13 -45 15 -45 2z"/>
<path d="M1645 919 c-10 -15 0 -21 27 -17 l23 3 -22 13 c-15 8 -24 9 -28 1z"/>
<path d="M1535 910 c-3 -5 -2 -10 4 -10 5 0 13 5 16 10 3 6 2 10 -4 10 -5 0
-13 -4 -16 -10z"/>
</g>
</svg>
