<?xml version="1.0" encoding="UTF-8"?>
<svg version="1.1" xmlns="http://www.w3.org/2000/svg" width="225" height="225">
<path d="M0 0 C2.97 0.495 2.97 0.495 6 1 C5.01 2.485 5.01 2.485 4 4 C7.4805507 4.69571879 7.4805507 4.69571879 11 5 C10.67 4.01 10.34 3.02 10 2 C12.97 2.66 15.94 3.32 19 4 C18.67 4.66 18.34 5.32 18 6 C20.1385485 8.1385485 21.13275314 8.42655063 24 9 C24.33 8.01 24.66 7.02 25 6 C33.44646925 10.03872437 33.44646925 10.03872437 37 13 C37 12.34 37 11.68 37 11 C37.99 11.33 38.98 11.66 40 12 C39.67 12.33 39.34 12.66 39 13 C41.31 13 43.62 13 46 13 C45.67 13.66 45.34 14.32 45 15 C46.32 15.33 47.64 15.66 49 16 C49.33 15.34 49.66 14.68 50 14 C51.98 14.33 53.96 14.66 56 15 C55.67 15.66 55.34 16.32 55 17 C57.86724686 16.42655063 58.8614515 16.1385485 61 14 C61.99 14.66 62.98 15.32 64 16 C63.505 16.495 63.505 16.495 63 17 C64.32 17 65.64 17 67 17 C67.33 16.34 67.66 15.68 68 15 C71.41021743 15.78697325 74.68885166 16.87119943 78 18 C78.33 17.34 78.66 16.68 79 16 C82 16 85 16 88 16 C86.68 17.32 85.36 18.64 84 20 C86.31 20.33 88.62 20.66 91 21 C91 20.34 91 19.68 91 19 C92.65 19 94.3 19 96 19 C95.67 19.66 95.34 20.32 95 21 C96.98 21.495 96.98 21.495 99 22 C99.495 20.515 99.495 20.515 100 19 C102.64 19.33 105.28 19.66 108 20 C108.495 18.515 108.495 18.515 109 17 C110.32 17 111.64 17 113 17 C113.4021875 16.071875 113.4021875 16.071875 113.8125 15.125 C115 13 115 13 118 11 C120.21389829 10.39896659 122.44602579 9.86324191 124.6875 9.375 C125.86699219 9.11460938 127.04648438 8.85421875 128.26171875 8.5859375 C129.61716797 8.29589844 129.61716797 8.29589844 131 8 C131 7.34 131 6.68 131 6 C131.56847656 6.01160156 132.13695312 6.02320312 132.72265625 6.03515625 C137.60670484 6.09223194 142.18503965 5.81956772 147 5 C147 4.67 147 4.34 147 4 C149.64 4 152.28 4 155 4 C154.02133662 5.14626322 153.04205413 6.29199788 152.0625 7.4375 C151.51722656 8.07558594 150.97195312 8.71367188 150.41015625 9.37109375 C149.63204305 10.26991149 148.84063472 11.15936528 148 12 C149.98 12.33 151.96 12.66 154 13 C154 11.68 154 10.36 154 9 C154.99 9 155.98 9 157 9 C157.33 10.65 157.66 12.3 158 14 C157.195625 14.144375 156.39125 14.28875 155.5625 14.4375 C153.07896294 14.74135249 153.07896294 14.74135249 152 16 C153.98 16.33 155.96 16.66 158 17 C157.67 17.66 157.34 18.32 157 19 C157.99 19.99 157.99 19.99 159 21 C157 23 157 23 153.9609375 23.1953125 C152.77757812 23.17210938 151.59421875 23.14890625 150.375 23.125 C149.18648437 23.10695313 147.99796875 23.08890625 146.7734375 23.0703125 C145.85820312 23.04710938 144.94296875 23.02390625 144 23 C144.33 21.68 144.66 20.36 145 19 C141.97580475 19.58803797 138.98241547 20.22678118 136 21 C136 20.01 136 19.02 136 18 C135.236875 17.87625 134.47375 17.7525 133.6875 17.625 C131 17 131 17 128 15 C127.649375 15.45375 127.29875 15.9075 126.9375 16.375 C122.86068523 19.794264 117.1356609 20.24843987 112 21 C112 21.66 112 22.32 112 23 C110.68 23.33 109.36 23.66 108 24 C111.27131978 26.82523072 114.1014306 29.12291103 118 31 C118.495 31.99 118.495 31.99 119 33 C120.88764903 33.68472665 120.88764903 33.68472665 123.0625 34.125 C123.79597656 34.29257813 124.52945313 34.46015625 125.28515625 34.6328125 C125.85105469 34.75398438 126.41695312 34.87515625 127 35 C127 35.66 127 36.32 127 37 C127.62648437 37.12117188 128.25296875 37.24234375 128.8984375 37.3671875 C129.71570313 37.53476563 130.53296875 37.70234375 131.375 37.875 C132.18710938 38.03742188 132.99921875 38.19984375 133.8359375 38.3671875 C136 39 136 39 138 41 C137.67 41.66 137.34 42.32 137 43 C138.65 43.33 140.3 43.66 142 44 C141.34 45.32 140.68 46.64 140 48 C142.31 48 144.62 48 147 48 C146.01 49.32 145.02 50.64 144 52 C147.62885324 52.15149298 147.62885324 52.15149298 151 51 C151.33 51.99 151.66 52.98 152 54 C151.01 54.33 150.02 54.66 149 55 C149.94875 55.0825 150.8975 55.165 151.875 55.25 C155 56 155 56 156.375 58.0625 C156.58125 58.701875 156.7875 59.34125 157 60 C157.66 59.67 158.32 59.34 159 59 C159 59.66 159 60.32 159 61 C159.99 61.33 160.98 61.66 162 62 C164.625 62.875 164.625 62.875 167 64 C167.33 64.99 167.66 65.98 168 67 C165.03 68.485 165.03 68.485 162 70 C162.66 70.66 163.32 71.32 164 72 C160.03446763 73.19610025 156.43749542 72.9516915 152.33984375 72.7421875 C149.91126038 72.79175091 149.91126038 72.79175091 148.19140625 74.5078125 C147.60166016 75.24644531 147.60166016 75.24644531 147 76 C146.34 74.68 145.68 73.36 145 72 C144.34 72 143.68 72 143 72 C143 71.01 143 70.02 143 69 C145 69.66666667 147 70.33333333 149 71 C149 70.01 149 69.02 149 68 C147.02 68 145.04 68 143 68 C143.66 66.35 144.32 64.7 145 63 C143.88625 62.855625 142.7725 62.71125 141.625 62.5625 C138 62 138 62 136 61 C135.32421875 58.92578125 135.32421875 58.92578125 134.6875 56.3125 C132.54376255 48.86248174 128.64454246 45.15263033 122.1171875 41.359375 C119.08969859 39.41552603 116.56035729 37.02257082 113.95703125 34.55078125 C110.27825093 31.63565992 106.30760608 30.74627468 101.75 30 C98.2850776 29.4163366 94.90348141 28.74423446 91.5 27.875 C86.35324816 26.67938433 81.25460086 26.82320969 76 27 C76.33 26.34 76.66 25.68 77 25 C76.01 25 75.02 25 74 25 C74 25.66 74 26.32 74 27 C72.3603125 27.4640625 72.3603125 27.4640625 70.6875 27.9375 C68.44592006 28.58337897 66.2130649 29.2623117 64 30 C64 29.01 64 28.02 64 27 C60.00499382 28.3697164 57.19990508 30.25722422 54 33 C53.34 32.34 52.68 31.68 52 31 C52.66 30.67 53.32 30.34 54 30 C54.495 28.515 54.495 28.515 55 27 C57.5625 25.8125 57.5625 25.8125 60 25 C57.58354218 24.83312552 57.58354218 24.83312552 55 25 C54.34 25.66 53.68 26.32 53 27 C50.875 26.625 50.875 26.625 49 26 C49.33 25.34 49.66 24.68 50 24 C49.01 24.33 48.02 24.66 47 25 C45.68 25 44.36 25 43 25 C42.4225 24.360625 41.845 23.72125 41.25 23.0625 C38.55130144 20.58869299 36.71999475 20.6071585 33.16015625 20.34765625 C29.99637326 19.83847599 27.52249309 18.41342912 24.76171875 16.83984375 C22.87393953 15.784839 22.87393953 15.784839 20 16 C18 16 16 16 14 16 C14 15.01 14 14.02 14 13 C8.71905109 11.63161149 8.71905109 11.63161149 3.375 10.5625 C0.31343842 9.83739331 -2.2356945 8.47858201 -5 7 C-5 6.01 -5 5.02 -5 4 C-3.02 3.67 -1.04 3.34 1 3 C0.67 2.01 0.34 1.02 0 0 Z M141 10 C140.01 11.485 140.01 11.485 139 13 C141.475 13.99 141.475 13.99 144 15 C144 15.33 144 15.66 144 16 C145.65 16 147.3 16 149 16 C149 15.34 149 14.68 149 14 C147.68 13.34 146.36 12.68 145 12 C145 11.34 145 10.68 145 10 C143.68 10 142.36 10 141 10 Z M60 19 C64 20 64 20 64 20 Z M68 19 C68 19.33 68 19.66 68 20 C69.65 20 71.3 20 73 20 C73 19.67 73 19.34 73 19 C71.35 19 69.7 19 68 19 Z M63 24 C62.67 24.66 62.34 25.32 62 26 C64.475 26.495 64.475 26.495 67 27 C67.33 26.34 67.66 25.68 68 25 C66.35 24.67 64.7 24.34 63 24 Z M101 26 C105 27 105 27 105 27 Z M135 52 C139 53 139 53 139 53 Z M142 55 C141.01 55.66 140.02 56.32 139 57 C140.65 57 142.3 57 144 57 C143.34 56.34 142.68 55.68 142 55 Z M144 59 C143.67 59.66 143.34 60.32 143 61 C145.475 61.99 145.475 61.99 148 63 C148 61.68 148 60.36 148 59 C146.68 59 145.36 59 144 59 Z M147 64 C147.99 65.485 147.99 65.485 149 67 C151.58380177 67.25030977 151.58380177 67.25030977 154 67 C153.67 66.01 153.34 65.02 153 64 C151.02 64 149.04 64 147 64 Z " fill="#765A41" transform="translate(40,73)"/>
<path d="M0 0 C5.31095142 0.46587293 10.30649982 1.29152379 15.5 2.5 C23.6382373 4.215049 31.68930898 4.44650231 39.9921875 4.53320312 C45.12552278 4.63379313 49.51153152 4.99680823 54.3984375 6.63671875 C58.49437462 8.00763731 60.75575024 8.14320716 64.8125 6.3125 C65.68519531 5.93738281 66.55789062 5.56226562 67.45703125 5.17578125 C68.29621094 4.78777344 69.13539063 4.39976563 70 4 C71.6636345 3.32580234 73.32943228 2.65683004 75 2 C75.495 3.485 75.495 3.485 76 5 C74.68 5.33 73.36 5.66 72 6 C75.27131978 8.82523072 78.1014306 11.12291103 82 13 C82.495 13.99 82.495 13.99 83 15 C84.88764903 15.68472665 84.88764903 15.68472665 87.0625 16.125 C87.79597656 16.29257813 88.52945313 16.46015625 89.28515625 16.6328125 C89.85105469 16.75398438 90.41695313 16.87515625 91 17 C91 17.66 91 18.32 91 19 C91.62648438 19.12117188 92.25296875 19.24234375 92.8984375 19.3671875 C93.71570313 19.53476563 94.53296875 19.70234375 95.375 19.875 C96.18710938 20.03742188 96.99921875 20.19984375 97.8359375 20.3671875 C100 21 100 21 102 23 C101.67 23.66 101.34 24.32 101 25 C102.65 25.33 104.3 25.66 106 26 C105.34 27.32 104.68 28.64 104 30 C106.31 30 108.62 30 111 30 C110.01 31.32 109.02 32.64 108 34 C111.62885324 34.15149298 111.62885324 34.15149298 115 33 C115.33 33.99 115.66 34.98 116 36 C114.515 36.495 114.515 36.495 113 37 C113.94875 37.0825 114.8975 37.165 115.875 37.25 C119 38 119 38 120.375 40.0625 C120.684375 41.0215625 120.684375 41.0215625 121 42 C121.66 41.67 122.32 41.34 123 41 C123 41.66 123 42.32 123 43 C124.485 43.495 124.485 43.495 126 44 C128.625 44.875 128.625 44.875 131 46 C131.33 46.99 131.66 47.98 132 49 C130.02 49.99 128.04 50.98 126 52 C126.66 52.66 127.32 53.32 128 54 C124.03446763 55.19610025 120.43749542 54.9516915 116.33984375 54.7421875 C113.91126038 54.79175091 113.91126038 54.79175091 112.19140625 56.5078125 C111.79824219 57.00023437 111.40507812 57.49265625 111 58 C110.01 56.02 110.01 56.02 109 54 C108.34 54 107.68 54 107 54 C107 53.01 107 52.02 107 51 C109 51.66666667 111 52.33333333 113 53 C113 52.01 113 51.02 113 50 C111.02 50 109.04 50 107 50 C107.66 48.35 108.32 46.7 109 45 C107.88625 44.855625 106.7725 44.71125 105.625 44.5625 C102 44 102 44 100 43 C99.32421875 40.92578125 99.32421875 40.92578125 98.6875 38.3125 C96.54376255 30.86248174 92.64454246 27.15263033 86.1171875 23.359375 C83.08969859 21.41552603 80.56035729 19.02257082 77.95703125 16.55078125 C74.27825093 13.63565992 70.30760608 12.74627468 65.75 12 C62.2850776 11.4163366 58.90348141 10.74423446 55.5 9.875 C50.35324816 8.67938433 45.25460086 8.82320969 40 9 C40.33 8.34 40.66 7.68 41 7 C40.01 7 39.02 7 38 7 C38 7.66 38 8.32 38 9 C36.906875 9.309375 35.81375 9.61875 34.6875 9.9375 C32.44592006 10.58337897 30.2130649 11.2623117 28 12 C28 11.01 28 10.02 28 9 C24.00499382 10.3697164 21.19990508 12.25722422 18 15 C17.34 14.34 16.68 13.68 16 13 C16.66 12.67 17.32 12.34 18 12 C18.33 11.01 18.66 10.02 19 9 C21.5625 7.8125 21.5625 7.8125 24 7 C21.58354218 6.83312552 21.58354218 6.83312552 19 7 C18.34 7.66 17.68 8.32 17 9 C14.875 8.625 14.875 8.625 13 8 C13.33 7.34 13.66 6.68 14 6 C13.01 6.33 12.02 6.66 11 7 C7 7 7 7 4.9375 5.0625 C4.298125 4.381875 3.65875 3.70125 3 3 C2.01 2.67 1.02 2.34 0 2 C0 1.34 0 0.68 0 0 Z M27 6 C26.67 6.66 26.34 7.32 26 8 C28.475 8.495 28.475 8.495 31 9 C31.33 8.34 31.66 7.68 32 7 C30.35 6.67 28.7 6.34 27 6 Z M65 8 C69 9 69 9 69 9 Z M99 34 C103 35 103 35 103 35 Z M106 37 C105.01 37.66 104.02 38.32 103 39 C104.65 39 106.3 39 108 39 C107.34 38.34 106.68 37.68 106 37 Z M108 41 C107.67 41.66 107.34 42.32 107 43 C109.475 43.99 109.475 43.99 112 45 C112 43.68 112 42.36 112 41 C110.68 41 109.36 41 108 41 Z M111 46 C111.99 47.485 111.99 47.485 113 49 C115.58380177 49.25030977 115.58380177 49.25030977 118 49 C117.67 48.01 117.34 47.02 117 46 C115.02 46 113.04 46 111 46 Z " fill="#846950" transform="translate(76,91)"/>
<path d="M0 0 C2.64 0 5.28 0 8 0 C7.02133662 1.14626322 6.04205413 2.29199788 5.0625 3.4375 C4.51722656 4.07558594 3.97195312 4.71367188 3.41015625 5.37109375 C2.63204305 6.26991149 1.84063472 7.15936528 1 8 C2.98 8.33 4.96 8.66 7 9 C7 7.68 7 6.36 7 5 C7.99 5 8.98 5 10 5 C10.495 7.475 10.495 7.475 11 10 C10.195625 10.144375 9.39125 10.28875 8.5625 10.4375 C6.07896294 10.74135249 6.07896294 10.74135249 5 12 C6.98 12.33 8.96 12.66 11 13 C10.67 13.66 10.34 14.32 10 15 C10.66 15.66 11.32 16.32 12 17 C10 19 10 19 6.9609375 19.1953125 C5.77757812 19.17210938 4.59421875 19.14890625 3.375 19.125 C2.18648437 19.10695313 0.99796875 19.08890625 -0.2265625 19.0703125 C-1.14179688 19.04710938 -2.05703125 19.02390625 -3 19 C-2.67 17.68 -2.34 16.36 -2 15 C-5.02419525 15.58803797 -8.01758453 16.22678118 -11 17 C-11 16.01 -11 15.02 -11 14 C-11.763125 13.87625 -12.52625 13.7525 -13.3125 13.625 C-16 13 -16 13 -19 11 C-19.350625 11.45375 -19.70125 11.9075 -20.0625 12.375 C-25.40774448 16.85810828 -32.41963343 16.23832314 -39 16 C-38.67 15.01 -38.34 14.02 -38 13 C-36.68 13 -35.36 13 -34 13 C-33.731875 12.38125 -33.46375 11.7625 -33.1875 11.125 C-32 9 -32 9 -29 7 C-26.78610171 6.39896659 -24.55397421 5.86324191 -22.3125 5.375 C-21.13300781 5.11460938 -19.95351562 4.85421875 -18.73828125 4.5859375 C-17.38283203 4.29589844 -17.38283203 4.29589844 -16 4 C-16 3.34 -16 2.68 -16 2 C-15.43152344 2.01160156 -14.86304688 2.02320312 -14.27734375 2.03515625 C-9.39329516 2.09223194 -4.81496035 1.81956772 0 1 C0 0.67 0 0.34 0 0 Z M-6 6 C-6.99 7.485 -6.99 7.485 -8 9 C-5.525 9.99 -5.525 9.99 -3 11 C-3 11.33 -3 11.66 -3 12 C-1.35 12 0.3 12 2 12 C2 11.34 2 10.68 2 10 C0.68 9.34 -0.64 8.68 -2 8 C-2 7.34 -2 6.68 -2 6 C-3.32 6 -4.64 6 -6 6 Z " fill="#F4F4F4" transform="translate(187,77)"/>
<path d="M0 0 C0.66 0.33 1.32 0.66 2 1 C0.68 2.32 -0.64 3.64 -2 5 C0.31 5.33 2.62 5.66 5 6 C5 5.34 5 4.68 5 4 C6.65 4 8.3 4 10 4 C9.67 4.66 9.34 5.32 9 6 C10.32 6.33 11.64 6.66 13 7 C13.33 6.01 13.66 5.02 14 4 C17.63 4 21.26 4 25 4 C20.75819458 8.24180542 14.14671655 11.84633209 8 12 C6.70853525 11.53854481 5.42714875 11.04863097 4.15234375 10.54296875 C-1.81206387 8.4941677 -7.68209479 8.47689142 -13.9375 8.375 C-16.17587187 8.3241568 -18.41416476 8.26966134 -20.65234375 8.2109375 C-22.12175415 8.18459229 -22.12175415 8.18459229 -23.62084961 8.15771484 C-26 8 -26 8 -28 7 C-28 6.34 -28 5.68 -28 5 C-26.81921875 4.96261719 -25.6384375 4.92523438 -24.421875 4.88671875 C-22.86455212 4.82104851 -21.30726186 4.75460153 -19.75 4.6875 C-18.97269531 4.66494141 -18.19539063 4.64238281 -17.39453125 4.61914062 C-12.91981849 4.40879088 -10.45653795 4.06430669 -7 1 C-3.8125 0.875 -3.8125 0.875 -1 1 C-0.67 0.67 -0.34 0.34 0 0 Z " fill="#441E08" transform="translate(126,88)"/>
<path d="M0 0 C2.97 0.495 2.97 0.495 6 1 C5.01 2.485 5.01 2.485 4 4 C7.4805507 4.69571879 7.4805507 4.69571879 11 5 C10.67 4.01 10.34 3.02 10 2 C12.97 2.66 15.94 3.32 19 4 C18.67 4.66 18.34 5.32 18 6 C18.66 6.66 19.32 7.32 20 8 C19.01 8.99 18.02 9.98 17 11 C17.80824219 11.25394531 18.61648437 11.50789063 19.44921875 11.76953125 C20.51785156 12.11371094 21.58648437 12.45789063 22.6875 12.8125 C24.27111328 13.31716797 24.27111328 13.31716797 25.88671875 13.83203125 C28.88054997 14.9551875 31.39020494 16.15522835 34 18 C34 18.66 34 19.32 34 20 C31.24639085 19.44927817 29.03962338 18.57878218 26.4375 17.4375 C23.15970417 15.80709693 23.15970417 15.80709693 20 16 C18 16 16 16 14 16 C14 15.01 14 14.02 14 13 C8.71905109 11.63161149 8.71905109 11.63161149 3.375 10.5625 C0.31343842 9.83739331 -2.2356945 8.47858201 -5 7 C-5 6.01 -5 5.02 -5 4 C-3.02 3.67 -1.04 3.34 1 3 C0.67 2.01 0.34 1.02 0 0 Z " fill="#846950" transform="translate(40,73)"/>
<path d="M0 0 C5.31095142 0.46587293 10.30649982 1.29152379 15.5 2.5 C23.61109622 4.21580882 31.62670075 4.42481071 39.90429688 4.4453125 C47.29563568 4.56717351 53.21969276 6.06482745 60 9 C56.63773298 10.12075567 54.62763678 9.91625758 51.125 9.5625 C47.39311695 9.19305293 43.75104024 8.93771335 40 9 C40.33 8.34 40.66 7.68 41 7 C40.01 7 39.02 7 38 7 C38 7.66 38 8.32 38 9 C36.906875 9.309375 35.81375 9.61875 34.6875 9.9375 C32.44592006 10.58337897 30.2130649 11.2623117 28 12 C28 11.01 28 10.02 28 9 C24.00499382 10.3697164 21.19990508 12.25722422 18 15 C17.34 14.34 16.68 13.68 16 13 C16.66 12.67 17.32 12.34 18 12 C18.33 11.01 18.66 10.02 19 9 C21.5625 7.8125 21.5625 7.8125 24 7 C21.58354218 6.83312552 21.58354218 6.83312552 19 7 C18.34 7.66 17.68 8.32 17 9 C14.875 8.625 14.875 8.625 13 8 C13.33 7.34 13.66 6.68 14 6 C13.01 6.33 12.02 6.66 11 7 C7 7 7 7 4.9375 5.0625 C4.298125 4.381875 3.65875 3.70125 3 3 C2.01 2.67 1.02 2.34 0 2 C0 1.34 0 0.68 0 0 Z M27 6 C26.67 6.66 26.34 7.32 26 8 C28.475 8.495 28.475 8.495 31 9 C31.33 8.34 31.66 7.68 32 7 C30.35 6.67 28.7 6.34 27 6 Z " fill="#EAE9E8" transform="translate(76,91)"/>
<path d="M0 0 C2.64 0 5.28 0 8 0 C6.47155121 2.44724757 5.60817856 3.79615956 2.82348633 4.72949219 C1.59021606 4.88659668 1.59021606 4.88659668 0.33203125 5.046875 C-1.00698242 5.23056641 -1.00698242 5.23056641 -2.37304688 5.41796875 C-3.30181641 5.52753906 -4.23058594 5.63710937 -5.1875 5.75 C-6.12787109 5.87503906 -7.06824219 6.00007813 -8.03710938 6.12890625 C-10.35650881 6.43501988 -12.67677531 6.72470184 -15 7 C-14.09636719 7.19335938 -13.19273437 7.38671875 -12.26171875 7.5859375 C-10.49248047 7.97652344 -10.49248047 7.97652344 -8.6875 8.375 C-7.51574219 8.63023438 -6.34398437 8.88546875 -5.13671875 9.1484375 C-2 10 -2 10 1 12 C2.39325066 12.87910653 3.78920872 13.7539333 5.1875 14.625 C5.90292969 15.07101563 6.61835938 15.51703125 7.35546875 15.9765625 C7.89816406 16.31429687 8.44085938 16.65203125 9 17 C8.01 17.495 8.01 17.495 7 18 C4.63573829 17.15113739 2.36607021 16.24132757 0.0625 15.25 C-14.63296295 9.19115593 -14.63296295 9.19115593 -30 12 C-29.67 11.01 -29.34 10.02 -29 9 C-27.35 8.67 -25.7 8.34 -24 8 C-24 7.34 -24 6.68 -24 6 C-21.36 5.34 -18.72 4.68 -16 4 C-16 3.34 -16 2.68 -16 2 C-15.43152344 2.01160156 -14.86304688 2.02320312 -14.27734375 2.03515625 C-9.39329516 2.09223194 -4.81496035 1.81956772 0 1 C0 0.67 0 0.34 0 0 Z " fill="#67472E" transform="translate(187,77)"/>
<path d="M0 0 C3.24271506 0.5590888 4.93057424 1.4132178 7 4 C7 4.66 7 5.32 7 6 C6.01 6.66 5.02 7.32 4 8 C5.65 8 7.3 8 9 8 C9.66 9.98 10.32 11.96 11 14 C9.906875 14.103125 8.81375 14.20625 7.6875 14.3125 C4.14440371 14.97307727 3.06756277 15.2027092 1 18 C0.34 16.68 -0.32 15.36 -1 14 C-1.66 14 -2.32 14 -3 14 C-3 13.01 -3 12.02 -3 11 C-1 11.66666667 1 12.33333333 3 13 C3 12.01 3 11.02 3 10 C1.02 10 -0.96 10 -3 10 C-2.34 8.35 -1.68 6.7 -1 5 C-2.65 5 -4.3 5 -6 5 C-3.64561267 3.57055055 -2.51967567 2.91338739 0.25 3.375 C1.11625 3.684375 1.11625 3.684375 2 4 C2 3.34 2 2.68 2 2 C1.34 1.34 0.68 0.68 0 0 Z " fill="#F4F4F4" transform="translate(186,131)"/>
<path d="M0 0 C-0.99 0.66 -1.98 1.32 -3 2 C-4.01868662 2.98095748 -5.02351983 3.97702078 -6 5 C-5.46632812 4.68804687 -4.93265625 4.37609375 -4.3828125 4.0546875 C2.00293389 0.71819025 6.18697851 0.89493282 13 3 C12.67 3.99 12.34 4.98 12 6 C11.401875 5.835 10.80375 5.67 10.1875 5.5 C6.29632925 4.61058954 5.11203886 4.93481376 1.5625 7 C-3.76773095 9.82950577 -9.11701796 9.35297892 -15 9 C-14.67 8.01 -14.34 7.02 -14 6 C-12.68 6 -11.36 6 -10 6 C-9.731875 5.38125 -9.46375 4.7625 -9.1875 4.125 C-6.90158028 0.03440681 -4.32852843 -0.23397451 0 0 Z " fill="#E8E7E6" transform="translate(163,84)"/>
<path d="M0 0 C0.66 0.33 1.32 0.66 2 1 C2 1.66 2 2.32 2 3 C0.68 3.33 -0.64 3.66 -2 4 C1.27131978 6.82523072 4.1014306 9.12291103 8 11 C8.33 11.66 8.66 12.32 9 13 C4.32482415 13.18334023 1.28083995 12.73272093 -3 11 C-4.92792077 10.57851125 -6.8665317 10.20323562 -8.8125 9.875 C-10.27623047 9.62363281 -10.27623047 9.62363281 -11.76953125 9.3671875 C-12.50558594 9.24601562 -13.24164063 9.12484375 -14 9 C-14.33 8.01 -14.66 7.02 -15 6 C-14.25234375 5.73445313 -13.5046875 5.46890625 -12.734375 5.1953125 C-11.74953125 4.84210938 -10.7646875 4.48890625 -9.75 4.125 C-8.77546875 3.77695313 -7.8009375 3.42890625 -6.796875 3.0703125 C-4.04565543 2.08449066 -4.04565543 2.08449066 -1.765625 0.8046875 C-1.18296875 0.53914063 -0.6003125 0.27359375 0 0 Z M-9 6 C-5 7 -5 7 -5 7 Z " fill="#866F5F" transform="translate(150,93)"/>
<path d="M0 0 C1.68889872 1.3050581 3.3603279 2.63360658 5 4 C4.34 4.474375 3.68 4.94875 3 5.4375 C2.01 6.2109375 2.01 6.2109375 1 7 C1 7.33 1 7.66 1 8 C-4.75 8.125 -4.75 8.125 -7 7 C-7.59355614 4.35139573 -7.74209269 1.70802678 -8 -1 C-4.55290479 -2.23110543 -3.07089524 -1.95420606 0 0 Z M-1 1 C-1.99 1.66 -2.98 2.32 -4 3 C-2.35 3 -0.7 3 1 3 C0.34 2.34 -0.32 1.68 -1 1 Z " fill="#F0EEEE" transform="translate(183,127)"/>
<path d="M0 0 C2.97 0.495 2.97 0.495 6 1 C6 1.66 6 2.32 6 3 C6.62648437 3.12117188 7.25296875 3.24234375 7.8984375 3.3671875 C8.71570313 3.53476563 9.53296875 3.70234375 10.375 3.875 C11.18710938 4.03742188 11.99921875 4.19984375 12.8359375 4.3671875 C15 5 15 5 17 7 C16.67 7.66 16.34 8.32 16 9 C18.475 9.495 18.475 9.495 21 10 C20.34 11.32 19.68 12.64 19 14 C14.11576376 12.4404064 10.62202313 9.60213704 6.6875 6.4375 C6.04232422 5.93025391 5.39714844 5.42300781 4.73242188 4.90039062 C3.13204595 3.62855748 1.56291996 2.31759017 0 1 C0 0.67 0 0.34 0 0 Z " fill="#F0F0EF" transform="translate(161,107)"/>
<path d="M0 0 C9.14466684 0.90635012 17.96492199 2.25775606 26 7 C26.33 7.99 26.66 8.98 27 10 C24.24639085 9.44927817 22.03962338 8.57878218 19.4375 7.4375 C16.15970417 5.80709693 16.15970417 5.80709693 13 6 C11 6 9 6 7 6 C7 5.01 7 4.02 7 3 C4.69 2.34 2.38 1.68 0 1 C0 0.67 0 0.34 0 0 Z " fill="#F3F2F2" transform="translate(47,83)"/>
<path d="M0 0 C0.33 0.66 0.66 1.32 1 2 C1.99 2.33 2.98 2.66 4 3 C6.625 3.875 6.625 3.875 9 5 C9.33 5.99 9.66 6.98 10 8 C8.02 8.99 6.04 9.98 4 11 C4.66 11.66 5.32 12.32 6 13 C4.68 13.33 3.36 13.66 2 14 C-1.22265625 8.7265625 -1.22265625 8.7265625 -2 7 C-1.67 6.34 -1.34 5.68 -1 5 C0.98 5.495 0.98 5.495 3 6 C1.35 5.01 -0.3 4.02 -2 3 C-1 1 -1 1 0 0 Z " fill="#EAE9E8" transform="translate(198,132)"/>
<path d="M0 0 C2.64 0 5.28 0 8 0 C7.02734375 1.9140625 7.02734375 1.9140625 5 4 C2.08951035 4.67549205 -0.49127747 5.10288877 -3.4375 5.375 C-4.5831543 5.51615234 -4.5831543 5.51615234 -5.75195312 5.66015625 C-12.62998893 6.39046118 -12.62998893 6.39046118 -16 4 C-16 3.34 -16 2.68 -16 2 C-15.43152344 2.01160156 -14.86304688 2.02320312 -14.27734375 2.03515625 C-9.39329516 2.09223194 -4.81496035 1.81956772 0 1 C0 0.67 0 0.34 0 0 Z " fill="#907869" transform="translate(187,77)"/>
<path d="M0 0 C1.32 0.66 2.64 1.32 4 2 C3.67 2.33 3.34 2.66 3 3 C4.32 3 5.64 3 7 3 C7.33 2.34 7.66 1.68 8 1 C11.14737182 1.69941596 14.02588876 2.76078698 17 4 C13.36211946 6.29186474 10.2381715 6.26795835 6 6.25 C4.783125 6.25515625 3.56625 6.2603125 2.3125 6.265625 C-0.75288791 6.01981559 -2.43662952 5.6149234 -5 4 C-4.360625 3.71125 -3.72125 3.4225 -3.0625 3.125 C-0.84793921 2.17176549 -0.84793921 2.17176549 0 0 Z " fill="#F1F0EF" transform="translate(100,87)"/>
<path d="M0 0 C2.64 0.33 5.28 0.66 8 1 C8 1.66 8 2.32 8 3 C6.906875 3.309375 5.81375 3.61875 4.6875 3.9375 C2.44592006 4.58337897 0.2130649 5.2623117 -2 6 C-2 5.01 -2 4.02 -2 3 C-5.99500618 4.3697164 -8.80009492 6.25722422 -12 9 C-12.66 8.34 -13.32 7.68 -14 7 C-13.34 6.67 -12.68 6.34 -12 6 C-11.67 5.01 -11.34 4.02 -11 3 C-7.12137916 1.60955102 -4.13537997 1 0 1 C0 0.67 0 0.34 0 0 Z " fill="#F4F4F4" transform="translate(106,97)"/>
<path d="M0 0 C1.65 0 3.3 0 5 0 C4.67 0.66 4.34 1.32 4 2 C5.32 2.33 6.64 2.66 8 3 C8.33 2.01 8.66 1.02 9 0 C11.31 0.33 13.62 0.66 16 1 C15.401875 1.28875 14.80375 1.5775 14.1875 1.875 C11.80672208 3.04742026 11.80672208 3.04742026 9 5 C3.09542143 5.79193559 -2.35003856 4.64362515 -8 3 C-8 2.67 -8 2.34 -8 2 C-5.36 2 -2.72 2 0 2 C0 1.34 0 0.68 0 0 Z " fill="#B19C85" transform="translate(131,92)"/>
<path d="M0 0 C2.97 0.495 2.97 0.495 6 1 C5.67 1.99 5.34 2.98 5 4 C6.32 4.66 7.64 5.32 9 6 C8.67 6.66 8.34 7.32 8 8 C6.35 8 4.7 8 3 8 C3 7.34 3 6.68 3 6 C0.36 5.34 -2.28 4.68 -5 4 C-5 3.34 -5 2.68 -5 2 C-3.68 2 -2.36 2 -1 2 C-0.67 1.34 -0.34 0.68 0 0 Z " fill="#816244" transform="translate(90,87)"/>
<path d="M0 0 C-0.33 1.32 -0.66 2.64 -1 4 C0.299375 4.12375 1.59875 4.2475 2.9375 4.375 C5.15234375 4.5859375 5.15234375 4.5859375 7 5 C7.33 5.66 7.66 6.32 8 7 C-1.41002278 6.03644647 -1.41002278 6.03644647 -6 5 C-5.67 4.01 -5.34 3.02 -5 2 C-6.32 1.67 -7.64 1.34 -9 1 C-5.57367167 -0.61798838 -3.61944899 -1.34053666 0 0 Z " fill="#7B5F48" transform="translate(86,87)"/>
<path d="M0 0 C-1.3125 2 -1.3125 2 -3 4 C-3.99 4 -4.98 4 -6 4 C-6 3.34 -6 2.68 -6 2 C-7.1446875 2.4640625 -7.1446875 2.4640625 -8.3125 2.9375 C-12.82711427 4.7223475 -15.23358786 4.95328243 -20 4 C-19.67 3.34 -19.34 2.68 -19 2 C-12.76195973 0.22396745 -6.44994077 -0.24339399 0 0 Z " fill="#F2F1F1" transform="translate(191,81)"/>
<path d="M0 0 C0.66 0.33 1.32 0.66 2 1 C2 1.66 2 2.32 2 3 C0.68 3.33 -0.64 3.66 -2 4 C-0.68 5.32 0.64 6.64 2 8 C-1.01031744 8.93423645 -1.86650268 9.04449911 -5 8 C-5 7.34 -5 6.68 -5 6 C-6.98 6 -8.96 6 -11 6 C-8.66460191 4.44306794 -6.42031244 3.09799354 -3.9375 1.8125 C-2.89916016 1.26529297 -2.89916016 1.26529297 -1.83984375 0.70703125 C-1.23269531 0.47371094 -0.62554687 0.24039063 0 0 Z " fill="#E9E7E5" transform="translate(150,93)"/>
<path d="M0 0 C1.32644531 0.28617187 1.32644531 0.28617187 2.6796875 0.578125 C3.56914063 0.75859375 4.45859375 0.9390625 5.375 1.125 C6.45394531 1.47304687 6.45394531 1.47304687 7.5546875 1.828125 C7.8846875 2.488125 8.2146875 3.148125 8.5546875 3.828125 C9.5446875 4.158125 10.5346875 4.488125 11.5546875 4.828125 C11.2246875 5.818125 10.8946875 6.808125 10.5546875 7.828125 C9.90242188 7.56257813 9.25015625 7.29703125 8.578125 7.0234375 C3.94200933 5.14984503 -0.67362104 3.33497494 -5.4453125 1.828125 C-2.4453125 -0.171875 -2.4453125 -0.171875 0 0 Z " fill="#563517" transform="translate(60.4453125,82.171875)"/>
<path d="M0 0 C0.66 0.33 1.32 0.66 2 1 C-2.625 5.875 -2.625 5.875 -6 7 C-8.33299825 7.03954234 -10.66708189 7.04401732 -13 7 C-12.01 6.67 -11.02 6.34 -10 6 C-8.78130071 3.49552484 -8.78130071 3.49552484 -8 1 C-6.865625 1.020625 -5.73125 1.04125 -4.5625 1.0625 C-1.18424326 1.41577477 -1.18424326 1.41577477 0 0 Z " fill="#968472" transform="translate(126,88)"/>
<path d="M0 0 C1.41750563 0.11509661 2.83401169 0.24253658 4.25 0.375 C5.03890625 0.44460937 5.8278125 0.51421875 6.640625 0.5859375 C9.085877 1.01507113 10.84836903 1.78600638 13 3 C11.515 5.475 11.515 5.475 10 8 C6.63061102 6.87687034 5.46825907 5.46825907 3 3 C2.01 2.67 1.02 2.34 0 2 C0 1.34 0 0.68 0 0 Z " fill="#E6E4E3" transform="translate(76,91)"/>
<path d="M0 0 C0.33 0.66 0.66 1.32 1 2 C-1.06060064 2.36505516 -3.12359632 2.71660715 -5.1875 3.0625 C-6.91033203 3.35833984 -6.91033203 3.35833984 -8.66796875 3.66015625 C-11.78648366 3.97822284 -13.99805783 3.80843264 -17 3 C-17 2.34 -17 1.68 -17 1 C-8.585 0.505 -8.585 0.505 0 0 Z " fill="#673F15" transform="translate(115,92)"/>
<path d="M0 0 C2.5 1.25 2.5 1.25 4.5 4.25 C2.52 3.59 0.54 2.93 -1.5 2.25 C-0.84 4.56 -0.18 6.87 0.5 9.25 C-0.16 9.25 -0.82 9.25 -1.5 9.25 C-2.16 7.27 -2.82 5.29 -3.5 3.25 C-4.16 3.25 -4.82 3.25 -5.5 3.25 C-5.17 2.26 -4.84 1.27 -4.5 0.25 C-2.5 -0.75 -2.5 -0.75 0 0 Z " fill="#63422F" transform="translate(198.5,135.75)"/>
<path d="M0 0 C2.375 -0.1875 2.375 -0.1875 5 0 C7 3 7 3 6.8125 5.125 C6.544375 5.74375 6.27625 6.3625 6 7 C5.01 7.33 4.02 7.66 3 8 C2.896875 7.360625 2.79375 6.72125 2.6875 6.0625 C2.460625 5.381875 2.23375 4.70125 2 4 C1.01 3.67 0.02 3.34 -1 3 C-0.67 2.01 -0.34 1.02 0 0 Z " fill="#917B69" transform="translate(190,129)"/>
<path d="M0 0 C3.93673644 1.31224548 6.22719294 2.91910327 9 6 C6.69 6.33 4.38 6.66 2 7 C0 1.125 0 1.125 0 0 Z " fill="#8E7866" transform="translate(173,118)"/>
<path d="M0 0 C-3 2 -3 2 -5 3 C-5.33 3.99 -5.66 4.98 -6 6 C-8.06640625 6.94921875 -8.06640625 6.94921875 -10.5625 7.6875 C-11.80193359 8.06455078 -11.80193359 8.06455078 -13.06640625 8.44921875 C-13.70449219 8.63097656 -14.34257812 8.81273438 -15 9 C-14.67 8.01 -14.34 7.02 -14 6 C-12.68 6 -11.36 6 -10 6 C-9.731875 5.38125 -9.46375 4.7625 -9.1875 4.125 C-6.90158028 0.03440681 -4.32852843 -0.23397451 0 0 Z " fill="#C3B7B2" transform="translate(163,84)"/>
<path d="M0 0 C0.66 0.33 1.32 0.66 2 1 C0.10807525 1.98669759 -1.78871978 2.9640602 -3.6875 3.9375 C-4.74324219 4.48277344 -5.79898438 5.02804688 -6.88671875 5.58984375 C-9.66234047 6.8470576 -12.00272126 7.56069569 -15 8 C-15 7.01 -15 6.02 -15 5 C-14.01 4.731875 -13.02 4.46375 -12 4.1875 C-9.151197 3.3868181 -6.43578646 2.40779515 -3.6875 1.3125 C-2.470625 0.879375 -1.25375 0.44625 0 0 Z " fill="#553317" transform="translate(149,92)"/>
<path d="M0 0 C4.49014624 1.49671541 8.47848764 3.83368341 12 7 C12 7.66 12 8.32 12 9 C6.03648545 7.72210402 3.51582826 4.66283606 0 0 Z " fill="#E7E6E5" transform="translate(156,108)"/>
<path d="M0 0 C-0.33 1.32 -0.66 2.64 -1 4 C-4.40562852 4.77842938 -7.50765756 5.09978121 -11 5 C-4.63636364 0 -4.63636364 0 0 0 Z " fill="#F2F1F1" transform="translate(162,88)"/>
<path d="M0 0 C1.65087847 0.59024148 3.29562407 1.19766006 4.9375 1.8125 C6.31228516 2.31716797 6.31228516 2.31716797 7.71484375 2.83203125 C10 4 10 4 11 7 C7.08406554 6.21681311 3.63593365 4.60820142 0 3 C0 2.01 0 1.02 0 0 Z " fill="#EAE9E8" transform="translate(63,86)"/>
<path d="M0 0 C0.8353125 0.433125 0.8353125 0.433125 1.6875 0.875 C4.08494645 2.0413253 6.51596939 3.0339881 9 4 C8.67 4.66 8.34 5.32 8 6 C3.94393835 5.53199289 0.53411321 5.12046792 -3 3 C-2.01 3 -1.02 3 0 3 C0 2.01 0 1.02 0 0 Z " fill="#EDEAE9" transform="translate(64,79)"/>
<path d="M0 0 C0.33 0.66 0.66 1.32 1 2 C2.6396875 2.2165625 2.6396875 2.2165625 4.3125 2.4375 C7.94610928 2.99177938 9.35951034 3.57074951 12 6 C9.5332355 6.88336837 8.36140628 7.1312406 5.859375 6.22265625 C5.16328125 5.83980469 4.4671875 5.45695312 3.75 5.0625 C3.04359375 4.68222656 2.3371875 4.30195312 1.609375 3.91015625 C1.07828125 3.60980469 0.5471875 3.30945313 0 3 C0 2.01 0 1.02 0 0 Z " fill="#ECEBEA" transform="translate(35,77)"/>
<path d="M0 0 C4.455 0.99 4.455 0.99 9 2 C8.67 2.66 8.34 3.32 8 4 C8.66 4.66 9.32 5.32 10 6 C7.36 6 4.72 6 2 6 C2.66 5.34 3.32 4.68 4 4 C2.68 3.34 1.36 2.68 0 2 C0 1.34 0 0.68 0 0 Z " fill="#F2F1F0" transform="translate(50,75)"/>
<path d="M0 0 C3.14737182 0.69941596 6.02588876 1.76078698 9 3 C7.375 4.125 7.375 4.125 5 5 C1.75 4.125 1.75 4.125 -1 3 C-0.67 2.01 -0.34 1.02 0 0 Z " fill="#F7F7F7" transform="translate(108,88)"/>
<path d="M0 0 C5.62541841 0.45003347 8.61487125 1.68441485 13 5 C12.01 5.495 12.01 5.495 11 6 C8.3984375 5.00390625 8.3984375 5.00390625 5.375 3.5625 C3.87066406 2.85287109 3.87066406 2.85287109 2.3359375 2.12890625 C1.56507813 1.75636719 0.79421875 1.38382812 0 1 C0 0.67 0 0.34 0 0 Z " fill="#633F28" transform="translate(183,89)"/>
<path d="M0 0 C1.32 0.33 2.64 0.66 4 1 C4.33 3.97 4.66 6.94 5 10 C2.08772731 6.71195019 0.50298788 4.40114397 0 0 Z " fill="#52331B" transform="translate(170,116)"/>
<path d="M0 0 C2.64 0.99 5.28 1.98 8 3 C8 2.34 8 1.68 8 1 C8.99 1.33 9.98 1.66 11 2 C9 4 9 4 7.0546875 4.1953125 C5.03645833 4.13020833 3.01822917 4.06510417 1 4 C0.67 2.68 0.34 1.36 0 0 Z " fill="#EAE9E8" transform="translate(188,92)"/>
<path d="M0 0 C0.99 0.33 1.98 0.66 3 1 C2.67 1.33 2.34 1.66 2 2 C4.97 2.495 4.97 2.495 8 3 C7.01 4.32 6.02 5.64 5 7 C2.5 5.75 2.5 5.75 0 4 C0 2.68 0 1.36 0 0 Z " fill="#F0F0EF" transform="translate(190,87)"/>
<path d="M0 0 C-0.33 1.32 -0.66 2.64 -1 4 C-3.64 3.67 -6.28 3.34 -9 3 C-8.67 2.34 -8.34 1.68 -8 1 C-5.30114269 0.42577504 -2.76207303 0 0 0 Z " fill="#DBD8D5" transform="translate(180,82)"/>
<path d="M0 0 C2.64 0 5.28 0 8 0 C6.3125 2.0625 6.3125 2.0625 4 4 C1.25 3.75 1.25 3.75 -1 3 C-0.67 2.01 -0.34 1.02 0 0 Z " fill="#E0DBD7" transform="translate(187,77)"/>
<path d="M0 0 C1.65 0 3.3 0 5 0 C4.01 1.485 4.01 1.485 3 3 C0.3984375 3.29296875 0.3984375 3.29296875 -2.625 3.1875 C-4.12933594 3.14689453 -4.12933594 3.14689453 -5.6640625 3.10546875 C-6.43492188 3.07066406 -7.20578125 3.03585938 -8 3 C-8 2.67 -8 2.34 -8 2 C-5.36 2 -2.72 2 0 2 C0 1.34 0 0.68 0 0 Z " fill="#EFEEED" transform="translate(131,92)"/>
<path d="M0 0 C3.0916909 2.52956528 3.90931332 5.22454612 5 9 C3.68 8.67 2.36 8.34 1 8 C0.67 5.36 0.34 2.72 0 0 Z " fill="#7D5A37" transform="translate(175,126)"/>
<path d="M0 0 C4.21912747 0.4794463 6.79663178 1.16625119 10 4 C7.03 3.67 4.06 3.34 1 3 C0.67 2.01 0.34 1.02 0 0 Z " fill="#E0DDDB" transform="translate(126,97)"/>
<path d="M0 0 C2 1 2 1 2 1 Z M-5 1 C-3.35 1 -1.7 1 0 1 C-0.66 2.32 -1.32 3.64 -2 5 C-3.65 4.67 -5.3 4.34 -7 4 C-6.34 3.67 -5.68 3.34 -5 3 C-5 2.34 -5 1.68 -5 1 Z " fill="#E9E8E8" transform="translate(186,130)"/>
<path d="M0 0 C2.97 0.495 2.97 0.495 6 1 C5.01 2.485 5.01 2.485 4 4 C2.68 4 1.36 4 0 4 C0 2.68 0 1.36 0 0 Z " fill="#EEECEB" transform="translate(90,87)"/>
<path d="M0 0 C1.98 0.99 1.98 0.99 4 2 C2.68 2.33 1.36 2.66 0 3 C0 2.01 0 1.02 0 0 Z " fill="#F9F9F9" transform="translate(36,70)"/>
<path d="M0 0 C2.475 0.495 2.475 0.495 5 1 C4.34 1.66 3.68 2.32 3 3 C2.01 2.01 1.02 1.02 0 0 Z " fill="#F0F0F0" transform="translate(86,100)"/>
<path d="M0 0 C0.99 0.33 1.98 0.66 3 1 C2.01 1.66 1.02 2.32 0 3 C0 2.01 0 1.02 0 0 Z " fill="#F3F3F3" transform="translate(100,104)"/>
<path d="M0 0 C4 1 4 1 4 1 Z " fill="#FEFEFE" transform="translate(153,99)"/>
<path d="M0 0 C4 1 4 1 4 1 Z " fill="#F9F9F9" transform="translate(86,85)"/>
<path d="M0 0 C3 1 3 1 3 1 Z " fill="#FCFCFC" transform="translate(143,86)"/>
<path d="M0 0 C2 1 2 1 2 1 Z " fill="#FCFCFC" transform="translate(188,149)"/>
<path d="M0 0 C2 1 2 1 2 1 Z " fill="#FFFFFF" transform="translate(97,108)"/>
<path d="M0 0 C2 1 2 1 2 1 Z " fill="#FDFDFD" transform="translate(188,102)"/>
<path d="" fill="#FFFFFF" transform="translate(0,0)"/>
<path d="" fill="#F3F3F3" transform="translate(0,0)"/>
<path d="M0 0 C2 1 2 1 2 1 Z " fill="#F5F5F5" transform="translate(48,86)"/>
<path d="M0 0 C2 1 2 1 2 1 Z " fill="#FAFAFA" transform="translate(185,0)"/>
<path d="" fill="#F5F5F5" transform="translate(0,0)"/>
<path d="" fill="#FFFFFF" transform="translate(0,0)"/>
<path d="" fill="#F5F5F5" transform="translate(0,0)"/>
<path d="" fill="#FBFBFB" transform="translate(0,0)"/>
<path d="" fill="#FFFFFF" transform="translate(0,0)"/>
<path d="" fill="#FEFEFE" transform="translate(0,0)"/>
</svg>
