<?xml version="1.0" standalone="no"?>
<!DOCTYPE svg PUBLIC "-//W3C//DTD SVG 20010904//EN"
 "http://www.w3.org/TR/2001/REC-SVG-20010904/DTD/svg10.dtd">
<svg version="1.0" xmlns="http://www.w3.org/2000/svg"
 width="480.000000pt" height="349.000000pt" viewBox="0 0 480.000000 349.000000"
 preserveAspectRatio="xMidYMid meet">

<g transform="translate(0.000000,349.000000) scale(0.100000,-0.100000)"
fill="#000000" stroke="none">
<path d="M948 2983 c6 -2 18 -2 25 0 6 3 1 5 -13 5 -14 0 -19 -2 -12 -5z"/>
<path d="M273 2778 c-27 -13 -30 -27 -5 -26 9 0 24 -1 32 -3 9 -3 15 3 15 15
0 24 -13 28 -42 14z"/>
<path d="M1348 2773 c7 -3 16 -2 19 1 4 3 -2 6 -13 5 -11 0 -14 -3 -6 -6z"/>
<path d="M335 2740 c-3 -5 -1 -10 4 -10 6 0 11 5 11 10 0 6 -2 10 -4 10 -3 0
-8 -4 -11 -10z"/>
<path d="M342 2708 c-7 -7 -12 -17 -12 -23 0 -22 188 -300 197 -291 3 2 -9 25
-26 50 -33 48 -131 246 -131 265 0 14 -13 14 -28 -1z"/>
<path d="M1391 2537 c-17 -22 -2 -27 34 -12 18 8 36 11 40 7 5 -4 5 -1 1 6
-10 16 -61 15 -75 -1z"/>
<path d="M293 2443 c4 -6 23 -13 42 -15 43 -5 32 9 -14 18 -23 5 -32 4 -28 -3z"/>
<path d="M633 2405 c-22 -58 -23 -68 -12 -81 6 -8 15 -11 20 -8 5 3 9 -2 9
-10 0 -9 5 -16 10 -16 6 0 10 14 10 30 0 17 -4 30 -10 30 -5 0 -10 8 -10 18 0
14 2 15 10 2 5 -8 10 -10 10 -4 0 5 -4 14 -9 20 -5 5 -11 18 -13 29 -3 17 -5
15 -15 -10z"/>
<path d="M1448 2359 c-10 -5 -18 -15 -18 -20 0 -6 4 -7 10 -4 9 5 28 11 67 19
7 1 16 5 19 9 11 11 -59 8 -78 -4z"/>
<path d="M767 2330 c-3 -11 -1 -20 3 -20 5 0 15 -3 24 -6 13 -5 13 -2 3 20
-14 31 -23 33 -30 6z"/>
<path d="M2981 2315 c-9 -23 -10 -35 -1 -48 7 -12 9 -44 6 -85 l-5 -67 13 41
c21 63 24 105 11 149 l-12 40 -12 -30z"/>
<path d="M1223 2287 c-11 -12 -27 -33 -36 -47 -11 -15 -17 -19 -17 -10 0 8
-15 -8 -33 -36 -60 -95 -77 -119 -77 -110 0 6 -13 -3 -30 -19 -16 -16 -30 -34
-30 -39 0 -6 7 -3 14 7 8 11 17 14 20 8 4 -5 2 -12 -3 -15 -15 -9 -72 -126
-62 -126 5 0 16 -3 24 -6 11 -4 34 27 83 108 38 62 81 125 97 139 19 18 25 28
16 31 -9 3 -1 23 26 66 39 64 44 89 8 49z"/>
<path d="M3925 2233 c-26 -104 -47 -215 -46 -247 0 -16 -9 -52 -20 -80 -13
-35 -20 -77 -20 -132 0 -79 -1 -81 -24 -81 -13 0 -23 4 -22 10 1 6 -5 12 -15
14 -9 2 -31 17 -50 33 -18 16 -58 48 -88 72 -43 34 -67 65 -107 138 -29 52
-55 94 -58 93 -15 -8 -27 0 -37 22 -6 14 -17 25 -25 25 -19 0 -17 -3 27 -74
22 -35 40 -74 41 -87 0 -13 9 -49 19 -79 l19 -55 -6 55 -5 55 42 -65 c51 -78
164 -213 215 -257 21 -17 54 -34 74 -38 20 -4 46 -16 59 -28 12 -11 22 -15 22
-9 0 7 -5 12 -11 12 -6 0 3 18 20 39 40 50 39 58 -4 31 -19 -12 -41 -20 -48
-17 -6 2 -17 -3 -24 -12 -10 -14 -11 -14 -10 4 2 15 -3 19 -21 18 -15 -2 -21
1 -16 9 4 6 3 8 -3 5 -11 -7 -32 12 -31 28 1 6 -9 15 -21 21 -29 15 -41 29
-17 20 16 -5 17 -4 6 9 -7 8 -17 12 -22 9 -14 -9 -110 95 -102 108 4 6 2 8 -4
4 -5 -3 -25 12 -42 34 -17 22 -29 40 -25 40 4 0 2 8 -6 18 -7 9 15 -12 48 -48
34 -35 59 -68 56 -74 -3 -5 -2 -6 4 -3 13 8 76 -57 66 -68 -5 -4 -2 -5 4 -1 7
4 36 -8 65 -27 86 -54 81 -52 68 -28 -14 27 -6 55 25 84 35 34 55 141 55 304
0 76 4 165 10 197 13 82 5 81 -15 -1z"/>
<path d="M946 2263 c-8 -16 -15 -24 -16 -20 -1 18 -41 -32 -59 -74 -11 -25
-29 -54 -41 -64 -24 -22 -26 -40 -3 -31 9 4 20 1 25 -6 5 -9 8 -6 8 9 0 12 8
27 19 32 24 13 105 181 87 181 -3 0 -12 -12 -20 -27z"/>
<path d="M723 2248 c-17 -38 29 -100 59 -82 7 4 3 13 -10 23 -12 9 -23 29 -26
45 -7 38 -11 40 -23 14z"/>
<path d="M400 2222 c0 -4 17 -8 38 -8 20 0 49 -3 65 -7 15 -4 27 -3 27 2 0 5
-10 11 -22 15 -33 8 -108 7 -108 -2z"/>
<path d="M861 2214 c0 -11 3 -14 6 -6 3 7 2 16 -1 19 -3 4 -6 -2 -5 -13z"/>
<path d="M1524 2199 c-3 -6 -19 -9 -35 -7 -33 5 -39 -7 -9 -17 21 -7 60 10 60
25 0 13 -7 13 -16 -1z"/>
<path d="M823 2170 c-3 -17 -10 -33 -14 -36 -5 -3 -9 -10 -9 -16 0 -7 6 -6 15
2 8 7 15 22 15 34 0 12 5 27 12 34 9 9 9 12 0 12 -7 0 -15 -14 -19 -30z"/>
<path d="M2952 2170 c0 -14 2 -19 5 -12 2 6 2 18 0 25 -3 6 -5 1 -5 -13z"/>
<path d="M1490 2147 c0 -15 -4 -16 -22 -7 l-23 11 23 -20 c12 -10 22 -24 22
-31 0 -7 -8 -9 -22 -4 -22 6 -22 6 -5 -13 9 -11 14 -23 10 -26 -10 -10 6 -8
62 7 28 8 42 15 33 15 -10 1 -18 9 -18 18 0 13 -3 14 -12 5 -7 -7 -16 -12 -20
-12 -14 0 -9 30 6 36 8 3 17 12 20 20 4 11 2 12 -15 1 -16 -10 -21 -9 -29 3
-8 13 -10 12 -10 -3z"/>
<path d="M1748 2143 c6 -2 18 -2 25 0 6 3 1 5 -13 5 -14 0 -19 -2 -12 -5z"/>
<path d="M546 2132 c-3 -6 -3 -32 1 -58 l7 -49 8 50 c7 47 -2 79 -16 57z"/>
<path d="M1777 2129 c-9 -6 -26 -7 -37 -4 -11 4 -20 2 -20 -4 0 -6 7 -11 15
-11 8 0 15 -9 15 -20 0 -22 -15 -27 -23 -7 -4 7 -6 6 -6 -4 -1 -9 6 -19 14
-23 23 -8 18 -29 -5 -23 -11 3 -20 1 -20 -4 0 -4 9 -13 20 -19 11 -6 20 -17
20 -26 0 -12 -4 -12 -20 -4 -13 7 -20 7 -20 1 0 -6 9 -15 20 -21 11 -6 20 -17
20 -26 0 -12 -4 -12 -20 -4 -13 7 -20 7 -20 0 0 -5 9 -15 20 -22 11 -7 20 -16
20 -20 0 -5 -9 -8 -20 -8 -11 0 -20 -4 -20 -9 0 -5 9 -13 20 -16 11 -3 20 -13
20 -22 0 -13 -3 -13 -26 2 -25 16 -26 16 -22 -2 2 -10 16 -24 31 -31 15 -7 25
-18 21 -23 -3 -6 -15 -4 -30 6 -21 13 -24 13 -24 1 0 -18 41 -49 51 -38 15 17
47 132 38 138 -5 3 -7 9 -4 14 3 5 28 -12 55 -37 l50 -47 -20 -21 c-11 -12
-24 -45 -30 -74 -5 -29 -12 -57 -15 -62 -4 -5 2 -9 11 -9 10 0 14 -3 10 -7 -4
-5 -13 -8 -19 -8 -7 0 -17 -20 -24 -45 -13 -50 -16 -41 -13 39 1 49 0 53 -14
38 -9 -8 -16 -22 -16 -30 0 -21 -12 -28 -26 -16 -10 8 -11 15 -1 30 9 15 8 21
-8 34 -20 16 -20 16 3 10 31 -9 29 18 -3 39 l-26 17 2 -68 c2 -45 8 -75 18
-87 15 -18 15 -19 -3 -13 -15 6 -17 4 -12 -18 5 -20 3 -25 -12 -25 -9 0 -28
-7 -40 -16 -20 -14 -22 -14 -22 0 0 9 5 16 10 16 7 0 7 6 0 19 -5 11 -10 29
-10 40 0 12 -4 21 -9 21 -4 0 -7 -26 -6 -57 2 -79 -23 -162 -45 -148 -4 3 -11
-2 -14 -11 -3 -8 -10 -13 -16 -9 -10 6 -3 62 10 80 4 6 8 32 8 60 0 51 30 155
44 155 4 0 8 5 8 11 0 8 -4 8 -13 1 -10 -9 -19 -7 -35 4 -21 15 -21 15 -2 34
27 27 26 44 0 30 -31 -16 -24 3 10 28 46 34 39 58 -7 26 -21 -14 -41 -31 -45
-37 -13 -21 -8 7 6 32 8 14 12 30 10 36 -3 6 15 20 38 32 24 12 35 22 26 22
-10 1 -18 5 -18 11 0 6 -9 6 -25 0 -30 -11 -33 0 -5 18 11 7 20 20 20 29 0 14
-2 14 -20 -2 -11 -10 -23 -15 -28 -11 -4 4 5 17 21 28 35 25 36 46 1 23 -26
-17 -27 -17 -21 4 7 27 4 27 -30 -5 -18 -18 -24 -28 -15 -31 24 -9 12 -23 -15
-17 l-28 5 23 -20 c12 -10 28 -21 35 -24 6 -2 9 -7 5 -11 -3 -4 -16 -2 -28 4
-30 16 -36 6 -12 -18 23 -23 17 -39 -6 -19 -13 10 -15 9 -10 -11 4 -15 -6 -49
-28 -97 -19 -40 -34 -81 -34 -89 0 -23 -21 -19 -27 5 -4 15 -8 17 -14 8 -4 -7
-3 -23 2 -36 5 -12 7 -23 4 -23 -7 0 -33 63 -33 80 0 8 -3 26 -7 40 -3 14 -8
41 -11 60 -5 28 -3 32 6 20 9 -12 10 -11 5 7 -3 12 -10 51 -14 85 l-8 63 -8
-39 c-4 -22 -5 -83 -2 -138 4 -60 2 -98 -3 -98 -6 0 -10 -8 -11 -17 0 -10 -3
-13 -5 -6 -3 7 -12 9 -21 6 -11 -4 -14 -2 -9 5 4 7 14 12 22 12 8 0 14 5 14
11 0 5 -4 8 -9 5 -13 -9 -21 33 -11 60 11 27 17 160 8 169 -3 3 -8 -21 -12
-54 -4 -33 -12 -63 -18 -67 -6 -4 -8 1 -3 15 3 12 2 21 -4 21 -5 0 -8 20 -6
45 1 25 -1 45 -6 45 -15 0 -10 22 9 36 16 13 16 13 -1 14 -17 0 -17 1 0 31
l18 30 12 -43 11 -43 1 42 c1 33 -4 45 -20 53 -25 14 -65 9 -62 -7 2 -7 -6
-10 -18 -8 -16 3 -19 0 -15 -12 4 -8 2 -21 -2 -27 -11 -13 -52 -86 -103 -180
l-36 -68 -8 38 -8 39 -10 -30 c-13 -39 -14 -40 -30 -26 -11 9 -17 8 -27 -4 -7
-8 -17 -12 -22 -9 -6 4 -7 -2 -3 -17 9 -28 -3 -20 -19 13 -6 13 -21 24 -33 26
-27 4 -47 34 -70 104 -17 52 -52 104 -82 123 -20 12 -8 -73 18 -123 24 -47
112 -127 184 -168 11 -6 30 -35 43 -65 13 -30 28 -53 33 -52 10 3 16 -30 13
-69 -1 -10 4 -17 10 -15 7 1 14 -6 16 -17 4 -17 2 -17 -19 3 -25 23 -44 28
-33 9 4 -7 -2 -5 -13 5 -21 18 -21 18 -25 -4 -2 -18 -11 -24 -37 -27 -29 -3
-33 -1 -29 16 7 26 1 33 -47 60 l-40 22 38 -34 c38 -34 42 -60 9 -69 -13 -4
-13 -5 3 -6 41 -3 52 -23 59 -106 6 -65 5 -78 -6 -67 -7 7 -14 44 -16 82 -3
51 -8 70 -18 70 -13 0 -19 -23 -14 -63 2 -19 -17 -47 -31 -47 -15 0 -10 27 6
34 8 3 15 10 15 16 0 7 -6 8 -19 1 -15 -8 -20 -7 -25 5 -8 21 -8 21 14 27 11
3 20 10 20 16 0 8 -6 9 -19 2 -15 -8 -20 -7 -25 6 -6 15 8 32 27 33 4 0 7 4 7
9 0 6 -9 8 -20 6 -17 -3 -20 2 -22 38 -2 53 -5 109 -7 121 0 5 -7 3 -15 -3
-12 -10 -19 -4 -41 34 -15 25 -37 51 -48 57 -21 11 -21 11 -3 -18 11 -16 32
-46 48 -66 28 -36 28 -37 21 -130 l-8 -93 -39 70 c-32 56 -105 145 -121 145
-5 0 93 -148 130 -197 l32 -42 23 22 23 22 -21 -28 c-20 -28 -21 -30 -4 -55
16 -25 16 -26 -1 -19 -22 8 -22 -8 1 -25 10 -7 22 -19 26 -26 7 -11 4 -12 -12
-3 -28 15 -35 14 -28 -4 3 -8 0 -15 -5 -15 -6 0 -9 -9 -6 -20 3 -11 1 -23 -4
-26 -8 -5 -13 10 -10 29 1 5 -3 6 -9 2 -6 -3 -28 9 -50 28 -22 18 -45 34 -52
35 -7 1 -31 5 -54 8 -22 3 -60 0 -85 -7 l-44 -12 45 -10 c25 -5 55 -9 68 -9
12 0 22 -4 22 -9 0 -4 10 -14 22 -20 22 -12 22 -11 8 6 -32 39 33 -7 83 -58
42 -44 50 -48 59 -34 5 10 7 21 4 26 -4 5 4 7 16 3 15 -4 19 -2 13 7 -5 9 -2
12 11 9 12 -2 18 -11 17 -25 -1 -12 4 -27 12 -33 16 -14 21 -35 6 -25 -5 3
-12 1 -16 -5 -4 -6 -11 -7 -17 -4 -6 4 -3 -7 7 -24 10 -17 21 -29 24 -28 3 2
19 -15 35 -38 l29 -41 -41 38 c-23 20 -47 37 -52 37 -6 0 -10 6 -10 13 0 8 -7
14 -15 14 -18 0 -20 -18 -3 -35 9 -9 9 -12 -1 -12 -10 0 -9 -7 4 -26 9 -15 11
-23 5 -19 -10 6 -11 -2 -6 -36 13 -85 31 -124 73 -167 23 -23 40 -42 37 -42
-3 0 -34 17 -69 39 -85 51 -163 67 -240 50 l-58 -13 54 -11 c30 -7 78 -21 108
-33 l53 -21 -18 21 -19 21 33 -17 c17 -9 32 -21 32 -26 0 -17 54 -60 61 -49 4
7 8 5 12 -4 4 -10 13 -13 26 -10 12 3 21 1 21 -6 0 -5 7 -8 16 -4 13 5 12 9
-8 30 -13 14 -18 24 -13 22 6 -1 18 1 28 6 13 5 28 1 49 -15 17 -12 28 -18 24
-12 -3 5 1 13 10 16 24 9 94 7 94 -3 0 -11 75 -37 145 -50 37 -6 42 -9 20 -10
-17 0 -54 5 -82 12 -29 8 -50 10 -48 6 7 -10 95 -29 143 -30 l37 -2 -35 -6
c-19 -4 -51 -3 -70 0 -110 21 -146 31 -174 44 l-31 15 23 -20 c13 -11 43 -25
65 -31 23 -6 50 -18 59 -26 10 -9 40 -18 68 -21 41 -4 50 -2 50 12 0 17 11 19
50 6 l25 -8 -28 -1 c-16 -1 -26 -5 -22 -10 6 -11 -78 -26 -93 -17 -15 9 -29
-15 -41 -73 -10 -48 -9 -57 9 -86 11 -18 27 -38 35 -45 13 -11 15 -7 15 22 0
20 3 56 6 82 6 42 5 46 -14 46 -11 0 -24 5 -28 12 -5 8 2 9 26 5 18 -4 49 -7
69 -8 29 -1 31 -2 13 -7 -38 -11 -26 -27 25 -33 46 -6 46 -6 10 -7 l-38 -2 7
-47 c8 -61 18 -72 12 -15 -2 23 -2 42 0 42 2 0 22 -14 44 -32 27 -21 42 -27
47 -20 5 9 12 8 27 -4 19 -15 18 -15 -3 -11 -13 3 -23 2 -23 -2 0 -11 64 -46
80 -44 10 2 11 0 2 -3 -6 -3 -10 -10 -6 -15 7 -12 24 -11 24 1 0 6 11 23 25
38 19 20 27 24 36 15 9 -9 9 -16 -2 -30 -13 -16 -11 -16 16 1 26 17 24 12 -15
-31 -25 -28 -53 -53 -64 -56 -17 -5 -18 -7 -2 -23 16 -16 20 -15 62 15 l44 32
0 -60 c0 -74 18 -96 82 -106 50 -8 119 8 138 30 10 12 12 50 7 159 l-6 143 30
22 30 22 98 -88 c54 -48 99 -92 101 -98 2 -5 10 -16 19 -23 11 -8 3 -7 -23 3
-22 8 -41 13 -43 11 -3 -2 5 -7 16 -11 12 -3 21 -11 21 -16 0 -6 4 -8 9 -5 4
3 17 -1 27 -9 27 -21 105 -18 160 5 44 19 84 19 84 0 0 -5 8 -8 18 -7 14 1 23
17 36 62 45 155 50 167 69 153 20 -15 14 -48 -9 -48 -10 0 -11 -6 -4 -24 7
-19 2 -33 -25 -74 -19 -27 -31 -52 -28 -56 3 -3 13 7 22 22 9 15 29 50 45 78
l30 51 20 -24 c12 -13 31 -25 44 -26 12 -1 22 -6 22 -12 0 -5 4 -4 9 3 4 7 14
12 21 10 7 -2 15 3 17 10 3 6 -2 12 -11 12 -9 0 -16 4 -16 10 0 5 7 7 15 4 19
-8 81 50 106 99 19 36 20 37 44 21 30 -19 30 -21 9 -63 -12 -24 -13 -36 -5
-44 8 -8 11 -8 11 2 0 9 9 12 25 9 21 -4 25 -1 25 18 0 12 4 25 9 28 5 4 7 -3
4 -14 -7 -28 5 -72 19 -68 15 5 59 88 47 88 -24 0 -4 27 30 41 l39 17 -13 -42
c-29 -91 -37 -108 -46 -94 -7 11 -9 11 -9 -1 0 -8 -6 -11 -15 -7 -13 4 -13 2
-5 -14 11 -21 5 -46 -18 -72 -14 -17 -16 -17 -28 0 -22 31 -26 5 -4 -37 19
-38 40 -54 40 -31 0 6 4 10 9 10 6 0 22 11 37 25 15 14 22 25 16 25 -6 0 -20
-10 -31 -22 -18 -18 -21 -19 -27 -5 -8 22 3 37 29 37 21 1 67 31 67 45 0 4 10
20 21 37 12 17 23 47 25 67 2 29 1 32 -8 18 -5 -10 -7 -21 -4 -24 7 -8 -26
-63 -37 -63 -5 0 -4 6 2 14 7 8 14 27 17 41 3 15 11 40 19 56 8 15 12 34 9 42
-3 8 -1 18 4 21 5 3 8 -20 8 -55 -1 -33 1 -62 5 -65 4 -2 18 15 32 39 l26 42
-5 -45 c-6 -59 -13 -81 -33 -105 -8 -11 -1 -6 18 10 18 17 46 50 62 75 16 25
28 41 28 35 0 -5 -18 -37 -40 -70 -21 -33 -43 -70 -49 -82 -5 -12 -18 -28 -30
-35 -11 -7 -20 -23 -20 -35 0 -19 -6 -23 -29 -23 -17 0 -33 -5 -37 -11 -3 -6
-19 -9 -35 -5 -18 3 -29 1 -29 -6 0 -11 77 -6 113 7 15 6 17 1 17 -39 0 -40 3
-47 30 -61 35 -18 126 -20 160 -2 28 14 48 87 23 87 -7 0 -13 -4 -13 -10 0 -5
-5 -10 -12 -10 -6 0 -3 9 7 20 11 12 25 18 34 15 13 -5 14 -4 4 6 -7 7 -13 26
-13 41 0 16 6 28 13 28 8 0 9 3 1 8 -16 11 -26 110 -11 116 9 3 9 5 0 5 -8 1
-13 16 -13 42 0 32 3 40 15 35 10 -3 15 1 15 12 0 10 3 13 8 6 4 -6 43 -11 86
-13 44 -1 83 -4 88 -7 4 -3 5 1 3 9 -8 18 52 36 88 26 24 -6 26 -5 16 7 -9 11
-8 14 5 14 9 0 34 9 56 20 38 19 59 19 90 -4 9 -6 6 -2 -6 10 l-22 21 73 30
c76 31 93 30 123 -6 11 -14 11 -13 2 7 -6 12 -15 22 -21 22 -6 0 -7 5 -4 10
13 21 33 9 48 -28 15 -34 16 -35 16 -11 1 15 3 42 6 60 l5 34 -11 -31 c-11
-32 -11 -32 -31 -12 -19 19 -19 20 -1 33 10 8 24 15 31 15 6 0 12 5 12 10 0 9
-6 11 -38 14 -27 2 -47 76 -21 76 7 0 9 -10 5 -27 -7 -26 -7 -26 19 -9 14 9
30 14 35 11 6 -3 10 2 10 12 1 17 1 17 11 0 8 -14 8 -22 0 -30 -15 -15 -15
-91 1 -81 6 4 8 3 4 -4 -3 -6 -2 -13 4 -17 5 -3 10 -11 10 -18 0 -6 -6 -2 -14
8 -13 18 -14 18 -21 -4 -7 -24 -4 -31 17 -35 7 -2 21 -6 31 -9 9 -4 25 -10 35
-14 9 -3 35 -7 57 -7 35 -1 40 -5 49 -34 10 -35 26 -43 26 -14 0 24 -53 97
-81 112 l-21 12 21 14 c12 9 21 20 21 26 0 7 -5 6 -14 -1 -8 -7 -23 -11 -33
-9 -10 2 -17 -2 -16 -8 1 -6 -10 -9 -28 -6 -16 2 -28 9 -27 14 2 5 8 9 13 8 8
-1 26 32 29 52 1 3 4 10 9 14 4 4 7 14 7 22 0 12 -3 12 -15 2 -9 -8 -15 -9
-15 -2 0 6 5 14 10 17 16 10 12 28 -5 21 -22 -8 -18 8 7 30 12 10 18 13 14 7
-15 -26 4 -10 88 74 55 56 102 115 129 162 23 40 62 92 87 115 129 118 250
263 250 300 0 24 -16 19 -37 -11 -20 -31 -49 -44 -40 -18 12 31 -3 13 -66 -77
-36 -51 -75 -102 -88 -113 -13 -11 -18 -13 -12 -5 7 9 14 37 16 63 3 35 12 56
34 81 60 65 93 119 93 150 0 58 -15 59 -34 1 -9 -30 -37 -85 -62 -122 -25 -38
-46 -72 -47 -78 -1 -5 -20 -28 -42 -50 -27 -27 -50 -65 -69 -115 -19 -49 -42
-87 -65 -109 -23 -22 -28 -30 -13 -22 12 6 22 9 22 6 0 -14 -71 -112 -105
-145 -19 -19 -44 -44 -55 -54 -23 -22 -26 -15 -8 14 11 16 10 23 -5 37 -16 16
-19 16 -28 3 -5 -8 -8 -26 -5 -40 4 -23 3 -24 -10 -5 -8 10 -14 13 -14 7 0 -7
-7 -12 -15 -12 -8 0 -15 7 -15 15 0 7 -8 18 -17 24 -15 8 -13 14 18 53 48 58
62 85 48 93 -7 5 -5 15 5 31 23 34 20 77 -7 102 -13 12 -26 20 -29 17 -8 -9
-51 18 -91 58 -45 43 -41 48 9 11 18 -14 31 -31 27 -37 -3 -6 -1 -7 5 -3 6 4
20 2 31 -4 33 -17 53 12 46 67 -6 53 -14 70 -25 53 -4 -6 -23 -14 -42 -17 -31
-4 -43 2 -101 51 -36 31 -69 66 -73 79 -4 12 -27 51 -51 87 -43 62 -47 56 -17
-19 18 -42 18 -46 -1 -31 -20 16 -32 5 -16 -14 7 -9 10 -25 6 -38 -4 -14 -3
-18 2 -11 7 10 20 2 48 -27 22 -22 35 -40 30 -40 -5 0 -4 -5 3 -12 18 -18 15
-31 -5 -24 -17 6 -17 5 0 -8 9 -7 17 -17 17 -21 0 -4 -8 -4 -17 -1 -15 5 -15
4 1 -9 11 -8 17 -18 13 -21 -12 -12 -24 6 -52 80 -16 41 -33 74 -39 73 -6 -1
-12 9 -14 22 -3 19 -6 21 -13 10 -7 -12 -9 -11 -9 2 0 15 -17 28 -46 34 -15 4
19 -107 48 -154 12 -20 39 -55 62 -78 22 -24 36 -43 32 -43 -5 0 -2 -8 5 -17
11 -15 10 -14 -9 1 -12 11 -22 25 -22 33 0 8 -4 12 -9 9 -22 -14 -87 99 -122
211 -11 34 -24 65 -30 69 -6 3 -19 26 -29 50 -21 47 -40 58 -40 22 1 -43 46
-133 132 -264 l86 -131 -9 -49 c-5 -27 -14 -61 -20 -76 -10 -25 -48 -58 -66
-58 -4 0 0 5 10 11 26 15 21 32 -5 19 -21 -10 -21 -9 2 9 14 11 22 23 18 27
-4 4 -14 1 -23 -6 -8 -7 -15 -8 -15 -4 0 5 9 15 20 22 12 7 18 17 15 23 -4 5
-1 17 6 25 6 8 9 17 5 21 -3 3 -6 2 -6 -4 0 -6 -7 -13 -15 -17 -11 -4 -13 -1
-6 12 5 9 15 33 22 52 13 34 13 34 20 10 6 -20 7 -21 8 -5 0 11 -3 26 -8 34
-7 11 -10 9 -15 -7 -4 -11 -12 -25 -19 -31 -10 -8 -13 0 -14 32 -1 72 -3 78
-13 72 -13 -8 -36 15 -42 41 -3 10 -4 -12 -3 -50 1 -38 0 -79 -3 -90 -6 -20
-6 -20 -13 4 -6 21 -7 18 -8 -16 -1 -22 -4 -44 -8 -48 -5 -4 -9 -24 -9 -43 -1
-25 -9 -42 -25 -54 -13 -10 -26 -15 -29 -13 -3 3 3 10 13 15 9 6 17 15 17 21
0 6 -7 5 -17 -3 -13 -9 -12 -6 3 11 23 29 22 69 -2 49 -9 -7 -14 -8 -14 -1 0
6 4 13 8 16 20 12 -10 187 -39 226 -9 12 -10 11 -4 -5 12 -33 18 -142 10 -162
-5 -10 -10 -31 -12 -48 -8 -57 -24 -63 -19 -7 4 28 8 76 11 105 l4 52 -12 -60
-13 -60 -13 69 c-7 38 -16 77 -21 86 -6 11 -2 39 11 81 25 80 28 203 6 245
l-16 29 -1 -31 c0 -16 6 -36 13 -43 7 -9 8 -12 0 -7 -7 4 -14 -8 -18 -36 -11
-69 -33 -137 -50 -154 -13 -14 -15 -12 -15 16 0 24 -3 28 -12 19 -8 -6 -13
-35 -13 -65 0 -30 -3 -62 -7 -72 -3 -9 -7 23 -7 72 -1 69 -4 87 -13 78 -6 -6
-12 -42 -13 -79 -1 -37 -6 -89 -10 -116 -7 -42 -6 -47 9 -41 9 3 16 12 16 20
0 8 5 14 10 14 14 0 12 -11 -8 -42 -17 -26 -18 -26 -30 -8 -7 11 -12 30 -12
42 0 19 -2 20 -10 8 -7 -11 -10 -7 -10 18 0 20 4 31 10 27 11 -7 13 6 4 30 -6
13 -9 14 -16 3 -6 -8 -7 -4 -3 12 3 14 1 47 -4 75 -8 44 -8 48 5 31 13 -18 14
-13 14 45 0 48 -3 60 -11 49 -8 -11 -9 -2 -4 33 3 26 3 47 -2 47 -4 0 -8 39
-8 88 0 63 -5 95 -17 117 l-17 30 -1 -69 c0 -54 -3 -67 -12 -58 -6 6 -12 27
-12 47 -1 19 -5 33 -11 31 -5 -2 -9 -11 -9 -20 1 -9 -2 -16 -6 -16 -15 0 -21
-33 -8 -42 11 -6 11 -10 0 -16 -10 -7 -10 -11 3 -22 16 -14 21 -35 5 -25 -6 4
-7 -2 -1 -17 5 -13 7 -42 4 -65 -4 -43 -48 -153 -62 -153 -3 0 -6 47 -6 105 0
58 -2 105 -4 105 -13 0 -30 -41 -31 -75 -1 -39 -1 -40 -14 -15 l-14 25 -6 -35
c-8 -53 -26 -178 -26 -186 0 -3 -9 -4 -20 -1 -13 3 -20 0 -20 -10 0 -8 5 -11
10 -8 6 3 10 0 10 -7 0 -11 2 -11 9 0 5 8 8 -7 8 -40 1 -31 10 -78 24 -113 13
-33 24 -65 25 -72 3 -15 65 -103 73 -103 29 1 33 30 8 78 -11 24 -12 32 -1 46
12 16 14 17 38 1 14 -9 32 -30 40 -46 13 -27 13 -30 -6 -40 -15 -8 -19 -8 -14
0 11 17 -10 13 -24 -4 -7 -8 -10 -15 -6 -15 4 0 0 -13 -9 -30 -8 -16 -15 -39
-15 -51 0 -19 2 -20 18 -8 11 9 9 5 -4 -11 -12 -14 -25 -36 -29 -50 -4 -14
-12 -30 -16 -36 -13 -16 -41 -126 -34 -132 3 -3 5 -2 5 3 0 4 6 2 14 -4 14
-12 12 -29 -11 -91 -3 -8 -7 -20 -9 -27 -3 -18 -106 -139 -113 -133 -3 3 -6
19 -7 35 -2 50 -4 56 -17 53 -7 -2 -14 2 -17 7 -2 6 4 11 12 13 9 2 19 -6 23
-17 9 -29 27 -26 43 7 41 83 52 115 37 102 -8 -7 -15 -20 -15 -30 0 -20 -31
-50 -51 -49 -8 0 -6 4 6 9 19 8 19 9 -2 9 -17 1 -23 7 -23 24 0 16 -3 18 -9 9
-7 -11 -9 -11 -14 2 -6 15 8 21 41 17 7 -1 15 6 19 16 3 10 15 29 25 42 10 13
18 33 18 45 -1 17 -3 16 -14 -9 -12 -30 -12 -30 -19 -6 -6 23 -7 23 -31 8 -14
-9 -41 -19 -61 -21 -34 -4 -36 -3 -33 22 2 18 10 28 23 30 25 4 73 72 51 72
-8 0 -18 4 -21 10 -4 6 1 7 11 3 15 -6 15 -4 -1 20 -19 29 -23 31 -44 18 -8
-6 -11 -18 -7 -37 7 -36 -5 -57 -30 -52 -28 5 -32 58 -5 65 25 6 26 11 4 35
-14 16 -15 22 -4 39 11 18 8 24 -24 55 -20 19 -41 32 -46 28 -5 -3 -42 15 -82
40 -41 25 -79 46 -85 46 -7 0 -12 3 -12 8 0 4 -10 12 -23 18 -12 6 -53 27 -92
48 -59 31 -65 33 -40 11 21 -18 24 -24 10 -19 -33 11 -104 58 -109 72 -3 7 8
3 25 -8 16 -12 32 -20 35 -17 3 3 -16 19 -43 37 -26 18 -42 25 -35 17 10 -12
10 -16 0 -20 -20 -7 -90 53 -83 71 5 13 2 13 -14 -2 -19 -17 -19 -17 -17 13 3
41 -10 39 -37 -6 l-22 -38 -6 40 c-3 22 -7 30 -8 17 0 -13 -6 -20 -11 -17 -6
3 -8 25 -5 48 4 33 3 36 -4 17 -5 -15 -10 -19 -11 -10 -4 27 2 54 16 74 21 31
17 42 -6 15 -15 -19 -19 -20 -20 -8 0 9 7 22 15 29 8 7 15 19 15 28 0 13 -3
12 -20 -3 -19 -17 -20 -17 -20 -1 0 10 7 24 15 32 8 9 15 20 15 26 0 6 -6 6
-15 -2 -20 -17 -20 1 0 41 16 29 15 30 -36 84 -35 37 -46 55 -35 55 9 0 16 7
16 15 0 9 -6 12 -15 9 -17 -7 -21 11 -5 21 6 3 10 11 10 18 0 8 -3 8 -12 -1
-16 -16 -28 -15 -28 2 0 8 7 16 15 20 23 8 18 28 -5 21 -13 -4 -20 -2 -20 7 0
7 9 19 20 26 11 7 20 17 20 24 0 6 -9 3 -20 -7 -19 -18 -20 -17 -20 3 0 12 8
25 17 31 10 5 16 12 13 14 -3 3 -13 1 -23 -4z m-607 -204 c0 -8 -4 -15 -9 -15
-13 0 -22 16 -14 24 11 11 23 6 23 -9z m-9 -35 c5 0 9 -4 9 -10 0 -16 -26 -12
-41 7 -12 15 -12 16 4 10 10 -4 23 -7 28 -7z m-3 -44 c12 -4 22 -12 22 -18 0
-5 -7 -7 -15 -4 -8 3 -22 9 -31 13 -30 11 -10 -21 22 -36 16 -8 23 -16 17 -18
-7 -3 -22 1 -34 7 -20 11 -21 10 -17 -8 3 -12 -1 -26 -12 -34 -16 -14 -17 -12
-19 31 -1 25 4 59 11 75 9 24 13 26 22 14 6 -8 21 -18 34 -22z m-124 -162
c-12 -28 -18 -34 -21 -22 -4 15 27 71 35 63 2 -2 -5 -20 -14 -41z m466 36 c0
-5 -4 -10 -9 -10 -6 0 -13 5 -16 10 -3 6 1 10 9 10 9 0 16 -4 16 -10z m-355
-18 c-3 -3 -11 0 -18 7 -9 10 -8 11 6 5 10 -3 15 -9 12 -12z m1857 -44 c-8 -8
-9 -4 -5 13 4 13 8 18 11 10 2 -7 -1 -18 -6 -23z m-2022 13 c0 -5 -7 -11 -15
-15 -9 -3 -15 0 -15 9 0 8 7 15 15 15 8 0 15 -4 15 -9z m300 -52 c0 -3 -11
-11 -25 -17 -14 -6 -25 -7 -25 -2 0 5 9 11 19 15 13 4 18 12 14 21 -3 8 -12
13 -19 10 -8 -3 -14 -1 -14 3 0 19 26 17 37 -3 7 -12 12 -24 13 -27z m214 11
c9 0 16 -5 16 -11 0 -19 -32 -5 -47 21 -13 22 -13 23 0 8 8 -10 22 -18 31 -18z
m1556 20 c0 -5 -6 -10 -13 -10 -8 0 -19 -10 -25 -22 -6 -13 -11 -17 -11 -10
-1 11 33 52 44 52 3 0 5 -4 5 -10z m-1971 -22 c5 -13 4 -35 -1 -50 -10 -29
-22 -35 -33 -18 -5 8 -11 7 -21 -1 -8 -7 -3 11 12 40 15 28 29 51 31 51 2 0 7
-10 12 -22z m-79 -4 c0 -8 -4 -12 -10 -9 -5 3 -10 10 -10 16 0 5 5 9 10 9 6 0
10 -7 10 -16z m434 -39 c-16 -46 -17 -47 -29 -25 -9 17 -14 19 -17 9 -9 -25
-16 -5 -11 30 3 18 8 28 12 22 5 -7 14 -6 31 3 14 7 26 12 27 11 2 -1 -4 -23
-13 -50z m1552 23 c4 -7 3 -8 -4 -4 -8 5 -12 0 -12 -12 0 -11 8 -23 17 -26 11
-5 13 -10 7 -14 -17 -11 -24 -53 -13 -74 6 -11 8 -22 6 -25 -8 -8 -64 81 -60
95 8 20 20 14 27 -14 4 -15 9 -24 12 -22 2 3 -1 19 -7 36 -7 22 -7 36 1 51 12
24 16 25 26 9z m-1685 -23 c5 4 6 -2 2 -11 -4 -12 -3 -15 5 -10 8 4 10 2 6 -8
-3 -8 2 -35 11 -61 8 -26 14 -48 13 -49 -2 -1 -14 -10 -28 -21 l-25 -20 22 26
23 25 -26 53 -27 53 -21 -24 c-11 -13 -18 -19 -14 -14 3 4 4 14 1 21 -2 7 5
16 16 20 12 3 21 14 22 23 0 11 2 12 6 4 2 -6 9 -10 14 -7z m549 5 c0 -5 -4
-10 -10 -10 -5 0 -10 5 -10 10 0 6 5 10 10 10 6 0 10 -4 10 -10z m18 -62 c-10
-20 -28 -24 -28 -6 0 6 6 27 13 46 l12 35 6 -29 c3 -16 2 -37 -3 -46z m1153
45 c-12 -20 -14 -14 -5 12 4 9 9 14 11 11 3 -2 0 -13 -6 -23z m-1892 -55 c1
-19 -4 -28 -14 -28 -21 0 -31 29 -17 51 7 10 12 27 13 36 1 26 17 -25 18 -59z
m381 51 c12 -7 11 -8 -5 -8 -11 0 -29 7 -40 15 -19 16 -19 16 5 9 14 -4 32
-11 40 -16z m-100 -70 c0 -15 -4 -30 -8 -33 -4 -2 -9 -22 -10 -42 -4 -55 -9
-53 -23 10 -7 31 -15 56 -19 56 -4 0 -7 7 -7 15 0 13 2 13 17 0 20 -18 33 -9
20 15 -5 10 -6 20 -3 24 12 12 33 -17 33 -45z m1747 29 c-3 -8 -6 -5 -6 6 -1
11 2 17 5 13 3 -3 4 -12 1 -19z m-2118 -14 c-15 -18 -22 -13 -13 10 3 9 10 13
16 10 5 -3 4 -12 -3 -20z m451 11 c14 -8 19 -14 12 -15 -7 0 -12 -11 -11 -27
1 -16 -2 -41 -6 -58 -7 -29 -7 -29 9 -10 16 19 16 19 6 -7 -6 -19 -6 -37 1
-55 11 -28 2 -45 -26 -49 -13 -2 -14 0 -4 12 10 12 10 15 -1 12 -9 -2 -14 11
-16 42 -2 25 -6 70 -8 100 -4 40 -2 50 5 37 6 -9 8 -21 5 -26 -3 -5 1 -14 9
-21 12 -10 14 -6 13 24 -1 22 -8 41 -17 46 -9 5 -11 9 -6 9 6 0 21 -6 35 -14z
m1468 -69 c23 -43 26 -56 17 -70 -17 -23 -22 -20 -36 22 -7 20 -14 32 -16 25
-2 -6 3 -28 11 -48 14 -32 14 -36 0 -42 -22 -8 -74 45 -74 76 0 28 48 103 61
96 4 -3 21 -29 37 -59z m-1070 23 c-3 -8 -7 -3 -11 10 -4 17 -3 21 5 13 5 -5
8 -16 6 -23z m1864 -112 c16 -20 27 -41 23 -46 -3 -5 0 -13 6 -17 8 -5 9 -3 4
7 -7 12 -6 12 7 1 9 -8 14 -20 11 -28 -4 -12 -8 -12 -21 -2 -8 7 -17 11 -19 9
-9 -7 -63 22 -63 35 0 8 -6 11 -17 7 -16 -6 -16 -4 1 16 20 22 20 22 0 15 -17
-7 -18 -6 -4 11 14 17 13 18 -2 12 -10 -3 -18 -2 -18 2 0 5 6 11 14 14 8 3 14
15 13 27 -1 11 -7 18 -13 16 -7 -3 -11 6 -11 20 0 22 3 20 30 -18 16 -24 43
-60 59 -81z m-2609 90 c-8 -12 -9 -18 -12 -39 -1 -9 -4 -8 -11 2 -14 21 -12
40 3 38 6 -2 11 3 9 10 -1 8 2 11 8 7 6 -3 7 -12 3 -18z m902 -7 l29 -30 -42
17 c-33 13 -40 19 -31 30 14 17 10 18 44 -17z m-362 -10 c-7 -26 -23 -36 -23
-14 0 14 -2 15 -17 3 -10 -7 -7 -1 6 13 26 30 42 29 34 -2z m280 -131 c-1 -3
7 -15 17 -27 11 -12 20 -28 20 -37 0 -9 4 -14 9 -11 5 3 15 -2 22 -11 12 -15
12 -16 -1 -8 -38 23 -84 2 -47 -22 6 -4 17 -16 22 -27 6 -10 15 -18 20 -16 10
2 10 5 0 30 -9 24 36 23 53 -1 8 -11 20 -18 28 -15 22 8 16 0 -12 -19 -15 -9
-23 -12 -20 -6 4 6 5 11 1 11 -3 0 -10 -11 -15 -26 l-10 -25 -34 26 c-19 15
-46 41 -60 60 -14 18 -32 39 -40 47 -7 8 -17 25 -21 38 -4 14 -16 43 -25 65
-10 22 -25 60 -35 84 l-16 45 73 -75 c40 -40 72 -77 71 -80z m1717 117 c0 -3
-4 -8 -10 -11 -5 -3 -10 -1 -10 4 0 6 5 11 10 11 6 0 10 -2 10 -4z m-2310 -62
c0 -14 -4 -22 -10 -19 -5 3 -9 17 -8 30 3 31 18 21 18 -11z m-300 -39 l-7 -50
-2 60 c0 34 3 55 8 50 4 -6 5 -32 1 -60z m1950 30 c0 -3 -4 -3 -10 0 -6 4 -10
-7 -10 -27 -1 -31 -1 -32 -15 -14 -18 24 -19 48 -4 63 9 9 15 8 25 -2 8 -7 14
-16 14 -20z m-115 -45 c-13 -13 -18 -11 -40 11 -17 16 -23 31 -19 42 5 14 10
13 40 -11 30 -24 32 -28 19 -42z m146 39 c-5 -13 -10 -19 -10 -12 -1 15 10 45
15 40 3 -2 0 -15 -5 -28z m121 12 c-11 -6 -11 -17 -3 -47 13 -48 8 -54 -15
-15 -10 17 -22 31 -26 31 -18 0 16 36 36 38 14 1 17 -1 8 -7z m74 -23 c10 -43
10 -63 0 -118 -10 -61 -27 -104 -36 -90 -9 15 0 61 11 54 8 -5 15 41 10 76 -5
43 -8 66 -11 75 -5 18 0 35 9 35 5 0 13 -15 17 -32z m-2426 12 c0 -5 -7 -10
-16 -10 -8 0 -12 5 -9 10 3 6 10 10 16 10 5 0 9 -4 9 -10z m2257 -9 c0 -11 -5
-18 -9 -15 -4 3 -5 11 -1 19 7 21 12 19 10 -4z m-982 -1 c3 -5 1 -10 -4 -10
-6 0 -11 5 -11 10 0 6 2 10 4 10 3 0 8 -4 11 -10z m875 -34 c0 -5 -7 -3 -15 4
-8 7 -12 17 -9 22 7 10 24 -9 24 -26z m875 -15 c-9 -22 -24 -42 -32 -45 -9 -4
-11 -2 -6 7 4 6 8 14 9 17 2 13 18 46 27 58 19 24 20 2 2 -37z m-1550 21 c-3
-3 -11 0 -18 7 -9 10 -8 11 6 5 10 -3 15 -9 12 -12z m-567 -23 c-6 -16 -12
-28 -14 -26 -5 5 13 57 20 57 3 0 0 -14 -6 -31z m1142 -1 c0 -6 -7 -5 -15 2
-8 7 -15 17 -15 22 0 6 7 5 15 -2 8 -7 15 -17 15 -22z m177 23 c19 16 16 -1
-7 -38 -21 -35 -48 -47 -34 -15 4 9 7 28 7 41 -1 16 2 20 10 12 7 -7 14 -7 24
0z m101 -30 c25 -45 28 -70 8 -96 -12 -17 -14 -15 -20 18 -9 46 -35 109 -36
85 0 -10 -5 -18 -11 -18 -10 0 -5 13 14 38 15 19 22 15 45 -27z m458 -2 c2
-38 -23 -94 -55 -123 -33 -30 -35 -13 -4 25 15 18 28 42 29 53 3 77 5 87 16
84 7 -3 13 -20 14 -39z m-2856 5 c0 -17 -22 -14 -28 4 -2 7 3 12 12 12 9 0 16
-7 16 -16z m204 -31 c7 20 9 18 21 -20 7 -23 23 -58 36 -79 12 -21 18 -34 11
-31 -12 8 -35 -59 -26 -75 10 -16 -6 -7 -31 17 l-25 26 5 -37 c2 -21 9 -40 14
-44 6 -3 6 -11 1 -20 -11 -17 -13 -37 -3 -27 3 4 13 -2 20 -13 11 -16 12 -24
3 -35 -6 -7 -12 -29 -12 -47 -1 -18 -3 -27 -5 -20 -3 6 -9 10 -14 6 -5 -3 -9
-1 -9 5 0 5 5 11 12 13 15 5 -17 101 -50 146 -13 18 -25 41 -27 50 -1 9 -7 16
-11 15 -5 -1 -9 15 -8 35 1 50 -3 54 -30 37 -12 -8 -26 -12 -29 -8 -4 3 3 11
15 17 13 6 25 20 27 31 2 15 0 17 -10 9 -22 -17 -49 -24 -49 -13 0 18 53 32
74 19 14 -9 13 -4 -6 22 -43 57 -41 58 29 29 l68 -29 9 21z m1089 30 c-7 -2
-19 -2 -25 0 -7 3 -2 5 12 5 14 0 19 -2 13 -5z m34 -19 c-3 -3 -12 -4 -19 -1
-8 3 -5 6 6 6 11 1 17 -2 13 -5z m1663 -2 c0 -13 -12 -22 -22 -16 -10 6 -1 24
13 24 5 0 9 -4 9 -8z m-2935 -22 c-3 -5 -13 -10 -21 -10 -8 0 -14 5 -14 10 0
6 9 10 21 10 11 0 17 -4 14 -10z m2970 -4 c12 -12 12 -15 -1 -20 -20 -8 -34 1
-34 20 0 18 17 18 35 0z m-747 -42 c-33 -46 -48 -61 -48 -48 0 8 69 94 76 94
3 0 -10 -21 -28 -46z m-1968 2 c0 -3 -4 -8 -10 -11 -5 -3 -10 -1 -10 4 0 6 5
11 10 11 6 0 10 -2 10 -4z m481 -10 c-6 -8 -11 -18 -10 -22 1 -5 0 -20 -1 -34
-2 -23 -3 -23 -12 7 -12 38 -5 63 18 63 13 0 14 -3 5 -14z m1576 -8 c-3 -8 -6
-5 -6 6 -1 11 2 17 5 13 3 -3 4 -12 1 -19z m-569 -17 c18 -13 31 -26 28 -29
-4 -3 1 -14 11 -24 30 -33 1 -19 -31 15 -17 19 -39 37 -48 40 -21 7 -24 26 -5
23 7 -1 27 -12 45 -25z m33 12 c13 -16 12 -17 -3 -4 -10 7 -18 15 -18 17 0 8
8 3 21 -13z m819 -8 c-7 -8 -17 -15 -23 -15 -5 0 -2 9 8 20 21 23 35 19 15 -5z
m-50 0 c-7 -9 -15 -13 -19 -10 -3 3 1 10 9 15 21 14 24 12 10 -5z m520 11 c0
-3 -4 -8 -10 -11 -5 -3 -10 -1 -10 4 0 6 5 11 10 11 6 0 10 -2 10 -4z m-550
-28 c0 -6 -6 -5 -15 2 -8 7 -15 14 -15 16 0 2 7 1 15 -2 8 -4 15 -11 15 -16z
m-134 -14 c-4 -9 -9 -15 -11 -12 -3 3 -3 13 1 22 4 9 9 15 11 12 3 -3 3 -13
-1 -22z m434 -8 c10 -13 10 -17 3 -12 -9 5 -13 1 -13 -11 0 -20 -18 -43 -33
-43 -4 0 -5 6 -2 13 4 6 -3 1 -14 -13 -13 -15 -21 -20 -21 -11 0 11 -4 11 -18
-2 -10 -10 -23 -17 -28 -17 -4 0 2 7 14 16 12 8 22 21 22 27 0 9 74 81 75 74
1 -1 7 -11 15 -21z m25 14 c3 -6 -1 -7 -9 -4 -18 7 -21 14 -7 14 6 0 13 -4 16
-10z m-2800 -20 c-3 -5 -12 -10 -18 -10 -7 0 -6 4 3 10 19 12 23 12 15 0z
m585 -10 c0 -12 -28 -25 -36 -17 -9 9 6 27 22 27 8 0 14 -5 14 -10z m1770 -55
c19 -51 11 -109 -25 -182 -19 -38 -44 -78 -56 -89 -16 -14 -13 -6 11 32 50 81
59 190 23 292 -10 28 36 -24 47 -53z m555 45 c17 0 24 -40 13 -71 -7 -18 -11
-21 -18 -9 -7 12 -11 12 -27 0 -17 -14 -17 -14 -1 5 14 17 21 75 9 75 -3 0
-14 -8 -25 -17 -14 -12 -13 -9 4 10 13 16 26 23 28 18 2 -6 10 -11 17 -11z
m-2705 -39 c0 -32 -6 -24 -14 19 -4 25 -3 31 4 20 5 -8 10 -26 10 -39z m2360
39 c0 -5 -5 -10 -11 -10 -5 0 -7 5 -4 10 3 6 8 10 11 10 2 0 4 -4 4 -10z
m-143 -37 c-3 -10 -5 -4 -5 12 0 17 2 24 5 18 2 -7 2 -21 0 -30z m-978 -94
c10 -28 -4 -63 -21 -53 -6 4 -8 -2 -3 -17 4 -17 3 -20 -3 -10 -8 11 -11 10
-20 -4 -8 -15 -11 -11 -17 24 -7 42 -5 159 3 175 5 8 43 -65 61 -115z m-1529
101 c8 -5 12 -11 9 -14 -3 -3 -14 1 -25 9 -21 16 -8 20 16 5z m2960 -15 c-7
-8 -17 -15 -23 -15 -6 0 -2 7 9 15 25 19 30 19 14 0z m-1670 -11 c0 -8 -4 -12
-10 -9 -5 3 -10 10 -10 16 0 5 5 9 10 9 6 0 10 -7 10 -16z m1360 -9 c-7 -9
-15 -13 -19 -10 -3 3 1 10 9 15 21 14 24 12 10 -5z m210 0 c0 -7 -57 -35 -72
-35 -16 0 42 38 60 39 6 1 12 -1 12 -4z m-2845 -15 c3 -5 2 -10 -4 -10 -5 0
-13 5 -16 10 -3 6 -2 10 4 10 5 0 13 -4 16 -10z m55 0 c0 -5 -7 -10 -16 -10
-8 0 -12 5 -9 10 3 6 10 10 16 10 5 0 9 -4 9 -10z m1767 4 c-3 -3 -12 -4 -19
-1 -8 3 -5 6 6 6 11 1 17 -2 13 -5z m1058 -53 c19 -11 19 -12 -3 -6 -20 6 -22
4 -17 -17 5 -21 1 -26 -29 -35 -43 -13 -50 4 -13 31 22 16 22 16 0 6 -28 -13
-33 -13 -33 2 0 7 12 22 28 35 21 17 29 19 37 9 6 -7 19 -18 30 -25z m-2617
-6 c19 2 20 1 5 -2 -29 -6 -30 -31 -1 -42 l22 -8 -22 -5 c-15 -4 -22 -2 -22 9
0 8 -4 11 -10 8 -6 -4 -7 1 -3 11 4 12 3 15 -5 10 -7 -4 -12 -5 -12 -2 0 2 -3
13 -6 23 -5 15 -4 15 5 3 9 -12 11 -11 12 10 1 21 2 22 6 4 3 -15 11 -20 31
-19z m143 12 c-10 -9 -11 -8 -5 6 3 10 9 15 12 12 3 -3 0 -11 -7 -18z m943 8
c-4 -8 -8 -15 -10 -15 -2 0 -4 7 -4 15 0 8 4 15 10 15 5 0 7 -7 4 -15z m-1274
-5 c-20 -13 -43 -13 -35 0 3 6 16 10 28 10 18 0 19 -2 7 -10z m1640 -16 c0 -8
-5 -12 -10 -9 -6 4 -8 11 -5 16 9 14 15 11 15 -7z m30 1 c0 -8 -4 -15 -10 -15
-5 0 -10 7 -10 15 0 8 5 15 10 15 6 0 10 -7 10 -15z m1350 0 c0 -8 -4 -15 -10
-15 -5 0 -7 7 -4 15 4 8 8 15 10 15 2 0 4 -7 4 -15z m-2995 -14 c-16 -14 -55
-23 -55 -12 0 5 12 12 28 14 15 2 29 5 32 6 2 0 0 -3 -5 -8z m353 -19 c6 -18
-15 -14 -22 4 -4 10 -1 14 6 12 6 -2 14 -10 16 -16z m1666 -24 c-1 -18 -3 -35
-3 -37 -1 -3 -6 0 -13 7 -9 9 -8 17 2 37 17 32 18 32 14 -7z m931 14 c-3 -3
-11 0 -18 7 -9 10 -8 11 6 5 10 -3 15 -9 12 -12z m-2939 -7 c-11 -8 -29 -15
-40 -14 -15 0 -10 4 14 13 46 18 48 18 26 1z m2557 -10 c1 -5 -6 -11 -15 -13
-11 -2 -18 3 -18 13 0 17 30 18 33 0z m-1113 -11 c0 -8 -4 -12 -10 -9 -5 3
-10 10 -10 16 0 5 5 9 10 9 6 0 10 -7 10 -16z m621 -7 c-10 -9 -11 -8 -5 6 3
10 9 15 12 12 3 -3 0 -11 -7 -18z m589 19 c0 -3 -4 -8 -10 -11 -5 -3 -10 -1
-10 4 0 6 5 11 10 11 6 0 10 -2 10 -4z m135 -7 c19 -9 18 -9 -2 -5 -31 6 -29
-10 5 -29 26 -15 26 -15 2 -9 -22 6 -23 5 -11 -10 7 -9 20 -16 27 -16 8 0 14
-5 14 -10 0 -7 -6 -7 -20 0 -11 6 -20 7 -20 2 0 -14 23 -32 42 -32 35 0 18
-28 -29 -48 -96 -41 -129 -38 -83 8 11 11 20 25 20 30 0 16 -20 12 -26 -5 -4
-8 -11 -15 -17 -15 -5 0 -3 8 6 18 25 27 22 50 -3 27 -11 -10 -20 -13 -20 -8
0 6 7 16 15 23 8 7 15 19 15 28 0 13 -2 13 -18 -1 -10 -10 -22 -17 -27 -17 -5
0 1 9 13 20 12 12 22 25 22 31 0 11 37 28 60 28 8 0 24 -5 35 -10z m-1723 -21
c-7 -7 -12 -8 -12 -2 0 14 12 26 19 19 2 -3 -1 -11 -7 -17z m-776 -15 c-7 -7
-26 7 -26 19 0 6 6 6 15 -2 9 -7 13 -15 11 -17z m1314 6 c0 -18 -2 -19 -15 -9
-8 7 -15 16 -15 21 0 5 7 9 15 9 9 0 15 -9 15 -21z m-1617 4 c-7 -2 -19 -2
-25 0 -7 3 -2 5 12 5 14 0 19 -2 13 -5z m1189 -15 c-7 -7 -13 -21 -13 -32 -1
-18 -2 -18 -6 -3 -2 9 -10 15 -16 11 -7 -3 -1 4 12 15 25 22 43 29 23 9z m192
-14 c3 -8 2 -12 -4 -9 -6 3 -10 10 -10 16 0 14 7 11 14 -7z m1210 1 c3 -8 15
-15 26 -15 11 0 20 -4 20 -9 0 -5 -10 -7 -22 -3 -19 4 -21 3 -11 -9 11 -14 13
-19 13 -39 0 -5 11 -10 25 -10 14 0 25 -5 25 -11 0 -6 -9 -8 -20 -4 -12 4 -20
2 -20 -5 0 -6 14 -13 30 -17 43 -8 45 -18 8 -41 -34 -21 -108 -40 -108 -27 0
4 9 18 20 32 28 36 25 51 -5 23 -30 -28 -33 -18 -5 17 11 15 18 29 14 32 -3 3
-14 -5 -24 -19 -11 -14 -20 -20 -20 -14 0 6 7 17 15 24 8 7 15 19 15 28 0 12
-4 12 -22 -4 l-23 -19 18 22 c13 14 17 29 12 44 -10 31 27 55 39 24z m33 9
c-3 -3 -12 -4 -19 -1 -8 3 -5 6 6 6 11 1 17 -2 13 -5z m403 2 c0 -3 -4 -8 -10
-11 -5 -3 -10 -1 -10 4 0 6 5 11 10 11 6 0 10 -2 10 -4z m-3013 -12 c-3 -3
-12 -4 -19 -1 -8 3 -5 6 6 6 11 1 17 -2 13 -5z m2022 -36 c-13 -26 -24 -37
-27 -29 -2 7 0 16 5 20 6 3 15 16 22 29 6 12 14 22 17 22 2 0 -5 -19 -17 -42z
m491 27 c-7 -9 -15 -13 -19 -10 -3 3 1 10 9 15 21 14 24 12 10 -5z m-2259 -13
c22 28 55 18 39 -12 -9 -17 -6 -21 22 -30 32 -10 32 -10 -10 -6 -38 4 -41 3
-25 -9 10 -7 15 -17 11 -21 -9 -9 -50 25 -43 36 3 4 -5 11 -18 14 -12 3 -33
15 -47 26 l-25 21 40 -21 40 -20 16 22z m260 -47 c7 -14 4 -12 -11 5 -11 14
-25 34 -31 45 -7 14 -4 12 11 -5 11 -14 25 -34 31 -45z m30 38 c13 -16 12 -17
-3 -4 -17 13 -22 21 -14 21 2 0 10 -8 17 -17z m1261 -3 c-3 -8 -12 -23 -20
-32 -11 -13 -12 -21 -4 -31 6 -7 9 -27 7 -44 -3 -23 0 -31 9 -27 7 3 16 -2 19
-10 7 -18 -10 -21 -32 -7 -8 5 -12 18 -9 29 4 13 0 23 -9 26 -8 4 -13 16 -11
33 2 20 -3 30 -22 40 -17 8 -19 13 -9 13 9 0 19 7 23 15 8 22 66 17 58 -5z
m1088 -14 c0 -16 -18 -31 -27 -22 -8 8 5 36 17 36 5 0 10 -6 10 -14z m-2525
-6 c3 -5 1 -10 -4 -10 -6 0 -11 5 -11 10 0 6 2 10 4 10 3 0 8 -4 11 -10z m816
-42 l-9 -33 -1 32 c-1 31 -2 32 -29 22 -23 -8 -28 -15 -27 -37 2 -19 1 -20 -2
-4 -2 12 -9 22 -14 22 -5 0 -4 6 3 14 7 8 15 13 18 11 3 -2 19 3 35 9 35 15
39 9 26 -36z m420 -68 c9 -7 17 -80 8 -80 -4 0 -10 8 -12 18 -3 9 -6 1 -7 -18
-1 -19 -4 -29 -7 -21 -5 11 -7 11 -14 0 -8 -12 -11 -11 -19 1 -6 9 -10 10 -10
3 0 -7 8 -17 18 -22 9 -6 11 -11 5 -11 -8 0 -13 -13 -13 -32 0 -17 -2 -29 -5
-26 -11 10 -15 54 -21 183 l-5 130 37 -60 c21 -33 41 -62 45 -65z m1036 104
c-3 -3 -12 -4 -19 -1 -8 3 -5 6 6 6 11 1 17 -2 13 -5z m-947 -41 c0 -30 -16
-22 -22 11 -4 17 -1 23 9 19 7 -3 13 -16 13 -30z m620 10 c0 -21 -3 -24 -9
-14 -5 8 -7 20 -4 28 8 21 13 15 13 -14z m760 -3 c7 -13 7 -20 1 -20 -6 0 -15
9 -21 20 -7 13 -7 20 -1 20 6 0 15 -9 21 -20z m-2700 0 c10 0 11 -3 3 -11 -14
-14 -55 -8 -61 10 -4 10 1 12 19 8 13 -4 31 -7 39 -7z m660 0 c0 -5 -4 -10
-10 -10 -5 0 -10 5 -10 10 0 6 5 10 10 10 6 0 10 -4 10 -10z m196 -10 c8 0 14
-4 14 -9 0 -5 3 -17 7 -27 4 -11 3 -15 -4 -11 -6 4 -14 1 -17 -5 -3 -7 -3 1 0
17 4 30 4 30 -7 5 -6 -14 -11 -54 -10 -90 0 -36 -3 -71 -8 -79 -5 -8 -7 5 -4
35 3 32 1 44 -5 36 -7 -10 -11 -3 -15 24 -7 42 1 63 15 43 6 -9 7 -1 3 24 -6
36 4 75 13 49 2 -7 10 -12 18 -12z m493 13 c0 -5 -4 -17 -9 -28 -8 -18 -9 -17
-9 8 -1 15 4 27 9 27 6 0 10 -3 9 -7z m-262 -20 c2 -6 -4 -20 -14 -30 -22 -22
-29 -83 -11 -95 9 -5 4 -8 -13 -8 -23 0 -25 3 -23 41 1 23 7 45 14 49 7 4 9
13 5 19 -11 18 3 43 22 39 9 -2 18 -8 20 -15z m-300 -15 c-3 -8 -6 -5 -6 6 -1
11 2 17 5 13 3 -3 4 -12 1 -19z m127 -29 c-3 -5 -10 -7 -15 -3 -5 3 -7 10 -3
15 3 5 10 7 15 3 5 -3 7 -10 3 -15z m196 0 c0 -5 -4 -9 -10 -9 -5 0 -10 7 -10
16 0 8 5 12 10 9 6 -3 10 -10 10 -16z m980 -9 c7 -13 21 -20 40 -20 32 0 40
-14 14 -24 -39 -15 -60 -6 -71 29 -12 38 0 48 17 15z m-430 -10 c0 -8 -73 -40
-79 -35 -2 2 9 15 25 28 26 23 54 26 54 7z m35 10 c-3 -5 -11 -10 -16 -10 -6
0 -7 5 -4 10 3 6 11 10 16 10 6 0 7 -4 4 -10z m438 3 c-7 -2 -19 -2 -25 0 -7
3 -2 5 12 5 14 0 19 -2 13 -5z m-995 -35 c-3 -36 -18 -54 -30 -35 -12 18 -9
57 3 57 6 0 8 -7 5 -16 -3 -8 -2 -12 4 -9 6 3 10 13 10 21 0 8 2 14 5 14 3 0
4 -15 3 -32z m157 2 c-4 -12 -9 -19 -12 -17 -3 3 -2 15 2 27 4 12 9 19 12 17
3 -3 2 -15 -2 -27z m28 -5 c-5 -13 -23 -22 -23 -11 0 15 14 35 21 31 4 -3 6
-12 2 -20z m-663 -17 l24 -33 -31 25 c-17 14 -28 28 -26 33 6 11 7 10 33 -25z
m274 -9 c3 -14 3 -29 -1 -33 -9 -9 -34 54 -27 66 8 13 20 -1 28 -33z m73 9
c-3 -8 -6 -5 -6 6 -1 11 2 17 5 13 3 -3 4 -12 1 -19z m60 0 c-3 -8 -6 -5 -6 6
-1 11 2 17 5 13 3 -3 4 -12 1 -19z m-1052 2 c-7 -11 -65 -9 -65 3 0 4 16 7 36
7 20 0 33 -4 29 -10z m794 -88 c1 -30 -3 -51 -8 -48 -13 9 -24 101 -15 128 l8
23 7 -25 c4 -14 7 -49 8 -78z m53 27 l-9 -54 0 63 c0 40 3 60 9 54 6 -6 6 -30
0 -63z m39 36 c4 -39 -1 -66 -11 -60 -6 3 -9 26 -8 50 3 43 16 49 19 10z m766
3 c-6 -38 -45 -133 -52 -126 -6 6 15 69 29 87 6 7 11 19 12 25 0 6 2 19 2 29
1 9 5 17 8 17 3 0 4 -15 1 -32z m-1019 -1 c39 -29 63 -59 91 -115 56 -111 44
-118 -23 -13 -24 36 -51 73 -61 81 -11 9 -6 -5 13 -32 97 -144 97 -144 72
-123 -13 11 -45 41 -71 68 -26 26 -54 47 -62 47 -7 0 -26 13 -41 29 l-27 28
31 27 c38 32 38 32 78 3z m812 13 c0 -5 -2 -10 -4 -10 -3 0 -8 5 -11 10 -3 6
-1 10 4 10 6 0 11 -4 11 -10z m-970 -25 c-7 -9 -15 -13 -17 -11 -7 7 7 26 19
26 6 0 6 -6 -2 -15z m256 -5 c2 -35 4 -41 13 -36 12 8 18 -10 26 -70 l6 -49
-15 39 c-8 21 -20 44 -26 50 -7 6 -5 -3 4 -21 23 -46 19 -55 -5 -10 -11 21
-17 42 -14 47 3 6 -1 10 -10 10 -20 0 -37 42 -21 52 17 12 41 5 42 -12z m230
-7 c-10 -10 -19 5 -10 18 6 11 8 11 12 0 2 -7 1 -15 -2 -18z m-826 -3 c0 -5
-5 -10 -11 -10 -5 0 -7 5 -4 10 3 6 8 10 11 10 2 0 4 -4 4 -10z m996 -27 c-11
-11 -17 4 -9 23 7 18 8 18 11 1 2 -10 1 -21 -2 -24z m395 -9 c-9 -28 -9 -29
-10 -3 -1 14 2 29 6 32 11 12 13 2 4 -29z m-1301 12 c0 -8 -7 -16 -15 -20 -8
-3 -15 -14 -15 -25 0 -10 -7 -22 -16 -25 -46 -18 -47 44 -1 66 42 20 47 21 47
4z m803 -6 c-3 -11 -7 -20 -8 -20 -1 0 -5 9 -8 20 -3 12 0 20 8 20 8 0 11 -8
8 -20z m16 -51 c-6 -35 -15 -67 -18 -72 -9 -9 6 119 15 134 12 21 13 1 3 -62z
m199 46 c-3 -13 -1 -22 3 -19 5 3 9 1 9 -4 0 -5 -9 -12 -19 -15 -15 -4 -18 0
-17 18 3 23 14 45 23 45 3 0 3 -11 1 -25z m-1129 -11 c1 -1 -13 -6 -33 -10
-39 -7 -52 -2 -42 15 6 9 63 5 75 -5z m1221 12 c0 -2 -8 -10 -17 -17 -16 -13
-17 -12 -4 4 13 16 21 21 21 13z m-396 -21 c-4 -8 -8 -15 -10 -15 -2 0 -4 7
-4 15 0 8 4 15 10 15 5 0 7 -7 4 -15z m72 -10 c7 -17 -14 -48 -26 -40 -10 6 0
55 11 55 6 0 12 -7 15 -15z m-872 -27 c5 -25 2 -36 -11 -46 -16 -12 -18 -10
-21 18 -6 61 21 84 32 28z m96 4 c0 -15 -22 -30 -36 -25 -11 4 -12 9 -3 19 12
15 39 19 39 6z m650 -11 c0 -4 -6 -16 -14 -26 -12 -17 -13 -16 -12 12 1 20 5
29 14 26 6 -3 12 -8 12 -12z m233 -6 c-3 -9 -8 -14 -10 -11 -3 3 -2 9 2 15 9
16 15 13 8 -4z m743 -5 c0 -22 -22 -35 -32 -19 -8 14 3 39 19 39 7 0 13 -9 13
-20z m-951 -40 c3 -5 1 -10 -4 -10 -6 0 -11 5 -11 10 0 6 2 10 4 10 3 0 8 -4
11 -10z m-5 -44 c0 -9 -5 -16 -11 -16 -5 0 -7 -6 -3 -12 5 -8 0 -7 -11 2 -14
11 -19 12 -22 3 -3 -7 -9 -13 -15 -13 -7 0 -7 5 1 13 6 8 8 17 4 20 -3 4 2 16
12 27 15 16 19 17 31 5 8 -7 14 -21 14 -29z m40 -9 c0 -3 -6 -7 -14 -10 -9 -4
-13 2 -13 18 0 20 2 22 13 10 8 -7 14 -16 14 -18z"/>
<path d="M2242 930 c0 -14 2 -19 5 -12 2 6 2 18 0 25 -3 6 -5 1 -5 -13z"/>
<path d="M1170 2116 c0 -9 -4 -15 -9 -11 -5 3 -12 1 -16 -5 -3 -5 1 -10 10
-10 16 0 32 26 21 37 -3 4 -6 -1 -6 -11z"/>
<path d="M910 1990 c-8 -5 -12 -11 -9 -14 2 -3 11 -1 19 4 8 5 12 11 9 14 -2
3 -11 1 -19 -4z"/>
<path d="M565 1946 c5 -52 9 -60 22 -55 5 2 0 27 -9 54 l-18 50 5 -49z"/>
<path d="M946 1959 c-18 -14 -26 -16 -27 -7 0 7 -4 4 -8 -6 -5 -12 -2 -32 7
-49 l15 -30 14 34 c24 56 33 79 29 79 -2 0 -15 -9 -30 -21z m-16 -39 c0 -5 -2
-10 -4 -10 -3 0 -8 5 -11 10 -3 6 -1 10 4 10 6 0 11 -4 11 -10z"/>
<path d="M3310 1959 c0 -37 109 -188 117 -163 5 14 -67 158 -75 150 -3 -3 -14
1 -24 11 -14 13 -18 13 -18 2z"/>
<path d="M430 1900 c-22 -7 -21 -8 11 -9 20 -1 52 -4 70 -7 23 -4 29 -2 19 4
-23 14 -72 20 -100 12z"/>
<path d="M2486 1811 c-26 -55 -51 -101 -56 -103 -4 -2 -10 -31 -14 -65 -6 -52
-4 -63 8 -63 8 0 19 7 24 16 7 13 12 8 25 -25 10 -23 17 -50 17 -61 0 -11 5
-20 10 -20 6 0 10 5 10 10 0 6 7 10 15 10 17 0 20 37 5 60 -8 12 -10 12 -10 1
0 -8 -3 -12 -6 -8 -3 3 -5 8 -4 12 0 3 -6 13 -15 21 -18 18 -21 49 -3 38 6 -4
8 -3 4 4 -7 11 8 52 34 92 25 38 28 61 16 124 l-12 57 -48 -100z m42 -286 c-3
-3 -9 2 -12 12 -6 14 -5 15 5 6 7 -7 10 -15 7 -18z"/>
<path d="M2886 1893 c-6 -14 -5 -15 5 -6 7 7 10 15 7 18 -3 3 -9 -2 -12 -12z"/>
<path d="M814 1865 c13 -38 26 -56 26 -36 0 13 -28 71 -34 71 -2 0 2 -16 8
-35z"/>
<path d="M1319 1883 c-13 -16 -12 -17 4 -4 9 7 17 15 17 17 0 8 -8 3 -21 -13z"/>
<path d="M2727 1840 c3 -11 7 -20 9 -20 2 0 4 9 4 20 0 11 -4 20 -9 20 -5 0
-7 -9 -4 -20z"/>
<path d="M2308 1830 c-10 -10 -14 -22 -9 -24 4 -3 13 6 19 19 14 30 12 31 -10
5z"/>
<path d="M4253 1835 c-6 -7 -21 -31 -33 -55 -14 -28 -25 -39 -29 -31 -10 15
-20 3 -51 -59 -29 -58 -107 -160 -129 -168 -23 -8 -81 -73 -75 -84 3 -4 13 -4
24 2 15 8 19 5 24 -16 8 -32 -1 -64 -26 -87 -13 -13 -17 -25 -11 -40 12 -34 5
-94 -16 -143 -11 -25 -16 -42 -11 -39 6 4 10 2 10 -4 0 -6 7 -8 15 -5 11 5 15
-1 15 -26 0 -17 4 -29 8 -26 5 3 8 31 8 63 -1 39 4 66 15 83 19 30 41 91 34
98 -2 2 6 13 18 24 l22 19 -22 -11 c-38 -18 -26 3 38 69 69 72 118 144 158
234 30 66 57 165 48 174 -3 3 -17 -18 -31 -46 -35 -68 -41 -65 -10 4 26 57 30
95 7 70z m-133 -292 c-16 -32 -41 -71 -54 -88 l-23 -29 -8 33 c-6 30 -3 36 52
86 32 30 59 54 61 55 2 0 -11 -26 -28 -57z"/>
<path d="M2842 1820 c-6 -11 -8 -21 -3 -25 5 -3 13 4 16 16 9 28 2 33 -13 9z"/>
<path d="M418 1823 c-40 -10 -10 -39 40 -38 20 0 32 -4 32 -12 0 -7 5 -13 12
-13 9 0 9 -3 0 -12 -7 -7 -12 -17 -12 -22 0 -6 5 -4 10 4 8 12 10 8 11 -15 1
-29 1 -29 8 -5 l8 25 5 -25 c4 -17 5 -14 4 12 0 20 -4 34 -8 32 -4 -2 -9 4
-12 14 -15 47 -52 67 -98 55z"/>
<path d="M2000 1818 c0 -9 5 -20 10 -23 13 -8 13 5 0 25 -8 13 -10 13 -10 -2z"/>
<path d="M2371 1805 c9 -11 19 -27 22 -35 5 -13 6 -13 6 1 1 9 -9 24 -21 35
-23 19 -23 19 -7 -1z"/>
<path d="M690 1802 c0 -5 10 -17 21 -28 22 -19 22 -19 10 3 -12 24 -31 39 -31
25z"/>
<path d="M2312 1770 c-9 -15 -10 -26 -2 -39 7 -14 6 -21 -3 -24 -9 -4 -9 -8 2
-15 8 -6 11 -17 7 -27 -4 -11 0 -25 10 -36 9 -10 13 -23 9 -29 -4 -6 -28 6
-63 34 -69 53 -147 98 -155 90 -9 -9 -48 6 -42 17 4 5 -2 6 -12 2 -10 -3 -15
-3 -11 2 9 10 -10 35 -25 35 -6 0 -2 -7 9 -16 16 -13 16 -15 2 -10 -29 9 -20
-7 17 -33 45 -31 47 -65 5 -89 -33 -19 -32 -29 3 -71 32 -40 66 -63 101 -70
21 -5 32 -14 37 -31 l6 -25 5 25 c5 23 5 23 7 -5 2 -43 19 -19 27 38 6 38 4
47 -8 47 -9 0 -35 19 -59 43 -39 39 -46 36 -11 -6 24 -27 6 -32 -27 -6 -43 35
-54 59 -42 92 l11 27 68 -34 c38 -19 89 -50 113 -69 l45 -34 18 40 c9 22 15
47 13 56 -4 14 -5 14 -6 -1 0 -10 -5 -18 -11 -18 -5 0 -7 14 -4 33 5 26 3 29
-6 17 -9 -12 -10 -5 -6 30 4 33 3 40 -5 25 -7 -16 -8 -12 -5 18 3 20 4 37 3
37 -1 0 -8 -9 -15 -20z"/>
<path d="M2804 1780 c-32 -50 -41 -80 -26 -80 13 0 45 65 40 80 -4 12 -6 11
-14 0z"/>
<path d="M2093 1745 c0 -8 4 -15 9 -15 4 0 8 7 8 15 0 8 -4 15 -8 15 -5 0 -9
-7 -9 -15z"/>
<path d="M759 1683 c12 -24 31 -39 31 -25 0 5 -10 17 -21 28 -22 19 -22 19
-10 -3z"/>
<path d="M1616 1684 c-9 -25 -7 -56 4 -49 6 3 10 17 10 30 0 14 7 25 18 28 13
4 12 5 -4 6 -12 0 -25 -6 -28 -15z"/>
<path d="M4062 1665 c-17 -38 -15 -42 9 -16 13 14 18 26 12 32 -6 6 -14 0 -21
-16z"/>
<path d="M3132 1635 c0 -16 2 -22 5 -12 2 9 2 23 0 30 -3 6 -5 -1 -5 -18z"/>
<path d="M2015 1640 c-3 -6 1 -7 9 -4 18 7 21 14 7 14 -6 0 -13 -4 -16 -10z"/>
<path d="M2382 1590 c0 -14 2 -19 5 -12 2 6 2 18 0 25 -3 6 -5 1 -5 -13z"/>
<path d="M3072 1590 c0 -14 2 -19 5 -12 2 6 2 18 0 25 -3 6 -5 1 -5 -13z"/>
<path d="M1988 1574 c6 -11 19 -27 28 -35 16 -13 16 -12 6 7 -6 11 -19 27 -28
35 -16 13 -16 12 -6 -7z"/>
<path d="M2428 1548 c-10 -10 -13 -18 -7 -18 6 0 9 -7 5 -15 -3 -8 -2 -25 3
-37 6 -18 9 -11 13 32 3 30 5 55 4 56 0 0 -9 -8 -18 -18z"/>
<path d="M2615 1530 c3 -5 2 -10 -3 -10 -5 0 -12 -9 -15 -21 -5 -20 -5 -20 14
-3 21 19 26 44 8 44 -5 0 -7 -4 -4 -10z"/>
<path d="M2300 1505 c0 -8 -5 -15 -11 -15 -6 0 -10 -10 -9 -22 4 -44 1 -50
-22 -42 -27 8 -25 6 26 -35 22 -18 45 -30 52 -27 6 2 22 -6 35 -20 38 -41 39
-27 3 41 -19 36 -32 70 -29 75 3 5 1 18 -4 29 -14 24 -41 35 -41 16z"/>
<path d="M2456 1467 c-5 -15 -6 -31 -2 -34 11 -11 18 5 14 34 l-4 28 -8 -28z"/>
<path d="M2617 1472 c-9 -10 -17 -28 -17 -40 0 -21 -9 -26 -72 -37 -21 -3 -38
-8 -38 -11 0 -25 120 -200 135 -197 6 1 13 12 17 25 4 17 6 18 7 5 1 -10 11
-21 24 -26 18 -7 24 -4 35 15 23 43 50 144 40 150 -5 3 -1 12 8 18 17 13 11
41 -7 31 -5 -4 -9 -1 -9 6 0 7 -3 9 -7 5 -5 -4 -8 -11 -8 -15 0 -14 -33 -40
-40 -33 -5 4 -5 -1 -2 -11 4 -11 0 -28 -8 -40 -8 -12 -15 -18 -15 -14 0 5 -7
1 -16 -8 -9 -9 -19 -14 -21 -11 -7 6 29 66 40 66 5 0 5 10 2 21 -5 13 -2 25 6
29 10 7 10 16 -2 46 -17 45 -30 51 -52 26z m-34 -112 c-3 -11 -9 -20 -14 -20
-14 0 -11 28 4 33 6 3 13 6 14 6 0 1 -1 -8 -4 -19z m153 -27 c-5 -12 -9 -13
-21 -3 -11 9 -12 17 -4 33 11 19 12 19 21 3 5 -9 7 -24 4 -33z m-70 -69 c-4
-9 -9 -15 -11 -12 -3 3 -3 13 1 22 4 9 9 15 11 12 3 -3 3 -13 -1 -22z"/>
<path d="M3393 1440 c0 -30 2 -43 4 -27 2 15 2 39 0 55 -2 15 -4 2 -4 -28z"/>
<path d="M2711 1190 c-14 -28 -28 -50 -33 -50 -11 0 3 -29 37 -77 17 -23 37
-42 45 -42 13 -1 13 0 0 9 -13 8 -12 10 4 10 17 0 18 5 12 48 -9 69 -28 152
-35 152 -3 0 -17 -23 -30 -50z"/>
<path d="M716 1213 c-11 -11 -6 -23 9 -23 8 0 15 4 15 9 0 13 -16 22 -24 14z"/>
<path d="M2831 1174 c0 -11 3 -14 6 -6 3 7 2 16 -1 19 -3 4 -6 -2 -5 -13z"/>
<path d="M2650 1171 c0 -6 9 -9 20 -8 11 1 20 5 20 9 0 4 -9 8 -20 8 -11 0
-20 -4 -20 -9z"/>
<path d="M2757 958 c-40 -32 -61 -54 -52 -56 8 -2 25 5 38 15 25 19 92 93 85
93 -2 0 -34 -24 -71 -52z"/>
<path d="M3977 844 c-4 -4 -7 -14 -7 -23 0 -11 3 -12 11 -4 6 6 10 16 7 23 -2
6 -7 8 -11 4z"/>
<path d="M3822 615 c0 -16 2 -22 5 -12 2 9 2 23 0 30 -3 6 -5 -1 -5 -18z"/>
<path d="M931 585 c0 -11 34 -55 42 -55 3 0 3 9 0 20 -3 11 -11 20 -18 20 -7
0 -16 6 -18 13 -3 6 -6 8 -6 2z"/>
<path d="M979 558 c4 -13 6 -28 4 -34 -2 -6 4 -17 13 -25 16 -13 16 -12 6 6
-7 14 -7 26 0 39 8 14 7 17 -1 12 -6 -4 -11 -1 -11 8 0 9 -4 16 -10 16 -6 0
-6 -9 -1 -22z"/>
<path d="M3274 507 c-1 -30 -1 -30 9 -9 6 14 7 26 1 32 -5 5 -9 -4 -10 -23z"/>
<path d="M3811 504 c0 -11 3 -14 6 -6 3 7 2 16 -1 19 -3 4 -6 -2 -5 -13z"/>
<path d="M1016 481 c-7 -11 33 -53 45 -46 5 4 9 14 9 23 0 15 -2 15 -10 2 -8
-13 -10 -13 -10 1 0 18 -26 33 -34 20z"/>
<path d="M2736 468 c-9 -34 -7 -50 4 -43 6 3 10 1 10 -4 0 -6 5 -11 10 -11 15
0 12 56 -4 69 -11 9 -15 7 -20 -11z"/>
<path d="M3230 480 c0 -5 5 -10 11 -10 5 0 7 5 4 10 -3 6 -8 10 -11 10 -2 0
-4 -4 -4 -10z"/>
<path d="M1874 458 c10 -7 36 -28 58 -45 22 -18 45 -33 50 -33 15 0 -60 59
-97 76 -18 8 -22 9 -11 2z"/>
<path d="M2661 461 c-7 -5 -12 -13 -10 -18 2 -5 12 -1 22 9 18 19 12 24 -12 9z"/>
<path d="M2788 447 c-12 -29 -10 -63 3 -50 6 6 9 23 7 39 -2 24 -4 26 -10 11z"/>
<path d="M1096 405 c-18 -13 -17 -14 8 -21 33 -8 40 -3 23 19 -10 14 -14 14
-31 2z"/>
<path d="M1210 401 c0 -11 -6 -22 -12 -24 -8 -3 -6 -6 5 -6 12 -1 17 7 17 24
0 14 -2 25 -5 25 -3 0 -5 -9 -5 -19z"/>
<path d="M1340 407 c0 -7 5 -18 12 -25 9 -9 9 -18 -1 -39 l-13 -28 22 22 c19
21 20 25 5 53 -17 32 -25 38 -25 17z"/>
<path d="M1145 400 c3 -5 13 -10 21 -10 8 0 12 5 9 10 -3 6 -13 10 -21 10 -8
0 -12 -4 -9 -10z"/>
<path d="M3330 380 c-8 -5 -11 -12 -7 -16 4 -4 13 -2 19 4 15 15 7 24 -12 12z"/>
<path d="M1117 329 c52 -48 72 -51 46 -7 -13 23 -29 34 -53 39 l-35 7 42 -39z"/>
<path d="M1920 300 c0 -5 7 -7 15 -4 8 4 22 1 30 -6 9 -7 15 -8 15 -2 0 11
-23 22 -46 22 -8 0 -14 -4 -14 -10z"/>
<path d="M2065 300 c3 -5 10 -10 16 -10 5 0 9 5 9 10 0 6 -7 10 -16 10 -8 0
-12 -4 -9 -10z"/>
<path d="M1190 277 c0 -9 40 -35 44 -28 3 4 -6 13 -19 19 -14 7 -25 10 -25 9z"/>
</g>
</svg>
