<?xml version="1.0" encoding="UTF-8"?>
<svg version="1.1" xmlns="http://www.w3.org/2000/svg" width="864" height="864">
<path d="M0 0 C4.20577899 1.04693211 5.84142965 2.37576137 8.890625 5.40625 C12.36451032 8.77111097 15.87544394 11.94288402 19.703125 14.90625 C25.10163849 19.26089508 29.98808228 24.06670505 34.890625 28.96875 C36.02576538 30.10280273 36.02576538 30.10280273 37.18383789 31.25976562 C41.30669797 35.42293489 45.27163399 39.67132756 49.07519531 44.12866211 C50.69467108 45.96762079 52.39152669 47.69080796 54.140625 49.40625 C57.85245615 53.06880906 61.25839744 56.93952097 64.640625 60.90625 C65.0536084 61.38900391 65.4665918 61.87175781 65.89208984 62.36914062 C71.36369889 68.77011421 76.75133607 75.20570586 81.88671875 81.8828125 C88.78832172 89.84501815 99.83347986 89.14019303 109.640625 89.90625 C116.39793393 90.307268 123.16352316 90.51664683 129.92861938 90.73913574 C171.08165779 92.13375406 210.78588281 97.48595318 250.640625 107.90625 C252.05345307 108.2710391 253.46637956 108.63544725 254.87939453 108.99951172 C294.54436238 119.24777944 335.49629075 130.12015586 371.640625 149.90625 C372.68347656 150.4528125 373.72632813 150.999375 374.80078125 151.5625 C382.39164942 155.71543949 388.7218141 160.87068279 395.14941406 166.59570312 C396.51490357 167.79576005 397.9160888 168.95488204 399.3203125 170.109375 C404.08508323 174.07741358 407.90797193 177.80374398 409.640625 183.90625 C409.84272087 188.85759889 407.75011009 191.64366755 404.5390625 195.16015625 C401.22294488 198.21016566 397.4830283 200.575192 393.640625 202.90625 C395.10435547 203.19628906 395.10435547 203.19628906 396.59765625 203.4921875 C397.86996094 203.75257813 399.14226563 204.01296875 400.453125 204.28125 C401.71769531 204.53648437 402.98226562 204.79171875 404.28515625 205.0546875 C407.640625 205.90625 407.640625 205.90625 410.640625 207.90625 C409.77967981 215.35011459 403.81037713 220.24174359 398.3125 224.86328125 C395.82342625 226.68887673 393.28712316 228.31759279 390.640625 229.90625 C389.74085938 230.45667969 388.84109375 231.00710938 387.9140625 231.57421875 C380.27380538 235.80053819 372.33274777 238.40300553 364.01171875 240.94140625 C362.75735016 241.32719345 361.50298157 241.71298065 360.21060181 242.11045837 C344.19436495 247.01607196 328.09018561 251.62712946 311.99243164 256.25628662 C307.86559864 257.44338671 303.73941818 258.63274876 299.61328125 259.82226562 C298.8028751 260.0558547 297.99246895 260.28944378 297.15750504 260.53011131 C290.8475887 262.34938995 284.53937817 264.1745287 278.23192978 266.00234413 C273.97174814 267.23579101 269.70863986 268.45820082 265.44214439 269.66962147 C262.3420568 270.55209633 259.24560573 271.44718633 256.1484375 272.33984375 C254.51054764 272.79883812 254.51054764 272.79883812 252.83956909 273.2671051 C244.24983555 275.76359698 239.04722459 278.42731129 234.203125 286.21875 C233.79336426 286.85466064 233.38360352 287.49057129 232.96142578 288.14575195 C232.03658733 289.58152574 231.11663192 291.02045258 230.20068359 292.46191406 C227.1780836 297.19779374 224.08944632 301.89102386 221.015625 306.59375 C216.03300416 314.21211161 216.03300416 314.21211161 211.11328125 321.87109375 C204.65686694 331.89650483 204.65686694 331.89650483 199.640625 334.90625 C196.953125 334.96875 196.953125 334.96875 194.640625 333.90625 C186.83568278 326.10130778 188.60470933 311.6635432 188.57470703 301.42675781 C188.57958385 297.91962783 188.60447088 294.41319924 188.640625 290.90625 C187.63773438 291.12539063 186.63484375 291.34453125 185.6015625 291.5703125 C173.63426696 294.10568709 161.5939834 296.11318172 149.515625 298.03125 C148.3207547 298.22306854 148.3207547 298.22306854 147.10174561 298.41876221 C135.64685899 300.25219099 124.18978391 301.80190181 112.640625 302.90625 C110.84226196 303.07882324 110.84226196 303.07882324 109.00756836 303.25488281 C96.3369429 304.27802593 83.62185723 303.92154471 70.92260742 303.73486328 C67.86894445 303.69254046 64.81559448 303.66912019 61.76171875 303.6484375 C60.83354843 303.62981659 59.90537811 303.61119568 58.94908142 303.5920105 C53.77175677 303.5715034 50.05753095 303.88429142 45.640625 306.90625 C44.10506765 308.68671169 44.10506765 308.68671169 43.1484375 310.78515625 C42.56195435 311.91352905 42.56195435 311.91352905 41.96362305 313.06469727 C41.37061401 314.25470337 41.37061401 314.25470337 40.765625 315.46875 C32.97787516 330.23201228 32.97787516 330.23201228 27.640625 334.90625 C25.990625 335.23625 24.340625 335.56625 22.640625 335.90625 C20.660625 332.93625 18.680625 329.96625 16.640625 326.90625 C12.2724359 330.47211865 8.49143844 334.09431392 4.84375 338.3828125 C1.32778547 342.40996336 -2.34820617 346.28728165 -6.01806641 350.17407227 C-8.82815091 353.15815001 -11.60077854 356.14999982 -14.2421875 359.28515625 C-15.08523438 360.27386719 -15.92828125 361.26257813 -16.796875 362.28125 C-17.51746094 363.15523437 -18.23804688 364.02921875 -18.98046875 364.9296875 C-22.09873522 367.52056243 -24.34814895 367.8185477 -28.359375 367.90625 C-31.87485519 365.23142812 -33.57646076 363.2042894 -34.359375 358.90625 C-35.07472796 351.65642287 -34.03413244 344.45519514 -33.046875 337.28125 C-32.87043457 335.95782593 -32.87043457 335.95782593 -32.69042969 334.60766602 C-31.94545774 329.50479871 -30.75098192 324.89814879 -29.02612305 320.04541016 C-27.9756157 316.67501639 -27.73252794 313.42465631 -27.421875 309.90625 C-26.77440303 303.55358249 -25.38145658 298.54746894 -22.359375 292.90625 C-23.02681732 292.85173676 -23.69425964 292.79722351 -24.38192749 292.74105835 C-31.05201707 292.16934887 -37.65207791 291.362538 -44.2734375 290.3828125 C-46.34341314 290.08195323 -48.41340054 289.78117487 -50.48339844 289.48046875 C-51.54683472 289.32497559 -52.610271 289.16948242 -53.70593262 289.00927734 C-99.78823328 282.29004998 -123.36063954 281.2796434 -163.0234375 307.09375 C-176.52909484 315.8721199 -190.21077091 324.34570407 -204.07910156 332.53857422 C-206.21271104 333.81828303 -208.31567209 335.13622492 -210.4140625 336.47265625 C-220.79901848 342.97533481 -220.79901848 342.97533481 -227.4921875 341.89453125 C-230.98679732 340.04487375 -232.79084605 337.4194248 -234.17236328 333.74243164 C-234.97351713 331.10332127 -235.68073416 328.45448068 -236.359375 325.78125 C-236.74065552 324.33093384 -236.74065552 324.33093384 -237.12963867 322.85131836 C-241.28767198 306.7722758 -244.57336122 291.06561561 -244.7644043 274.40820312 C-244.78610984 272.98640847 -244.82036004 271.56475178 -244.86694336 270.14355469 C-245.24221176 258.54629215 -245.24221176 258.54629215 -243.28710938 254.91430664 C-239.69580586 251.59186095 -234.64678908 250.56754535 -229.984375 249.59375 C-229.24832031 249.42552734 -228.51226562 249.25730469 -227.75390625 249.08398438 C-225.95914293 248.67608362 -224.15967515 248.28897414 -222.359375 247.90625 C-222.359375 246.91625 -222.359375 245.92625 -222.359375 244.90625 C-228.20889952 243.71378017 -234.06254903 242.54437443 -239.92041016 241.39355469 C-241.82452708 241.01311251 -243.72388627 240.60883557 -245.62109375 240.1953125 C-271.96508567 234.88805573 -298.17235654 241.45341504 -322.16998291 252.18045044 C-325.96747354 253.87297034 -329.78415553 255.52096695 -333.6015625 257.16796875 C-334.35597626 257.49353256 -335.11039001 257.81909637 -335.88766479 258.15452576 C-363.81184386 270.14426842 -392.77048262 278.69734204 -423.359375 277.90625 C-422.24072414 268.72329517 -420.65970036 259.62660221 -418.984375 250.53125 C-418.78755127 249.41443848 -418.59072754 248.29762695 -418.38793945 247.14697266 C-416.95181246 239.5184395 -415.35218724 232.31004998 -409.359375 226.90625 C-407.171875 225.71875 -407.171875 225.71875 -405.359375 224.90625 C-405.854375 224.431875 -406.349375 223.9575 -406.859375 223.46875 C-410.3059374 217.58087256 -408.12712307 209.78801347 -406.859375 203.40625 C-403.82315157 186.3506569 -405.12273456 173.88715071 -412.671875 158.03125 C-414.6353102 153.80353065 -414.7725702 150.53403626 -414.359375 145.90625 C-414.029375 145.57625 -413.699375 145.24625 -413.359375 144.90625 C-413.44818091 143.49461008 -413.60257053 142.08718488 -413.77734375 140.68359375 C-414.62083877 132.25545696 -414.61905885 123.81466545 -414.65454102 115.35180664 C-414.6661728 113.4171626 -414.68679614 111.48255331 -414.71606445 109.5480957 C-414.75854896 106.73106435 -414.77486886 103.91496718 -414.78515625 101.09765625 C-414.80266434 100.23411026 -414.82017242 99.37056427 -414.83821106 98.48085022 C-414.81659739 92.5331471 -414.81659739 92.5331471 -412.49755859 89.35351562 C-407.98712461 86.30055232 -402.44116147 88.01098619 -397.359375 88.90625 C-369.58960714 95.26988263 -344.03270077 110.09726964 -322.359375 128.28125 C-309.78904185 138.82712625 -295.82645449 146.4053326 -279.359375 148.90625 C-278.69550781 149.01582031 -278.03164063 149.12539063 -277.34765625 149.23828125 C-262.90756094 151.24014289 -247.85437045 149.65314849 -233.359375 148.90625 C-233.359375 148.24625 -233.359375 147.58625 -233.359375 146.90625 C-234.08382812 146.73609375 -234.80828125 146.5659375 -235.5546875 146.390625 C-242.10799525 144.74792919 -247.46239887 143.38262135 -251.921875 138.03125 C-252.359375 135.90625 -252.359375 135.90625 -251.296875 132.78125 C-248.41487427 128.50473278 -245.43645 128.15128729 -240.49609375 127.02734375 C-230.12965917 125.28284562 -223.29196434 126.18564225 -214.0078125 131.109375 C-200.00094965 138.43738107 -183.44223393 134.95798733 -168.64453125 132.31640625 C-167.10732056 132.04686081 -165.5700259 131.77779389 -164.03265381 131.50917053 C-159.9648628 130.79610747 -155.89877624 130.07379496 -151.83325577 129.34790802 C-149.39060532 128.9118255 -146.94769821 128.47720749 -144.50473022 128.04290771 C-134.69438963 126.29721612 -124.8883168 124.5286145 -115.08447266 122.74682617 C-111.74672824 122.1403441 -108.40850374 121.53661558 -105.06982422 120.93530273 C-81.92018509 116.7852789 -81.92018509 116.7852789 -58.875 112.09765625 C-57.97295837 111.90259995 -57.07091675 111.70754364 -56.14154053 111.50657654 C-51.78157427 110.53532521 -47.57176029 109.41769763 -43.359375 107.90625 C-46.27549737 105.96216842 -48.55289489 105.08261335 -51.8671875 104.03125 C-52.93582031 103.68578125 -54.00445312 103.3403125 -55.10546875 102.984375 C-57.36516466 102.2633622 -59.62558808 101.54462565 -61.88671875 100.828125 C-62.95277344 100.48265625 -64.01882813 100.1371875 -65.1171875 99.78125 C-66.58889404 99.31332031 -66.58889404 99.31332031 -68.09033203 98.8359375 C-70.359375 97.90625 -70.359375 97.90625 -71.359375 95.90625 C-70.15096093 88.62555522 -66.34494275 84.05575325 -61.359375 78.90625 C-55.77931815 72.91545288 -50.78056269 66.91331586 -46.28125 60.05859375 C-43.98627994 57.48841386 -42.74873106 57.13401473 -39.359375 56.90625 C-36.546875 57.34375 -36.546875 57.34375 -34.359375 57.90625 C-35.679375 56.91625 -36.999375 55.92625 -38.359375 54.90625 C-37.8037146 51.33430687 -36.95054214 48.85478757 -34.95092773 45.8503418 C-34.20026283 44.70972542 -34.20026283 44.70972542 -33.43443298 43.54606628 C-32.89274979 42.7406691 -32.35106659 41.93527191 -31.79296875 41.10546875 C-31.23948257 40.26909378 -30.6859964 39.43271881 -30.11573792 38.57099915 C-28.35023574 35.90687923 -26.57375004 33.25029469 -24.796875 30.59375 C-23.59627322 28.7862933 -22.39639475 26.97835592 -21.19726562 25.16992188 C-18.25966515 20.74309076 -15.31301819 16.3223911 -12.359375 11.90625 C-10.379375 12.56625 -8.399375 13.22625 -6.359375 13.90625 C-6.39417969 13.06320312 -6.42898438 12.22015625 -6.46484375 11.3515625 C-6.49191406 10.25585938 -6.51898438 9.16015625 -6.546875 8.03125 C-6.58167969 6.94070312 -6.61648438 5.85015625 -6.65234375 4.7265625 C-6.55566406 3.79585937 -6.45898438 2.86515625 -6.359375 1.90625 C-3.359375 -0.09375 -3.359375 -0.09375 0 0 Z " fill="#000000" transform="translate(438.359375,248.09375)"/>
</svg>
